  0
SECTION
  2
HEADER
  9
$ACADVER
  1
AC1009
  9
$EXTMIN
 10
0.0
 20
0.0
 30
0.0
  9
$EXTMAX
 10
1000.0
 20
1000.0
 30
0.0
  9
$FILLMODE
 70
 0
  9
$SPLFRAME
 70
 1
  0
ENDSEC
  0
SECTION
  2
TABLES
  0
TABLE
  2
LAYER
 70
1
  0
LAYER
  2
0
 70
     0
 62
     7
  6
CONTINUOUS
  0
ENDTAB
  0
ENDSEC
  0
SECTION
  2
ENTITIES
  0
LINE
  8
0
 62
     1
 10
3.54983
 20
154.467
 30
0.0
 11
3.20807
 21
154.467
 31
0.0
  0
LINE
  8
0
 62
     1
 10
3.20807
 20
154.467
 30
0.0
 11
2.18695
 21
154.193
 31
0.0
  0
LINE
  8
0
 62
     1
 10
2.18695
 20
154.193
 30
0.0
 11
1.07349
 21
153.443
 31
0.0
  0
LINE
  8
0
 62
     1
 10
1.07349
 20
153.443
 30
0.0
 11
0.323839
 21
152.33
 31
0.0
  0
LINE
  8
0
 62
     1
 10
0.323839
 20
152.33
 30
0.0
 11
0.0496094
 21
151.309
 31
0.0
  0
LINE
  8
0
 62
     1
 10
0.0496094
 20
151.309
 30
0.0
 11
0.0496094
 21
150.967
 31
0.0
  0
LINE
  8
0
 62
     1
 10
0.0496094
 20
150.967
 30
0.0
 11
0.0496094
 21
43.4813
 31
0.0
  0
LINE
  8
0
 62
     1
 10
0.0496094
 20
43.4813
 30
0.0
 11
0.0496094
 21
43.1408
 31
0.0
  0
LINE
  8
0
 62
     1
 10
0.0496094
 20
43.1408
 30
0.0
 11
0.323839
 21
42.1199
 31
0.0
  0
LINE
  8
0
 62
     1
 10
0.323839
 20
42.1199
 30
0.0
 11
1.07349
 21
41.0076
 31
0.0
  0
LINE
  8
0
 62
     1
 10
1.07349
 20
41.0076
 30
0.0
 11
2.18695
 21
40.2579
 31
0.0
  0
LINE
  8
0
 62
     1
 10
2.18695
 20
40.2579
 30
0.0
 11
3.20807
 21
39.9824
 31
0.0
  0
LINE
  8
0
 62
     1
 10
3.20807
 20
39.9824
 30
0.0
 11
3.54983
 21
39.9824
 31
0.0
  0
LINE
  8
0
 62
     1
 10
3.54983
 20
39.9824
 30
0.0
 11
82.0843
 21
39.9824
 31
0.0
  0
LINE
  8
0
 62
     1
 10
82.0843
 20
39.9824
 30
0.0
 11
82.4537
 21
39.9824
 31
0.0
  0
LINE
  8
0
 62
     1
 10
82.4537
 20
39.9824
 30
0.0
 11
83.4485
 21
39.7083
 31
0.0
  0
LINE
  8
0
 62
     1
 10
83.4485
 20
39.7083
 30
0.0
 11
83.5642
 21
39.6543
 31
0.0
  0
LINE
  8
0
 62
     1
 10
83.5642
 20
39.6543
 30
0.0
 11
167.428
 21
0.547081
 31
0.0
  0
LINE
  8
0
 62
     1
 10
167.428
 20
0.547081
 30
0.0
 11
167.735
 21
0.403765
 31
0.0
  0
LINE
  8
0
 62
     1
 10
167.735
 20
0.403765
 30
0.0
 11
168.778
 21
0.220486
 31
0.0
  0
LINE
  8
0
 62
     1
 10
168.778
 20
0.220486
 30
0.0
 11
170.104
 21
0.431327
 31
0.0
  0
LINE
  8
0
 62
     1
 10
170.104
 20
0.431327
 30
0.0
 11
171.253
 21
1.12172
 31
0.0
  0
LINE
  8
0
 62
     1
 10
171.253
 20
1.12172
 30
0.0
 11
171.934
 21
1.93201
 31
0.0
  0
LINE
  8
0
 62
     1
 10
171.934
 20
1.93201
 30
0.0
 11
172.078
 21
2.24069
 31
0.0
  0
LINE
  8
0
 62
     1
 10
172.078
 20
2.24069
 30
0.0
 11
199.373
 21
60.7741
 31
0.0
  0
LINE
  8
0
 62
     1
 10
199.373
 20
60.7741
 30
0.0
 11
199.427
 21
60.8902
 31
0.0
  0
LINE
  8
0
 62
     1
 10
199.427
 20
60.8902
 30
0.0
 11
199.701
 21
61.9125
 31
0.0
  0
LINE
  8
0
 62
     1
 10
199.701
 20
61.9125
 30
0.0
 11
199.701
 21
62.2529
 31
0.0
  0
LINE
  8
0
 62
     1
 10
199.701
 20
62.2529
 30
0.0
 11
199.701
 21
150.967
 31
0.0
  0
LINE
  8
0
 62
     1
 10
199.701
 20
150.967
 30
0.0
 11
199.701
 21
151.309
 31
0.0
  0
LINE
  8
0
 62
     1
 10
199.701
 20
151.309
 30
0.0
 11
199.426
 21
152.33
 31
0.0
  0
LINE
  8
0
 62
     1
 10
199.426
 20
152.33
 30
0.0
 11
198.676
 21
153.443
 31
0.0
  0
LINE
  8
0
 62
     1
 10
198.676
 20
153.443
 30
0.0
 11
197.564
 21
154.193
 31
0.0
  0
LINE
  8
0
 62
     1
 10
197.564
 20
154.193
 30
0.0
 11
196.543
 21
154.467
 31
0.0
  0
LINE
  8
0
 62
     1
 10
196.543
 20
154.467
 30
0.0
 11
196.202
 21
154.467
 31
0.0
  0
LINE
  8
0
 62
     1
 10
196.202
 20
154.467
 30
0.0
 11
3.54983
 21
154.467
 31
0.0
  0
LINE
  8
0
 62
     1
 10
2.05052
 20
147.804
 30
0.0
 11
2.05052
 21
46.6439
 31
0.0
  0
LINE
  8
0
 62
     1
 10
2.05052
 20
46.6439
 30
0.0
 11
2.29168
 21
46.7582
 31
0.0
  0
LINE
  8
0
 62
     1
 10
2.29168
 20
46.7582
 30
0.0
 11
3.08818
 21
46.9512
 31
0.0
  0
LINE
  8
0
 62
     1
 10
3.08818
 20
46.9512
 30
0.0
 11
4.14651
 21
46.9304
 31
0.0
  0
LINE
  8
0
 62
     1
 10
4.14651
 20
46.9304
 30
0.0
 11
5.14974
 21
46.5956
 31
0.0
  0
LINE
  8
0
 62
     1
 10
5.14974
 20
46.5956
 30
0.0
 11
5.83463
 21
46.1465
 31
0.0
  0
LINE
  8
0
 62
     1
 10
5.83463
 20
46.1465
 30
0.0
 11
6.02477
 21
45.9564
 31
0.0
  0
LINE
  8
0
 62
     1
 10
6.02477
 20
45.9564
 30
0.0
 11
6.21358
 21
45.7673
 31
0.0
  0
LINE
  8
0
 62
     1
 10
6.21358
 20
45.7673
 30
0.0
 11
6.66143
 21
45.0825
 31
0.0
  0
LINE
  8
0
 62
     1
 10
6.66143
 20
45.0825
 30
0.0
 11
6.99766
 21
44.0792
 31
0.0
  0
LINE
  8
0
 62
     1
 10
6.99766
 20
44.0792
 30
0.0
 11
7.01834
 21
43.0209
 31
0.0
  0
LINE
  8
0
 62
     1
 10
7.01834
 20
43.0209
 30
0.0
 11
6.82681
 21
42.2243
 31
0.0
  0
LINE
  8
0
 62
     1
 10
6.82681
 20
42.2243
 30
0.0
 11
6.71241
 21
41.982
 31
0.0
  0
LINE
  8
0
 62
     1
 10
6.71241
 20
41.982
 30
0.0
 11
80.4746
 21
41.982
 31
0.0
  0
LINE
  8
0
 62
     1
 10
80.4746
 20
41.982
 30
0.0
 11
80.3698
 21
42.2025
 31
0.0
  0
LINE
  8
0
 62
     1
 10
80.3698
 20
42.2025
 30
0.0
 11
80.1811
 21
42.9204
 31
0.0
  0
LINE
  8
0
 62
     1
 10
80.1811
 20
42.9204
 30
0.0
 11
80.1592
 21
43.8838
 31
0.0
  0
LINE
  8
0
 62
     1
 10
80.1592
 20
43.8838
 30
0.0
 11
80.4002
 21
44.8179
 31
0.0
  0
LINE
  8
0
 62
     1
 10
80.4002
 20
44.8179
 30
0.0
 11
80.7491
 21
45.4738
 31
0.0
  0
LINE
  8
0
 62
     1
 10
80.7491
 20
45.4738
 30
0.0
 11
80.9004
 21
45.6639
 31
0.0
  0
LINE
  8
0
 62
     1
 10
80.9004
 20
45.6639
 30
0.0
 11
81.0507
 21
45.8541
 31
0.0
  0
LINE
  8
0
 62
     1
 10
81.0507
 20
45.8541
 30
0.0
 11
81.613
 21
46.3391
 31
0.0
  0
LINE
  8
0
 62
     1
 10
81.613
 20
46.3391
 30
0.0
 11
82.4689
 21
46.7815
 31
0.0
  0
LINE
  8
0
 62
     1
 10
82.4689
 20
46.7815
 30
0.0
 11
83.414
 21
46.9759
 31
0.0
  0
LINE
  8
0
 62
     1
 10
83.414
 20
46.9759
 30
0.0
 11
84.1555
 21
46.9512
 31
0.0
  0
LINE
  8
0
 62
     1
 10
84.1555
 20
46.9512
 30
0.0
 11
84.394
 21
46.8986
 31
0.0
  0
LINE
  8
0
 62
     1
 10
84.394
 20
46.8986
 30
0.0
 11
84.6307
 21
46.8464
 31
0.0
  0
LINE
  8
0
 62
     1
 10
84.6307
 20
46.8464
 30
0.0
 11
85.313
 21
46.5543
 31
0.0
  0
LINE
  8
0
 62
     1
 10
85.313
 20
46.5543
 30
0.0
 11
86.0873
 21
45.9796
 31
0.0
  0
LINE
  8
0
 62
     1
 10
86.0873
 20
45.9796
 30
0.0
 11
86.6757
 21
45.2162
 31
0.0
  0
LINE
  8
0
 62
     1
 10
86.6757
 20
45.2162
 30
0.0
 11
86.9819
 21
44.5396
 31
0.0
  0
LINE
  8
0
 62
     1
 10
86.9819
 20
44.5396
 30
0.0
 11
87.0398
 21
44.3025
 31
0.0
  0
LINE
  8
0
 62
     1
 10
87.0398
 20
44.3025
 30
0.0
 11
87.0962
 21
44.0669
 31
0.0
  0
LINE
  8
0
 62
     1
 10
87.0962
 20
44.0669
 30
0.0
 11
87.1333
 21
43.3257
 31
0.0
  0
LINE
  8
0
 62
     1
 10
87.1333
 20
43.3257
 30
0.0
 11
86.9569
 21
42.3774
 31
0.0
  0
LINE
  8
0
 62
     1
 10
86.9569
 20
42.3774
 30
0.0
 11
86.5297
 21
41.5135
 31
0.0
  0
LINE
  8
0
 62
     1
 10
86.5297
 20
41.5135
 30
0.0
 11
86.0559
 21
40.9416
 31
0.0
  0
LINE
  8
0
 62
     1
 10
86.0559
 20
40.9416
 30
0.0
 11
85.8682
 21
40.7857
 31
0.0
  0
LINE
  8
0
 62
     1
 10
85.8682
 20
40.7857
 30
0.0
 11
165.407
 21
3.69591
 31
0.0
  0
LINE
  8
0
 62
     1
 10
165.407
 20
3.69591
 30
0.0
 11
165.404
 21
3.96462
 31
0.0
  0
LINE
  8
0
 62
     1
 10
165.404
 20
3.96462
 30
0.0
 11
165.567
 21
4.768
 31
0.0
  0
LINE
  8
0
 62
     1
 10
165.567
 20
4.768
 30
0.0
 11
166.033
 21
5.71885
 31
0.0
  0
LINE
  8
0
 62
     1
 10
166.033
 20
5.71885
 30
0.0
 11
166.762
 21
6.48642
 31
0.0
  0
LINE
  8
0
 62
     1
 10
166.762
 20
6.48642
 30
0.0
 11
167.458
 21
6.91776
 31
0.0
  0
LINE
  8
0
 62
     1
 10
167.458
 20
6.91776
 30
0.0
 11
167.71
 21
7.00871
 31
0.0
  0
LINE
  8
0
 62
     1
 10
167.71
 20
7.00871
 30
0.0
 11
167.961
 21
7.10103
 31
0.0
  0
LINE
  8
0
 62
     1
 10
167.961
 20
7.10103
 30
0.0
 11
168.771
 21
7.21815
 31
0.0
  0
LINE
  8
0
 62
     1
 10
168.771
 20
7.21815
 30
0.0
 11
169.824
 21
7.09828
 31
0.0
  0
LINE
  8
0
 62
     1
 10
169.824
 20
7.09828
 30
0.0
 11
170.791
 21
6.66972
 31
0.0
  0
LINE
  8
0
 62
     1
 10
170.791
 20
6.66972
 30
0.0
 11
171.432
 21
6.15844
 31
0.0
  0
LINE
  8
0
 62
     1
 10
171.432
 20
6.15844
 30
0.0
 11
171.603
 21
5.95175
 31
0.0
  0
LINE
  8
0
 62
     1
 10
171.603
 20
5.95175
 30
0.0
 11
196.225
 21
58.7541
 31
0.0
  0
LINE
  8
0
 62
     1
 10
196.225
 20
58.7541
 30
0.0
 11
195.957
 21
58.7527
 31
0.0
  0
LINE
  8
0
 62
     1
 10
195.957
 20
58.7527
 30
0.0
 11
194.703
 21
59.0903
 31
0.0
  0
LINE
  8
0
 62
     1
 10
194.703
 20
59.0903
 30
0.0
 11
193.646
 21
59.847
 31
0.0
  0
LINE
  8
0
 62
     1
 10
193.646
 20
59.847
 30
0.0
 11
193.479
 21
60.0534
 31
0.0
  0
LINE
  8
0
 62
     1
 10
193.479
 20
60.0534
 30
0.0
 11
193.311
 21
60.2615
 31
0.0
  0
LINE
  8
0
 62
     1
 10
193.311
 20
60.2615
 30
0.0
 11
192.794
 21
61.4535
 31
0.0
  0
LINE
  8
0
 62
     1
 10
192.794
 20
61.4535
 30
0.0
 11
192.727
 21
62.7518
 31
0.0
  0
LINE
  8
0
 62
     1
 10
192.727
 20
62.7518
 30
0.0
 11
192.785
 21
63.0107
 31
0.0
  0
LINE
  8
0
 62
     1
 10
192.785
 20
63.0107
 30
0.0
 11
192.841
 21
63.2714
 31
0.0
  0
LINE
  8
0
 62
     1
 10
192.841
 20
63.2714
 30
0.0
 11
193.452
 21
64.419
 31
0.0
  0
LINE
  8
0
 62
     1
 10
193.452
 20
64.419
 30
0.0
 11
194.425
 21
65.2805
 31
0.0
  0
LINE
  8
0
 62
     1
 10
194.425
 20
65.2805
 30
0.0
 11
194.665
 21
65.3976
 31
0.0
  0
LINE
  8
0
 62
     1
 10
194.665
 20
65.3976
 30
0.0
 11
194.903
 21
65.5147
 31
0.0
  0
LINE
  8
0
 62
     1
 10
194.903
 20
65.5147
 30
0.0
 11
196.18
 21
65.7546
 31
0.0
  0
LINE
  8
0
 62
     1
 10
196.18
 20
65.7546
 30
0.0
 11
197.46
 21
65.5299
 31
0.0
  0
LINE
  8
0
 62
     1
 10
197.46
 20
65.5299
 30
0.0
 11
197.702
 21
65.4156
 31
0.0
  0
LINE
  8
0
 62
     1
 10
197.702
 20
65.4156
 30
0.0
 11
197.702
 21
147.804
 31
0.0
  0
LINE
  8
0
 62
     1
 10
197.702
 20
147.804
 30
0.0
 11
197.459
 21
147.69
 31
0.0
  0
LINE
  8
0
 62
     1
 10
197.459
 20
147.69
 30
0.0
 11
196.663
 21
147.498
 31
0.0
  0
LINE
  8
0
 62
     1
 10
196.663
 20
147.498
 30
0.0
 11
195.604
 21
147.519
 31
0.0
  0
LINE
  8
0
 62
     1
 10
195.604
 20
147.519
 30
0.0
 11
194.601
 21
147.855
 31
0.0
  0
LINE
  8
0
 62
     1
 10
194.601
 20
147.855
 30
0.0
 11
193.916
 21
148.303
 31
0.0
  0
LINE
  8
0
 62
     1
 10
193.916
 20
148.303
 30
0.0
 11
193.727
 21
148.492
 31
0.0
  0
LINE
  8
0
 62
     1
 10
193.727
 20
148.492
 30
0.0
 11
193.537
 21
148.682
 31
0.0
  0
LINE
  8
0
 62
     1
 10
193.537
 20
148.682
 30
0.0
 11
193.088
 21
149.367
 31
0.0
  0
LINE
  8
0
 62
     1
 10
193.088
 20
149.367
 30
0.0
 11
192.753
 21
150.37
 31
0.0
  0
LINE
  8
0
 62
     1
 10
192.753
 20
150.37
 30
0.0
 11
192.732
 21
151.428
 31
0.0
  0
LINE
  8
0
 62
     1
 10
192.732
 20
151.428
 30
0.0
 11
192.925
 21
152.225
 31
0.0
  0
LINE
  8
0
 62
     1
 10
192.925
 20
152.225
 30
0.0
 11
193.04
 21
152.466
 31
0.0
  0
LINE
  8
0
 62
     1
 10
193.04
 20
152.466
 30
0.0
 11
6.71241
 21
152.466
 31
0.0
  0
LINE
  8
0
 62
     1
 10
6.71241
 20
152.466
 30
0.0
 11
6.82681
 21
152.225
 31
0.0
  0
LINE
  8
0
 62
     1
 10
6.82681
 20
152.225
 30
0.0
 11
7.01834
 21
151.428
 31
0.0
  0
LINE
  8
0
 62
     1
 10
7.01834
 20
151.428
 30
0.0
 11
6.99766
 21
150.37
 31
0.0
  0
LINE
  8
0
 62
     1
 10
6.99766
 20
150.37
 30
0.0
 11
6.66143
 21
149.367
 31
0.0
  0
LINE
  8
0
 62
     1
 10
6.66143
 20
149.367
 30
0.0
 11
6.21358
 21
148.681
 31
0.0
  0
LINE
  8
0
 62
     1
 10
6.21358
 20
148.681
 30
0.0
 11
6.02477
 21
148.492
 31
0.0
  0
LINE
  8
0
 62
     1
 10
6.02477
 20
148.492
 30
0.0
 11
5.836
 21
148.303
 31
0.0
  0
LINE
  8
0
 62
     1
 10
5.836
 20
148.303
 30
0.0
 11
5.14974
 21
147.855
 31
0.0
  0
LINE
  8
0
 62
     1
 10
5.14974
 20
147.855
 30
0.0
 11
4.14651
 21
147.519
 31
0.0
  0
LINE
  8
0
 62
     1
 10
4.14651
 20
147.519
 30
0.0
 11
3.08818
 21
147.498
 31
0.0
  0
LINE
  8
0
 62
     1
 10
3.08818
 20
147.498
 30
0.0
 11
2.29168
 21
147.69
 31
0.0
  0
LINE
  8
0
 62
     1
 10
2.29168
 20
147.69
 30
0.0
 11
2.05052
 21
147.804
 31
0.0
  0
LINE
  8
0
 62
     1
 10
1.99953
 20
150.967
 30
0.0
 11
1.99953
 21
151.138
 31
0.0
  0
LINE
  8
0
 62
     1
 10
1.99953
 20
151.138
 30
0.0
 11
2.13183
 21
151.646
 31
0.0
  0
LINE
  8
0
 62
     1
 10
2.13183
 20
151.646
 30
0.0
 11
2.48322
 21
152.13
 31
0.0
  0
LINE
  8
0
 62
     1
 10
2.48322
 20
152.13
 30
0.0
 11
2.97932
 21
152.421
 31
0.0
  0
LINE
  8
0
 62
     1
 10
2.97932
 20
152.421
 30
0.0
 11
3.54983
 21
152.517
 31
0.0
  0
LINE
  8
0
 62
     1
 10
3.54983
 20
152.517
 30
0.0
 11
4.11896
 21
152.421
 31
0.0
  0
LINE
  8
0
 62
     1
 10
4.11896
 20
152.421
 30
0.0
 11
4.61504
 21
152.13
 31
0.0
  0
LINE
  8
0
 62
     1
 10
4.61504
 20
152.13
 30
0.0
 11
4.96644
 21
151.646
 31
0.0
  0
LINE
  8
0
 62
     1
 10
4.96644
 20
151.646
 30
0.0
 11
5.10011
 21
151.138
 31
0.0
  0
LINE
  8
0
 62
     1
 10
5.10011
 20
151.138
 30
0.0
 11
5.10011
 21
150.967
 31
0.0
  0
LINE
  8
0
 62
     1
 10
5.10011
 20
150.967
 30
0.0
 11
5.10011
 21
150.797
 31
0.0
  0
LINE
  8
0
 62
     1
 10
5.10011
 20
150.797
 30
0.0
 11
4.96644
 21
150.289
 31
0.0
  0
LINE
  8
0
 62
     1
 10
4.96644
 20
150.289
 30
0.0
 11
4.61504
 21
149.805
 31
0.0
  0
LINE
  8
0
 62
     1
 10
4.61504
 20
149.805
 30
0.0
 11
4.11896
 21
149.514
 31
0.0
  0
LINE
  8
0
 62
     1
 10
4.11896
 20
149.514
 30
0.0
 11
3.54983
 21
149.417
 31
0.0
  0
LINE
  8
0
 62
     1
 10
3.54983
 20
149.417
 30
0.0
 11
2.97932
 21
149.514
 31
0.0
  0
LINE
  8
0
 62
     1
 10
2.97932
 20
149.514
 30
0.0
 11
2.48322
 21
149.805
 31
0.0
  0
LINE
  8
0
 62
     1
 10
2.48322
 20
149.805
 30
0.0
 11
2.13183
 21
150.289
 31
0.0
  0
LINE
  8
0
 62
     1
 10
2.13183
 20
150.289
 30
0.0
 11
1.99953
 21
150.797
 31
0.0
  0
LINE
  8
0
 62
     1
 10
1.99953
 20
150.797
 30
0.0
 11
1.99953
 21
150.967
 31
0.0
  0
LINE
  8
0
 62
     1
 10
1.99953
 20
43.4813
 30
0.0
 11
1.99953
 21
43.652
 31
0.0
  0
LINE
  8
0
 62
     1
 10
1.99953
 20
43.652
 30
0.0
 11
2.13183
 21
44.1607
 31
0.0
  0
LINE
  8
0
 62
     1
 10
2.13183
 20
44.1607
 30
0.0
 11
2.48322
 21
44.6444
 31
0.0
  0
LINE
  8
0
 62
     1
 10
2.48322
 20
44.6444
 30
0.0
 11
2.97932
 21
44.9351
 31
0.0
  0
LINE
  8
0
 62
     1
 10
2.97932
 20
44.9351
 30
0.0
 11
3.54983
 21
45.0314
 31
0.0
  0
LINE
  8
0
 62
     1
 10
3.54983
 20
45.0314
 30
0.0
 11
4.11896
 21
44.9351
 31
0.0
  0
LINE
  8
0
 62
     1
 10
4.11896
 20
44.9351
 30
0.0
 11
4.61504
 21
44.6444
 31
0.0
  0
LINE
  8
0
 62
     1
 10
4.61504
 20
44.6444
 30
0.0
 11
4.96644
 21
44.1607
 31
0.0
  0
LINE
  8
0
 62
     1
 10
4.96644
 20
44.1607
 30
0.0
 11
5.10011
 21
43.652
 31
0.0
  0
LINE
  8
0
 62
     1
 10
5.10011
 20
43.652
 30
0.0
 11
5.10011
 21
43.4813
 31
0.0
  0
LINE
  8
0
 62
     1
 10
5.10011
 20
43.4813
 30
0.0
 11
5.10011
 21
43.313
 31
0.0
  0
LINE
  8
0
 62
     1
 10
5.10011
 20
43.313
 30
0.0
 11
4.96644
 21
42.8046
 31
0.0
  0
LINE
  8
0
 62
     1
 10
4.96644
 20
42.8046
 30
0.0
 11
4.61504
 21
42.3196
 31
0.0
  0
LINE
  8
0
 62
     1
 10
4.61504
 20
42.3196
 30
0.0
 11
4.11896
 21
42.0303
 31
0.0
  0
LINE
  8
0
 62
     1
 10
4.11896
 20
42.0303
 30
0.0
 11
3.54983
 21
41.9322
 31
0.0
  0
LINE
  8
0
 62
     1
 10
3.54983
 20
41.9322
 30
0.0
 11
2.97932
 21
42.0303
 31
0.0
  0
LINE
  8
0
 62
     1
 10
2.97932
 20
42.0303
 30
0.0
 11
2.48322
 21
42.3196
 31
0.0
  0
LINE
  8
0
 62
     1
 10
2.48322
 20
42.3196
 30
0.0
 11
2.13183
 21
42.8046
 31
0.0
  0
LINE
  8
0
 62
     1
 10
2.13183
 20
42.8046
 30
0.0
 11
1.99953
 21
43.313
 31
0.0
  0
LINE
  8
0
 62
     1
 10
1.99953
 20
43.313
 30
0.0
 11
1.99953
 21
43.4813
 31
0.0
  0
LINE
  8
0
 62
     1
 10
82.0872
 20
43.4813
 30
0.0
 11
82.0872
 21
43.652
 31
0.0
  0
LINE
  8
0
 62
     1
 10
82.0872
 20
43.652
 30
0.0
 11
82.2194
 21
44.1607
 31
0.0
  0
LINE
  8
0
 62
     1
 10
82.2194
 20
44.1607
 30
0.0
 11
82.5708
 21
44.6444
 31
0.0
  0
LINE
  8
0
 62
     1
 10
82.5708
 20
44.6444
 30
0.0
 11
83.0668
 21
44.9351
 31
0.0
  0
LINE
  8
0
 62
     1
 10
83.0668
 20
44.9351
 30
0.0
 11
83.6359
 21
45.0314
 31
0.0
  0
LINE
  8
0
 62
     1
 10
83.6359
 20
45.0314
 30
0.0
 11
84.2049
 21
44.9351
 31
0.0
  0
LINE
  8
0
 62
     1
 10
84.2049
 20
44.9351
 30
0.0
 11
84.7012
 21
44.6444
 31
0.0
  0
LINE
  8
0
 62
     1
 10
84.7012
 20
44.6444
 30
0.0
 11
85.0526
 21
44.1607
 31
0.0
  0
LINE
  8
0
 62
     1
 10
85.0526
 20
44.1607
 30
0.0
 11
85.1863
 21
43.652
 31
0.0
  0
LINE
  8
0
 62
     1
 10
85.1863
 20
43.652
 30
0.0
 11
85.1863
 21
43.4813
 31
0.0
  0
LINE
  8
0
 62
     1
 10
85.1863
 20
43.4813
 30
0.0
 11
85.1863
 21
43.313
 31
0.0
  0
LINE
  8
0
 62
     1
 10
85.1863
 20
43.313
 30
0.0
 11
85.0526
 21
42.8046
 31
0.0
  0
LINE
  8
0
 62
     1
 10
85.0526
 20
42.8046
 30
0.0
 11
84.7012
 21
42.3196
 31
0.0
  0
LINE
  8
0
 62
     1
 10
84.7012
 20
42.3196
 30
0.0
 11
84.2049
 21
42.0303
 31
0.0
  0
LINE
  8
0
 62
     1
 10
84.2049
 20
42.0303
 30
0.0
 11
83.6359
 21
41.9322
 31
0.0
  0
LINE
  8
0
 62
     1
 10
83.6359
 20
41.9322
 30
0.0
 11
83.0668
 21
42.0303
 31
0.0
  0
LINE
  8
0
 62
     1
 10
83.0668
 20
42.0303
 30
0.0
 11
82.5708
 21
42.3196
 31
0.0
  0
LINE
  8
0
 62
     1
 10
82.5708
 20
42.3196
 30
0.0
 11
82.2194
 21
42.8046
 31
0.0
  0
LINE
  8
0
 62
     1
 10
82.2194
 20
42.8046
 30
0.0
 11
82.0872
 21
43.313
 31
0.0
  0
LINE
  8
0
 62
     1
 10
82.0872
 20
43.313
 30
0.0
 11
82.0872
 21
43.4813
 31
0.0
  0
LINE
  8
0
 62
     1
 10
167.357
 20
3.71934
 30
0.0
 11
167.357
 21
3.89019
 31
0.0
  0
LINE
  8
0
 62
     1
 10
167.357
 20
3.89019
 30
0.0
 11
167.489
 21
4.39872
 31
0.0
  0
LINE
  8
0
 62
     1
 10
167.489
 20
4.39872
 30
0.0
 11
167.841
 21
4.88237
 31
0.0
  0
LINE
  8
0
 62
     1
 10
167.841
 20
4.88237
 30
0.0
 11
168.337
 21
5.17317
 31
0.0
  0
LINE
  8
0
 62
     1
 10
168.337
 20
5.17317
 30
0.0
 11
168.906
 21
5.26962
 31
0.0
  0
LINE
  8
0
 62
     1
 10
168.906
 20
5.26962
 30
0.0
 11
169.475
 21
5.17317
 31
0.0
  0
LINE
  8
0
 62
     1
 10
169.475
 20
5.17317
 30
0.0
 11
169.972
 21
4.88237
 31
0.0
  0
LINE
  8
0
 62
     1
 10
169.972
 20
4.88237
 30
0.0
 11
170.323
 21
4.39872
 31
0.0
  0
LINE
  8
0
 62
     1
 10
170.323
 20
4.39872
 30
0.0
 11
170.457
 21
3.89019
 31
0.0
  0
LINE
  8
0
 62
     1
 10
170.457
 20
3.89019
 30
0.0
 11
170.457
 21
3.71934
 31
0.0
  0
LINE
  8
0
 62
     1
 10
170.457
 20
3.71934
 30
0.0
 11
170.457
 21
3.54983
 31
0.0
  0
LINE
  8
0
 62
     1
 10
170.457
 20
3.54983
 30
0.0
 11
170.323
 21
3.04133
 31
0.0
  0
LINE
  8
0
 62
     1
 10
170.323
 20
3.04133
 30
0.0
 11
169.972
 21
2.55764
 31
0.0
  0
LINE
  8
0
 62
     1
 10
169.972
 20
2.55764
 30
0.0
 11
169.475
 21
2.26687
 31
0.0
  0
LINE
  8
0
 62
     1
 10
169.475
 20
2.26687
 30
0.0
 11
168.906
 21
2.16903
 31
0.0
  0
LINE
  8
0
 62
     1
 10
168.906
 20
2.16903
 30
0.0
 11
168.337
 21
2.26687
 31
0.0
  0
LINE
  8
0
 62
     1
 10
168.337
 20
2.26687
 30
0.0
 11
167.841
 21
2.55764
 31
0.0
  0
LINE
  8
0
 62
     1
 10
167.841
 20
2.55764
 30
0.0
 11
167.489
 21
3.04133
 31
0.0
  0
LINE
  8
0
 62
     1
 10
167.489
 20
3.04133
 30
0.0
 11
167.357
 21
3.54983
 31
0.0
  0
LINE
  8
0
 62
     1
 10
167.357
 20
3.54983
 30
0.0
 11
167.357
 21
3.71934
 31
0.0
  0
LINE
  8
0
 62
     1
 10
194.652
 20
62.2529
 30
0.0
 11
194.652
 21
62.4237
 31
0.0
  0
LINE
  8
0
 62
     1
 10
194.652
 20
62.4237
 30
0.0
 11
194.784
 21
62.9324
 31
0.0
  0
LINE
  8
0
 62
     1
 10
194.784
 20
62.9324
 30
0.0
 11
195.136
 21
63.416
 31
0.0
  0
LINE
  8
0
 62
     1
 10
195.136
 20
63.416
 30
0.0
 11
195.632
 21
63.7067
 31
0.0
  0
LINE
  8
0
 62
     1
 10
195.632
 20
63.7067
 30
0.0
 11
196.201
 21
63.803
 31
0.0
  0
LINE
  8
0
 62
     1
 10
196.201
 20
63.803
 30
0.0
 11
196.77
 21
63.7067
 31
0.0
  0
LINE
  8
0
 62
     1
 10
196.77
 20
63.7067
 30
0.0
 11
197.266
 21
63.416
 31
0.0
  0
LINE
  8
0
 62
     1
 10
197.266
 20
63.416
 30
0.0
 11
197.618
 21
62.9324
 31
0.0
  0
LINE
  8
0
 62
     1
 10
197.618
 20
62.9324
 30
0.0
 11
197.751
 21
62.4237
 31
0.0
  0
LINE
  8
0
 62
     1
 10
197.751
 20
62.4237
 30
0.0
 11
197.751
 21
62.2529
 31
0.0
  0
LINE
  8
0
 62
     1
 10
197.751
 20
62.2529
 30
0.0
 11
197.751
 21
62.0847
 31
0.0
  0
LINE
  8
0
 62
     1
 10
197.751
 20
62.0847
 30
0.0
 11
197.618
 21
61.5763
 31
0.0
  0
LINE
  8
0
 62
     1
 10
197.618
 20
61.5763
 30
0.0
 11
197.266
 21
61.0912
 31
0.0
  0
LINE
  8
0
 62
     1
 10
197.266
 20
61.0912
 30
0.0
 11
196.77
 21
60.802
 31
0.0
  0
LINE
  8
0
 62
     1
 10
196.77
 20
60.802
 30
0.0
 11
196.201
 21
60.7039
 31
0.0
  0
LINE
  8
0
 62
     1
 10
196.201
 20
60.7039
 30
0.0
 11
195.632
 21
60.802
 31
0.0
  0
LINE
  8
0
 62
     1
 10
195.632
 20
60.802
 30
0.0
 11
195.136
 21
61.0912
 31
0.0
  0
LINE
  8
0
 62
     1
 10
195.136
 20
61.0912
 30
0.0
 11
194.784
 21
61.5763
 31
0.0
  0
LINE
  8
0
 62
     1
 10
194.784
 20
61.5763
 30
0.0
 11
194.652
 21
62.0847
 31
0.0
  0
LINE
  8
0
 62
     1
 10
194.652
 20
62.0847
 30
0.0
 11
194.652
 21
62.2529
 31
0.0
  0
LINE
  8
0
 62
     1
 10
194.652
 20
150.967
 30
0.0
 11
194.652
 21
151.138
 31
0.0
  0
LINE
  8
0
 62
     1
 10
194.652
 20
151.138
 30
0.0
 11
194.784
 21
151.646
 31
0.0
  0
LINE
  8
0
 62
     1
 10
194.784
 20
151.646
 30
0.0
 11
195.136
 21
152.13
 31
0.0
  0
LINE
  8
0
 62
     1
 10
195.136
 20
152.13
 30
0.0
 11
195.632
 21
152.421
 31
0.0
  0
LINE
  8
0
 62
     1
 10
195.632
 20
152.421
 30
0.0
 11
196.201
 21
152.517
 31
0.0
  0
LINE
  8
0
 62
     1
 10
196.201
 20
152.517
 30
0.0
 11
196.77
 21
152.421
 31
0.0
  0
LINE
  8
0
 62
     1
 10
196.77
 20
152.421
 30
0.0
 11
197.266
 21
152.13
 31
0.0
  0
LINE
  8
0
 62
     1
 10
197.266
 20
152.13
 30
0.0
 11
197.618
 21
151.646
 31
0.0
  0
LINE
  8
0
 62
     1
 10
197.618
 20
151.646
 30
0.0
 11
197.751
 21
151.138
 31
0.0
  0
LINE
  8
0
 62
     1
 10
197.751
 20
151.138
 30
0.0
 11
197.751
 21
150.967
 31
0.0
  0
LINE
  8
0
 62
     1
 10
197.751
 20
150.967
 30
0.0
 11
197.751
 21
150.797
 31
0.0
  0
LINE
  8
0
 62
     1
 10
197.751
 20
150.797
 30
0.0
 11
197.618
 21
150.289
 31
0.0
  0
LINE
  8
0
 62
     1
 10
197.618
 20
150.289
 30
0.0
 11
197.266
 21
149.805
 31
0.0
  0
LINE
  8
0
 62
     1
 10
197.266
 20
149.805
 30
0.0
 11
196.77
 21
149.514
 31
0.0
  0
LINE
  8
0
 62
     1
 10
196.77
 20
149.514
 30
0.0
 11
196.201
 21
149.417
 31
0.0
  0
LINE
  8
0
 62
     1
 10
196.201
 20
149.417
 30
0.0
 11
195.632
 21
149.514
 31
0.0
  0
LINE
  8
0
 62
     1
 10
195.632
 20
149.514
 30
0.0
 11
195.136
 21
149.805
 31
0.0
  0
LINE
  8
0
 62
     1
 10
195.136
 20
149.805
 30
0.0
 11
194.784
 21
150.289
 31
0.0
  0
LINE
  8
0
 62
     1
 10
194.784
 20
150.289
 30
0.0
 11
194.652
 21
150.797
 31
0.0
  0
LINE
  8
0
 62
     1
 10
194.652
 20
150.797
 30
0.0
 11
194.652
 21
150.967
 31
0.0
  0
ENDSEC
  0
EOF
