  0
SECTION
  2
HEADER
  9
$ACADVER
  1
AC1009
  9
$EXTMIN
 10
0.0
 20
0.0
 30
0.0
  9
$EXTMAX
 10
1000.0
 20
1000.0
 30
0.0
  9
$FILLMODE
 70
 0
  9
$SPLFRAME
 70
 1
  0
ENDSEC
  0
SECTION
  2
TABLES
  0
TABLE
  2
LAYER
 70
1
  0
LAYER
  2
0
 70
     0
 62
     7
  6
CONTINUOUS
  0
ENDTAB
  0
ENDSEC
  0
SECTION
  2
ENTITIES
  0
LINE
  8
0
 62
     1
 10
3.54983
 20
154.467
 30
0.0
 11
3.20807
 21
154.467
 31
0.0
  0
LINE
  8
0
 62
     1
 10
3.20807
 20
154.467
 30
0.0
 11
2.18695
 21
154.193
 31
0.0
  0
LINE
  8
0
 62
     1
 10
2.18695
 20
154.193
 30
0.0
 11
1.07349
 21
153.443
 31
0.0
  0
LINE
  8
0
 62
     1
 10
1.07349
 20
153.443
 30
0.0
 11
0.323839
 21
152.33
 31
0.0
  0
LINE
  8
0
 62
     1
 10
0.323839
 20
152.33
 30
0.0
 11
0.0496094
 21
151.309
 31
0.0
  0
LINE
  8
0
 62
     1
 10
0.0496094
 20
151.309
 30
0.0
 11
0.0496094
 21
150.967
 31
0.0
  0
LINE
  8
0
 62
     1
 10
0.0496094
 20
150.967
 30
0.0
 11
0.0496094
 21
43.4813
 31
0.0
  0
LINE
  8
0
 62
     1
 10
0.0496094
 20
43.4813
 30
0.0
 11
0.0496094
 21
43.1408
 31
0.0
  0
LINE
  8
0
 62
     1
 10
0.0496094
 20
43.1408
 30
0.0
 11
0.323839
 21
42.1199
 31
0.0
  0
LINE
  8
0
 62
     1
 10
0.323839
 20
42.1199
 30
0.0
 11
1.07349
 21
41.0076
 31
0.0
  0
LINE
  8
0
 62
     1
 10
1.07349
 20
41.0076
 30
0.0
 11
2.18695
 21
40.2579
 31
0.0
  0
LINE
  8
0
 62
     1
 10
2.18695
 20
40.2579
 30
0.0
 11
3.20807
 21
39.9824
 31
0.0
  0
LINE
  8
0
 62
     1
 10
3.20807
 20
39.9824
 30
0.0
 11
3.54983
 21
39.9824
 31
0.0
  0
LINE
  8
0
 62
     1
 10
3.54983
 20
39.9824
 30
0.0
 11
82.0843
 21
39.9824
 31
0.0
  0
LINE
  8
0
 62
     1
 10
82.0843
 20
39.9824
 30
0.0
 11
82.4537
 21
39.9824
 31
0.0
  0
LINE
  8
0
 62
     1
 10
82.4537
 20
39.9824
 30
0.0
 11
83.4485
 21
39.7083
 31
0.0
  0
LINE
  8
0
 62
     1
 10
83.4485
 20
39.7083
 30
0.0
 11
83.5642
 21
39.6543
 31
0.0
  0
LINE
  8
0
 62
     1
 10
83.5642
 20
39.6543
 30
0.0
 11
167.428
 21
0.547081
 31
0.0
  0
LINE
  8
0
 62
     1
 10
167.428
 20
0.547081
 30
0.0
 11
167.735
 21
0.403765
 31
0.0
  0
LINE
  8
0
 62
     1
 10
167.735
 20
0.403765
 30
0.0
 11
168.778
 21
0.220486
 31
0.0
  0
LINE
  8
0
 62
     1
 10
168.778
 20
0.220486
 30
0.0
 11
170.104
 21
0.431327
 31
0.0
  0
LINE
  8
0
 62
     1
 10
170.104
 20
0.431327
 30
0.0
 11
171.253
 21
1.12172
 31
0.0
  0
LINE
  8
0
 62
     1
 10
171.253
 20
1.12172
 30
0.0
 11
171.934
 21
1.93201
 31
0.0
  0
LINE
  8
0
 62
     1
 10
171.934
 20
1.93201
 30
0.0
 11
172.078
 21
2.24069
 31
0.0
  0
LINE
  8
0
 62
     1
 10
172.078
 20
2.24069
 30
0.0
 11
199.373
 21
60.7741
 31
0.0
  0
LINE
  8
0
 62
     1
 10
199.373
 20
60.7741
 30
0.0
 11
199.427
 21
60.8902
 31
0.0
  0
LINE
  8
0
 62
     1
 10
199.427
 20
60.8902
 30
0.0
 11
199.701
 21
61.9125
 31
0.0
  0
LINE
  8
0
 62
     1
 10
199.701
 20
61.9125
 30
0.0
 11
199.701
 21
62.2529
 31
0.0
  0
LINE
  8
0
 62
     1
 10
199.701
 20
62.2529
 30
0.0
 11
199.701
 21
150.967
 31
0.0
  0
LINE
  8
0
 62
     1
 10
199.701
 20
150.967
 30
0.0
 11
199.701
 21
151.309
 31
0.0
  0
LINE
  8
0
 62
     1
 10
199.701
 20
151.309
 30
0.0
 11
199.426
 21
152.33
 31
0.0
  0
LINE
  8
0
 62
     1
 10
199.426
 20
152.33
 30
0.0
 11
198.676
 21
153.443
 31
0.0
  0
LINE
  8
0
 62
     1
 10
198.676
 20
153.443
 30
0.0
 11
197.564
 21
154.193
 31
0.0
  0
LINE
  8
0
 62
     1
 10
197.564
 20
154.193
 30
0.0
 11
196.543
 21
154.467
 31
0.0
  0
LINE
  8
0
 62
     1
 10
196.543
 20
154.467
 30
0.0
 11
196.202
 21
154.467
 31
0.0
  0
LINE
  8
0
 62
     1
 10
196.202
 20
154.467
 30
0.0
 11
3.54983
 21
154.467
 31
0.0
  0
LINE
  8
0
 62
     1
 10
149.618
 20
144.267
 30
0.0
 11
149.749
 21
144.267
 31
0.0
  0
LINE
  8
0
 62
     1
 10
149.749
 20
144.267
 30
0.0
 11
150.142
 21
144.05
 31
0.0
  0
LINE
  8
0
 62
     1
 10
150.142
 20
144.05
 30
0.0
 11
150.361
 21
143.656
 31
0.0
  0
LINE
  8
0
 62
     1
 10
150.361
 20
143.656
 30
0.0
 11
150.361
 21
143.524
 31
0.0
  0
LINE
  8
0
 62
     1
 10
150.361
 20
143.524
 30
0.0
 11
150.361
 21
68.374
 31
0.0
  0
LINE
  8
0
 62
     1
 10
150.361
 20
68.374
 30
0.0
 11
150.361
 21
68.2431
 31
0.0
  0
LINE
  8
0
 62
     1
 10
150.361
 20
68.2431
 30
0.0
 11
150.142
 21
67.849
 31
0.0
  0
LINE
  8
0
 62
     1
 10
150.142
 20
67.849
 30
0.0
 11
149.749
 21
67.6314
 31
0.0
  0
LINE
  8
0
 62
     1
 10
149.749
 20
67.6314
 30
0.0
 11
149.618
 21
67.6314
 31
0.0
  0
LINE
  8
0
 62
     1
 10
149.618
 20
67.6314
 30
0.0
 11
134.659
 21
67.6314
 31
0.0
  0
LINE
  8
0
 62
     1
 10
134.659
 20
67.6314
 30
0.0
 11
134.536
 21
67.6314
 31
0.0
  0
LINE
  8
0
 62
     1
 10
134.536
 20
67.6314
 30
0.0
 11
134.173
 21
67.4578
 31
0.0
  0
LINE
  8
0
 62
     1
 10
134.173
 20
67.4578
 30
0.0
 11
133.933
 21
67.05
 31
0.0
  0
LINE
  8
0
 62
     1
 10
133.933
 20
67.05
 30
0.0
 11
133.978
 21
66.5797
 31
0.0
  0
LINE
  8
0
 62
     1
 10
133.978
 20
66.5797
 30
0.0
 11
134.235
 21
66.2686
 31
0.0
  0
LINE
  8
0
 62
     1
 10
134.235
 20
66.2686
 30
0.0
 11
134.345
 21
66.216
 31
0.0
  0
LINE
  8
0
 62
     1
 10
134.345
 20
66.216
 30
0.0
 11
147.902
 21
59.895
 31
0.0
  0
LINE
  8
0
 62
     1
 10
147.902
 20
59.895
 30
0.0
 11
147.995
 21
59.8523
 31
0.0
  0
LINE
  8
0
 62
     1
 10
147.995
 20
59.8523
 30
0.0
 11
148.47
 21
59.8703
 31
0.0
  0
LINE
  8
0
 62
     1
 10
148.47
 20
59.8703
 30
0.0
 11
148.845
 21
60.161
 31
0.0
  0
LINE
  8
0
 62
     1
 10
148.845
 20
60.161
 30
0.0
 11
148.889
 21
60.2534
 31
0.0
  0
LINE
  8
0
 62
     1
 10
148.889
 20
60.2534
 30
0.0
 11
156.312
 21
76.1725
 31
0.0
  0
LINE
  8
0
 62
     1
 10
156.312
 20
76.1725
 30
0.0
 11
156.355
 21
76.2663
 31
0.0
  0
LINE
  8
0
 62
     1
 10
156.355
 20
76.2663
 30
0.0
 11
156.731
 21
76.557
 31
0.0
  0
LINE
  8
0
 62
     1
 10
156.731
 20
76.557
 30
0.0
 11
157.205
 21
76.5761
 31
0.0
  0
LINE
  8
0
 62
     1
 10
157.205
 20
76.5761
 30
0.0
 11
157.299
 21
76.532
 31
0.0
  0
LINE
  8
0
 62
     1
 10
157.299
 20
76.532
 30
0.0
 11
190.877
 21
60.875
 31
0.0
  0
LINE
  8
0
 62
     1
 10
190.877
 20
60.875
 30
0.0
 11
190.97
 21
60.8323
 31
0.0
  0
LINE
  8
0
 62
     1
 10
190.97
 20
60.8323
 30
0.0
 11
191.261
 21
60.4559
 31
0.0
  0
LINE
  8
0
 62
     1
 10
191.261
 20
60.4559
 30
0.0
 11
191.28
 21
59.9817
 31
0.0
  0
LINE
  8
0
 62
     1
 10
191.28
 20
59.9817
 30
0.0
 11
191.237
 21
59.8883
 31
0.0
  0
LINE
  8
0
 62
     1
 10
191.237
 20
59.8883
 30
0.0
 11
167.528
 21
9.04406
 31
0.0
  0
LINE
  8
0
 62
     1
 10
167.528
 20
9.04406
 30
0.0
 11
167.484
 21
8.95174
 31
0.0
  0
LINE
  8
0
 62
     1
 10
167.484
 20
8.95174
 30
0.0
 11
167.108
 21
8.6596
 31
0.0
  0
LINE
  8
0
 62
     1
 10
167.108
 20
8.6596
 30
0.0
 11
166.634
 21
8.64168
 31
0.0
  0
LINE
  8
0
 62
     1
 10
166.634
 20
8.64168
 30
0.0
 11
166.541
 21
8.6844
 31
0.0
  0
LINE
  8
0
 62
     1
 10
166.541
 20
8.6844
 30
0.0
 11
115.697
 21
32.3935
 31
0.0
  0
LINE
  8
0
 62
     1
 10
115.697
 20
32.3935
 30
0.0
 11
115.604
 21
32.4376
 31
0.0
  0
LINE
  8
0
 62
     1
 10
115.604
 20
32.4376
 30
0.0
 11
115.313
 21
32.8125
 31
0.0
  0
LINE
  8
0
 62
     1
 10
115.313
 20
32.8125
 30
0.0
 11
115.293
 21
33.2879
 31
0.0
  0
LINE
  8
0
 62
     1
 10
115.293
 20
33.2879
 30
0.0
 11
115.338
 21
33.3802
 31
0.0
  0
LINE
  8
0
 62
     1
 10
115.338
 20
33.3802
 30
0.0
 11
130.817
 21
66.5759
 31
0.0
  0
LINE
  8
0
 62
     1
 10
130.817
 20
66.5759
 30
0.0
 11
130.856
 21
66.6598
 31
0.0
  0
LINE
  8
0
 62
     1
 10
130.856
 20
66.6598
 30
0.0
 11
130.885
 21
66.9491
 31
0.0
  0
LINE
  8
0
 62
     1
 10
130.885
 20
66.9491
 30
0.0
 11
130.77
 21
67.2881
 31
0.0
  0
LINE
  8
0
 62
     1
 10
130.77
 20
67.2881
 30
0.0
 11
130.51
 21
67.5361
 31
0.0
  0
LINE
  8
0
 62
     1
 10
130.51
 20
67.5361
 30
0.0
 11
130.236
 21
67.6314
 31
0.0
  0
LINE
  8
0
 62
     1
 10
130.236
 20
67.6314
 30
0.0
 11
130.145
 21
67.6314
 31
0.0
  0
LINE
  8
0
 62
     1
 10
130.145
 20
67.6314
 30
0.0
 11
113.002
 21
67.6314
 31
0.0
  0
LINE
  8
0
 62
     1
 10
113.002
 20
67.6314
 30
0.0
 11
112.869
 21
67.6314
 31
0.0
  0
LINE
  8
0
 62
     1
 10
112.869
 20
67.6314
 30
0.0
 11
112.477
 21
67.4151
 31
0.0
  0
LINE
  8
0
 62
     1
 10
112.477
 20
67.4151
 30
0.0
 11
112.261
 21
67.0207
 31
0.0
  0
LINE
  8
0
 62
     1
 10
112.261
 20
67.0207
 30
0.0
 11
112.261
 21
66.8884
 31
0.0
  0
LINE
  8
0
 62
     1
 10
112.261
 20
66.8884
 30
0.0
 11
112.261
 21
50.9242
 31
0.0
  0
LINE
  8
0
 62
     1
 10
112.261
 20
50.9242
 30
0.0
 11
112.261
 21
50.7929
 31
0.0
  0
LINE
  8
0
 62
     1
 10
112.261
 20
50.7929
 30
0.0
 11
112.042
 21
50.4003
 31
0.0
  0
LINE
  8
0
 62
     1
 10
112.042
 20
50.4003
 30
0.0
 11
111.649
 21
50.1812
 31
0.0
  0
LINE
  8
0
 62
     1
 10
111.649
 20
50.1812
 30
0.0
 11
111.518
 21
50.1812
 31
0.0
  0
LINE
  8
0
 62
     1
 10
111.518
 20
50.1812
 30
0.0
 11
93.5179
 21
50.1812
 31
0.0
  0
LINE
  8
0
 62
     1
 10
93.5179
 20
50.1812
 30
0.0
 11
93.3856
 21
50.1812
 31
0.0
  0
LINE
  8
0
 62
     1
 10
93.3856
 20
50.1812
 30
0.0
 11
92.9915
 21
50.4003
 31
0.0
  0
LINE
  8
0
 62
     1
 10
92.9915
 20
50.4003
 30
0.0
 11
92.7749
 21
50.7929
 31
0.0
  0
LINE
  8
0
 62
     1
 10
92.7749
 20
50.7929
 30
0.0
 11
92.7749
 21
50.9242
 31
0.0
  0
LINE
  8
0
 62
     1
 10
92.7749
 20
50.9242
 30
0.0
 11
92.7749
 21
51.0399
 31
0.0
  0
LINE
  8
0
 62
     1
 10
92.7749
 20
51.0399
 30
0.0
 11
92.7749
 21
51.1722
 31
0.0
  0
LINE
  8
0
 62
     1
 10
92.7749
 20
51.1722
 30
0.0
 11
92.5572
 21
51.5648
 31
0.0
  0
LINE
  8
0
 62
     1
 10
92.5572
 20
51.5648
 30
0.0
 11
92.1632
 21
51.7811
 31
0.0
  0
LINE
  8
0
 62
     1
 10
92.1632
 20
51.7811
 30
0.0
 11
92.0323
 21
51.7811
 31
0.0
  0
LINE
  8
0
 62
     1
 10
92.0323
 20
51.7811
 30
0.0
 11
74.9018
 21
51.7811
 31
0.0
  0
LINE
  8
0
 62
     1
 10
74.9018
 20
51.7811
 30
0.0
 11
74.7695
 21
51.7811
 31
0.0
  0
LINE
  8
0
 62
     1
 10
74.7695
 20
51.7811
 30
0.0
 11
74.3768
 21
51.5648
 31
0.0
  0
LINE
  8
0
 62
     1
 10
74.3768
 20
51.5648
 30
0.0
 11
74.1606
 21
51.1722
 31
0.0
  0
LINE
  8
0
 62
     1
 10
74.1606
 20
51.1722
 30
0.0
 11
74.1606
 21
51.0399
 31
0.0
  0
LINE
  8
0
 62
     1
 10
74.1606
 20
51.0399
 30
0.0
 11
74.1606
 21
50.9242
 31
0.0
  0
LINE
  8
0
 62
     1
 10
74.1606
 20
50.9242
 30
0.0
 11
74.1606
 21
50.7929
 31
0.0
  0
LINE
  8
0
 62
     1
 10
74.1606
 20
50.7929
 30
0.0
 11
73.9415
 21
50.4003
 31
0.0
  0
LINE
  8
0
 62
     1
 10
73.9415
 20
50.4003
 30
0.0
 11
73.5485
 21
50.1812
 31
0.0
  0
LINE
  8
0
 62
     1
 10
73.5485
 20
50.1812
 30
0.0
 11
73.4176
 21
50.1812
 31
0.0
  0
LINE
  8
0
 62
     1
 10
73.4176
 20
50.1812
 30
0.0
 11
55.8518
 21
50.1812
 31
0.0
  0
LINE
  8
0
 62
     1
 10
55.8518
 20
50.1812
 30
0.0
 11
55.7195
 21
50.1812
 31
0.0
  0
LINE
  8
0
 62
     1
 10
55.7195
 20
50.1812
 30
0.0
 11
55.3268
 21
49.965
 31
0.0
  0
LINE
  8
0
 62
     1
 10
55.3268
 20
49.965
 30
0.0
 11
55.1106
 21
49.5723
 31
0.0
  0
LINE
  8
0
 62
     1
 10
55.1106
 20
49.5723
 30
0.0
 11
55.1106
 21
49.44
 31
0.0
  0
LINE
  8
0
 62
     1
 10
55.1106
 20
49.44
 30
0.0
 11
55.1106
 21
47.7241
 31
0.0
  0
LINE
  8
0
 62
     1
 10
55.1106
 20
47.7241
 30
0.0
 11
55.1106
 21
47.5933
 31
0.0
  0
LINE
  8
0
 62
     1
 10
55.1106
 20
47.5933
 30
0.0
 11
54.8915
 21
47.1992
 31
0.0
  0
LINE
  8
0
 62
     1
 10
54.8915
 20
47.1992
 30
0.0
 11
54.4985
 21
46.9815
 31
0.0
  0
LINE
  8
0
 62
     1
 10
54.4985
 20
46.9815
 30
0.0
 11
54.3676
 21
46.9815
 31
0.0
  0
LINE
  8
0
 62
     1
 10
54.3676
 20
46.9815
 30
0.0
 11
17.3178
 21
46.9815
 31
0.0
  0
LINE
  8
0
 62
     1
 10
17.3178
 20
46.9815
 30
0.0
 11
17.1855
 21
46.9815
 31
0.0
  0
LINE
  8
0
 62
     1
 10
17.1855
 20
46.9815
 30
0.0
 11
16.7914
 21
47.1992
 31
0.0
  0
LINE
  8
0
 62
     1
 10
16.7914
 20
47.1992
 30
0.0
 11
16.5751
 21
47.5933
 31
0.0
  0
LINE
  8
0
 62
     1
 10
16.5751
 20
47.5933
 30
0.0
 11
16.5751
 21
47.7241
 31
0.0
  0
LINE
  8
0
 62
     1
 10
16.5751
 20
47.7241
 30
0.0
 11
16.5751
 21
65.2886
 31
0.0
  0
LINE
  8
0
 62
     1
 10
16.5751
 20
65.2886
 30
0.0
 11
16.5751
 21
65.4209
 31
0.0
  0
LINE
  8
0
 62
     1
 10
16.5751
 20
65.4209
 30
0.0
 11
16.3573
 21
65.8153
 31
0.0
  0
LINE
  8
0
 62
     1
 10
16.3573
 20
65.8153
 30
0.0
 11
15.9632
 21
66.0315
 31
0.0
  0
LINE
  8
0
 62
     1
 10
15.9632
 20
66.0315
 30
0.0
 11
15.8323
 21
66.0315
 31
0.0
  0
LINE
  8
0
 62
     1
 10
15.8323
 20
66.0315
 30
0.0
 11
7.79279
 21
66.0315
 31
0.0
  0
LINE
  8
0
 62
     1
 10
7.79279
 20
66.0315
 30
0.0
 11
7.6605
 21
66.0315
 31
0.0
  0
LINE
  8
0
 62
     1
 10
7.6605
 20
66.0315
 30
0.0
 11
7.26641
 21
66.2492
 31
0.0
  0
LINE
  8
0
 62
     1
 10
7.26641
 20
66.2492
 30
0.0
 11
7.05005
 21
66.6433
 31
0.0
  0
LINE
  8
0
 62
     1
 10
7.05005
 20
66.6433
 30
0.0
 11
7.05005
 21
66.7741
 31
0.0
  0
LINE
  8
0
 62
     1
 10
7.05005
 20
66.7741
 30
0.0
 11
7.05005
 21
141.924
 31
0.0
  0
LINE
  8
0
 62
     1
 10
7.05005
 20
141.924
 30
0.0
 11
7.05005
 21
142.057
 31
0.0
  0
LINE
  8
0
 62
     1
 10
7.05005
 20
142.057
 30
0.0
 11
7.26641
 21
142.451
 31
0.0
  0
LINE
  8
0
 62
     1
 10
7.26641
 20
142.451
 30
0.0
 11
7.6605
 21
142.667
 31
0.0
  0
LINE
  8
0
 62
     1
 10
7.6605
 20
142.667
 30
0.0
 11
7.79279
 21
142.667
 31
0.0
  0
LINE
  8
0
 62
     1
 10
7.79279
 20
142.667
 30
0.0
 11
53.9323
 21
142.667
 31
0.0
  0
LINE
  8
0
 62
     1
 10
53.9323
 20
142.667
 30
0.0
 11
54.0632
 21
142.667
 31
0.0
  0
LINE
  8
0
 62
     1
 10
54.0632
 20
142.667
 30
0.0
 11
54.4572
 21
142.885
 31
0.0
  0
LINE
  8
0
 62
     1
 10
54.4572
 20
142.885
 30
0.0
 11
54.6749
 21
143.279
 31
0.0
  0
LINE
  8
0
 62
     1
 10
54.6749
 20
143.279
 30
0.0
 11
54.6749
 21
143.41
 31
0.0
  0
LINE
  8
0
 62
     1
 10
54.6749
 20
143.41
 30
0.0
 11
54.6749
 21
145.124
 31
0.0
  0
LINE
  8
0
 62
     1
 10
54.6749
 20
145.124
 30
0.0
 11
54.6749
 21
145.256
 31
0.0
  0
LINE
  8
0
 62
     1
 10
54.6749
 20
145.256
 30
0.0
 11
54.8915
 21
145.65
 31
0.0
  0
LINE
  8
0
 62
     1
 10
54.8915
 20
145.65
 30
0.0
 11
55.2856
 21
145.867
 31
0.0
  0
LINE
  8
0
 62
     1
 10
55.2856
 20
145.867
 30
0.0
 11
55.4179
 21
145.867
 31
0.0
  0
LINE
  8
0
 62
     1
 10
55.4179
 20
145.867
 30
0.0
 11
72.9823
 21
145.867
 31
0.0
  0
LINE
  8
0
 62
     1
 10
72.9823
 20
145.867
 30
0.0
 11
73.1132
 21
145.867
 31
0.0
  0
LINE
  8
0
 62
     1
 10
73.1132
 20
145.867
 30
0.0
 11
73.5072
 21
146.085
 31
0.0
  0
LINE
  8
0
 62
     1
 10
73.5072
 20
146.085
 30
0.0
 11
73.7249
 21
146.479
 31
0.0
  0
LINE
  8
0
 62
     1
 10
73.7249
 20
146.479
 30
0.0
 11
73.7249
 21
146.61
 31
0.0
  0
LINE
  8
0
 62
     1
 10
73.7249
 20
146.61
 30
0.0
 11
73.7249
 21
146.724
 31
0.0
  0
LINE
  8
0
 62
     1
 10
73.7249
 20
146.724
 30
0.0
 11
73.7249
 21
146.856
 31
0.0
  0
LINE
  8
0
 62
     1
 10
73.7249
 20
146.856
 30
0.0
 11
73.9415
 21
147.25
 31
0.0
  0
LINE
  8
0
 62
     1
 10
73.9415
 20
147.25
 30
0.0
 11
74.3356
 21
147.467
 31
0.0
  0
LINE
  8
0
 62
     1
 10
74.3356
 20
147.467
 30
0.0
 11
74.4679
 21
147.467
 31
0.0
  0
LINE
  8
0
 62
     1
 10
74.4679
 20
147.467
 30
0.0
 11
92.4676
 21
147.467
 31
0.0
  0
LINE
  8
0
 62
     1
 10
92.4676
 20
147.467
 30
0.0
 11
92.5985
 21
147.467
 31
0.0
  0
LINE
  8
0
 62
     1
 10
92.5985
 20
147.467
 30
0.0
 11
92.9915
 21
147.25
 31
0.0
  0
LINE
  8
0
 62
     1
 10
92.9915
 20
147.25
 30
0.0
 11
93.2106
 21
146.856
 31
0.0
  0
LINE
  8
0
 62
     1
 10
93.2106
 20
146.856
 30
0.0
 11
93.2106
 21
146.724
 31
0.0
  0
LINE
  8
0
 62
     1
 10
93.2106
 20
146.724
 30
0.0
 11
93.2106
 21
146.61
 31
0.0
  0
LINE
  8
0
 62
     1
 10
93.2106
 20
146.61
 30
0.0
 11
93.2106
 21
146.479
 31
0.0
  0
LINE
  8
0
 62
     1
 10
93.2106
 20
146.479
 30
0.0
 11
93.4268
 21
146.085
 31
0.0
  0
LINE
  8
0
 62
     1
 10
93.4268
 20
146.085
 30
0.0
 11
93.8195
 21
145.867
 31
0.0
  0
LINE
  8
0
 62
     1
 10
93.8195
 20
145.867
 30
0.0
 11
93.9518
 21
145.867
 31
0.0
  0
LINE
  8
0
 62
     1
 10
93.9518
 20
145.867
 30
0.0
 11
111.518
 21
145.867
 31
0.0
  0
LINE
  8
0
 62
     1
 10
111.518
 20
145.867
 30
0.0
 11
111.649
 21
145.867
 31
0.0
  0
LINE
  8
0
 62
     1
 10
111.649
 20
145.867
 30
0.0
 11
112.042
 21
145.65
 31
0.0
  0
LINE
  8
0
 62
     1
 10
112.042
 20
145.65
 30
0.0
 11
112.261
 21
145.256
 31
0.0
  0
LINE
  8
0
 62
     1
 10
112.261
 20
145.256
 30
0.0
 11
112.261
 21
145.124
 31
0.0
  0
LINE
  8
0
 62
     1
 10
112.261
 20
145.124
 30
0.0
 11
112.261
 21
145.01
 31
0.0
  0
LINE
  8
0
 62
     1
 10
112.261
 20
145.01
 30
0.0
 11
112.261
 21
144.879
 31
0.0
  0
LINE
  8
0
 62
     1
 10
112.261
 20
144.879
 30
0.0
 11
112.477
 21
144.485
 31
0.0
  0
LINE
  8
0
 62
     1
 10
112.477
 20
144.485
 30
0.0
 11
112.869
 21
144.267
 31
0.0
  0
LINE
  8
0
 62
     1
 10
112.869
 20
144.267
 30
0.0
 11
113.002
 21
144.267
 31
0.0
  0
LINE
  8
0
 62
     1
 10
113.002
 20
144.267
 30
0.0
 11
149.618
 21
144.267
 31
0.0
  0
LINE
  8
0
 62
     1
 10
153.859
 20
81.9976
 30
0.0
 11
193.03
 21
63.7328
 31
0.0
  0
LINE
  8
0
 62
     1
 10
193.03
 20
63.7328
 30
0.0
 11
193.133
 21
63.9576
 31
0.0
  0
LINE
  8
0
 62
     1
 10
193.133
 20
63.9576
 30
0.0
 11
193.576
 21
64.5693
 31
0.0
  0
LINE
  8
0
 62
     1
 10
193.576
 20
64.5693
 30
0.0
 11
194.32
 21
65.206
 31
0.0
  0
LINE
  8
0
 62
     1
 10
194.32
 20
65.206
 30
0.0
 11
195.213
 21
65.611
 31
0.0
  0
LINE
  8
0
 62
     1
 10
195.213
 20
65.611
 30
0.0
 11
195.954
 21
65.7532
 31
0.0
  0
LINE
  8
0
 62
     1
 10
195.954
 20
65.7532
 30
0.0
 11
196.202
 21
65.7532
 31
0.0
  0
LINE
  8
0
 62
     1
 10
196.202
 20
65.7532
 30
0.0
 11
196.202
 21
147.467
 31
0.0
  0
LINE
  8
0
 62
     1
 10
196.202
 20
147.467
 30
0.0
 11
195.86
 21
147.467
 31
0.0
  0
LINE
  8
0
 62
     1
 10
195.86
 20
147.467
 30
0.0
 11
194.84
 21
147.742
 31
0.0
  0
LINE
  8
0
 62
     1
 10
194.84
 20
147.742
 30
0.0
 11
193.726
 21
148.492
 31
0.0
  0
LINE
  8
0
 62
     1
 10
193.726
 20
148.492
 30
0.0
 11
192.977
 21
149.605
 31
0.0
  0
LINE
  8
0
 62
     1
 10
192.977
 20
149.605
 30
0.0
 11
192.702
 21
150.627
 31
0.0
  0
LINE
  8
0
 62
     1
 10
192.702
 20
150.627
 30
0.0
 11
192.702
 21
150.967
 31
0.0
  0
LINE
  8
0
 62
     1
 10
192.702
 20
150.967
 30
0.0
 11
153.859
 21
150.967
 31
0.0
  0
LINE
  8
0
 62
     1
 10
153.859
 20
150.967
 30
0.0
 11
153.859
 21
81.9976
 31
0.0
  0
LINE
  8
0
 62
     1
 10
1.99953
 20
150.967
 30
0.0
 11
1.99953
 21
151.138
 31
0.0
  0
LINE
  8
0
 62
     1
 10
1.99953
 20
151.138
 30
0.0
 11
2.13183
 21
151.646
 31
0.0
  0
LINE
  8
0
 62
     1
 10
2.13183
 20
151.646
 30
0.0
 11
2.48322
 21
152.13
 31
0.0
  0
LINE
  8
0
 62
     1
 10
2.48322
 20
152.13
 30
0.0
 11
2.97932
 21
152.421
 31
0.0
  0
LINE
  8
0
 62
     1
 10
2.97932
 20
152.421
 30
0.0
 11
3.54983
 21
152.517
 31
0.0
  0
LINE
  8
0
 62
     1
 10
3.54983
 20
152.517
 30
0.0
 11
4.11896
 21
152.421
 31
0.0
  0
LINE
  8
0
 62
     1
 10
4.11896
 20
152.421
 30
0.0
 11
4.61504
 21
152.13
 31
0.0
  0
LINE
  8
0
 62
     1
 10
4.61504
 20
152.13
 30
0.0
 11
4.96644
 21
151.646
 31
0.0
  0
LINE
  8
0
 62
     1
 10
4.96644
 20
151.646
 30
0.0
 11
5.10011
 21
151.138
 31
0.0
  0
LINE
  8
0
 62
     1
 10
5.10011
 20
151.138
 30
0.0
 11
5.10011
 21
150.967
 31
0.0
  0
LINE
  8
0
 62
     1
 10
5.10011
 20
150.967
 30
0.0
 11
5.10011
 21
150.797
 31
0.0
  0
LINE
  8
0
 62
     1
 10
5.10011
 20
150.797
 30
0.0
 11
4.96644
 21
150.289
 31
0.0
  0
LINE
  8
0
 62
     1
 10
4.96644
 20
150.289
 30
0.0
 11
4.61504
 21
149.805
 31
0.0
  0
LINE
  8
0
 62
     1
 10
4.61504
 20
149.805
 30
0.0
 11
4.11896
 21
149.514
 31
0.0
  0
LINE
  8
0
 62
     1
 10
4.11896
 20
149.514
 30
0.0
 11
3.54983
 21
149.417
 31
0.0
  0
LINE
  8
0
 62
     1
 10
3.54983
 20
149.417
 30
0.0
 11
2.97932
 21
149.514
 31
0.0
  0
LINE
  8
0
 62
     1
 10
2.97932
 20
149.514
 30
0.0
 11
2.48322
 21
149.805
 31
0.0
  0
LINE
  8
0
 62
     1
 10
2.48322
 20
149.805
 30
0.0
 11
2.13183
 21
150.289
 31
0.0
  0
LINE
  8
0
 62
     1
 10
2.13183
 20
150.289
 30
0.0
 11
1.99953
 21
150.797
 31
0.0
  0
LINE
  8
0
 62
     1
 10
1.99953
 20
150.797
 30
0.0
 11
1.99953
 21
150.967
 31
0.0
  0
LINE
  8
0
 62
     1
 10
1.99953
 20
43.4813
 30
0.0
 11
1.99953
 21
43.652
 31
0.0
  0
LINE
  8
0
 62
     1
 10
1.99953
 20
43.652
 30
0.0
 11
2.13183
 21
44.1607
 31
0.0
  0
LINE
  8
0
 62
     1
 10
2.13183
 20
44.1607
 30
0.0
 11
2.48322
 21
44.6444
 31
0.0
  0
LINE
  8
0
 62
     1
 10
2.48322
 20
44.6444
 30
0.0
 11
2.97932
 21
44.9351
 31
0.0
  0
LINE
  8
0
 62
     1
 10
2.97932
 20
44.9351
 30
0.0
 11
3.54983
 21
45.0314
 31
0.0
  0
LINE
  8
0
 62
     1
 10
3.54983
 20
45.0314
 30
0.0
 11
4.11896
 21
44.9351
 31
0.0
  0
LINE
  8
0
 62
     1
 10
4.11896
 20
44.9351
 30
0.0
 11
4.61504
 21
44.6444
 31
0.0
  0
LINE
  8
0
 62
     1
 10
4.61504
 20
44.6444
 30
0.0
 11
4.96644
 21
44.1607
 31
0.0
  0
LINE
  8
0
 62
     1
 10
4.96644
 20
44.1607
 30
0.0
 11
5.10011
 21
43.652
 31
0.0
  0
LINE
  8
0
 62
     1
 10
5.10011
 20
43.652
 30
0.0
 11
5.10011
 21
43.4813
 31
0.0
  0
LINE
  8
0
 62
     1
 10
5.10011
 20
43.4813
 30
0.0
 11
5.10011
 21
43.313
 31
0.0
  0
LINE
  8
0
 62
     1
 10
5.10011
 20
43.313
 30
0.0
 11
4.96644
 21
42.8046
 31
0.0
  0
LINE
  8
0
 62
     1
 10
4.96644
 20
42.8046
 30
0.0
 11
4.61504
 21
42.3196
 31
0.0
  0
LINE
  8
0
 62
     1
 10
4.61504
 20
42.3196
 30
0.0
 11
4.11896
 21
42.0303
 31
0.0
  0
LINE
  8
0
 62
     1
 10
4.11896
 20
42.0303
 30
0.0
 11
3.54983
 21
41.9322
 31
0.0
  0
LINE
  8
0
 62
     1
 10
3.54983
 20
41.9322
 30
0.0
 11
2.97932
 21
42.0303
 31
0.0
  0
LINE
  8
0
 62
     1
 10
2.97932
 20
42.0303
 30
0.0
 11
2.48322
 21
42.3196
 31
0.0
  0
LINE
  8
0
 62
     1
 10
2.48322
 20
42.3196
 30
0.0
 11
2.13183
 21
42.8046
 31
0.0
  0
LINE
  8
0
 62
     1
 10
2.13183
 20
42.8046
 30
0.0
 11
1.99953
 21
43.313
 31
0.0
  0
LINE
  8
0
 62
     1
 10
1.99953
 20
43.313
 30
0.0
 11
1.99953
 21
43.4813
 31
0.0
  0
LINE
  8
0
 62
     1
 10
82.0872
 20
43.4813
 30
0.0
 11
82.0872
 21
43.652
 31
0.0
  0
LINE
  8
0
 62
     1
 10
82.0872
 20
43.652
 30
0.0
 11
82.2194
 21
44.1607
 31
0.0
  0
LINE
  8
0
 62
     1
 10
82.2194
 20
44.1607
 30
0.0
 11
82.5708
 21
44.6444
 31
0.0
  0
LINE
  8
0
 62
     1
 10
82.5708
 20
44.6444
 30
0.0
 11
83.0668
 21
44.9351
 31
0.0
  0
LINE
  8
0
 62
     1
 10
83.0668
 20
44.9351
 30
0.0
 11
83.6359
 21
45.0314
 31
0.0
  0
LINE
  8
0
 62
     1
 10
83.6359
 20
45.0314
 30
0.0
 11
84.2049
 21
44.9351
 31
0.0
  0
LINE
  8
0
 62
     1
 10
84.2049
 20
44.9351
 30
0.0
 11
84.7012
 21
44.6444
 31
0.0
  0
LINE
  8
0
 62
     1
 10
84.7012
 20
44.6444
 30
0.0
 11
85.0526
 21
44.1607
 31
0.0
  0
LINE
  8
0
 62
     1
 10
85.0526
 20
44.1607
 30
0.0
 11
85.1863
 21
43.652
 31
0.0
  0
LINE
  8
0
 62
     1
 10
85.1863
 20
43.652
 30
0.0
 11
85.1863
 21
43.4813
 31
0.0
  0
LINE
  8
0
 62
     1
 10
85.1863
 20
43.4813
 30
0.0
 11
85.1863
 21
43.313
 31
0.0
  0
LINE
  8
0
 62
     1
 10
85.1863
 20
43.313
 30
0.0
 11
85.0526
 21
42.8046
 31
0.0
  0
LINE
  8
0
 62
     1
 10
85.0526
 20
42.8046
 30
0.0
 11
84.7012
 21
42.3196
 31
0.0
  0
LINE
  8
0
 62
     1
 10
84.7012
 20
42.3196
 30
0.0
 11
84.2049
 21
42.0303
 31
0.0
  0
LINE
  8
0
 62
     1
 10
84.2049
 20
42.0303
 30
0.0
 11
83.6359
 21
41.9322
 31
0.0
  0
LINE
  8
0
 62
     1
 10
83.6359
 20
41.9322
 30
0.0
 11
83.0668
 21
42.0303
 31
0.0
  0
LINE
  8
0
 62
     1
 10
83.0668
 20
42.0303
 30
0.0
 11
82.5708
 21
42.3196
 31
0.0
  0
LINE
  8
0
 62
     1
 10
82.5708
 20
42.3196
 30
0.0
 11
82.2194
 21
42.8046
 31
0.0
  0
LINE
  8
0
 62
     1
 10
82.2194
 20
42.8046
 30
0.0
 11
82.0872
 21
43.313
 31
0.0
  0
LINE
  8
0
 62
     1
 10
82.0872
 20
43.313
 30
0.0
 11
82.0872
 21
43.4813
 31
0.0
  0
LINE
  8
0
 62
     1
 10
167.357
 20
3.71934
 30
0.0
 11
167.357
 21
3.89019
 31
0.0
  0
LINE
  8
0
 62
     1
 10
167.357
 20
3.89019
 30
0.0
 11
167.489
 21
4.39872
 31
0.0
  0
LINE
  8
0
 62
     1
 10
167.489
 20
4.39872
 30
0.0
 11
167.841
 21
4.88237
 31
0.0
  0
LINE
  8
0
 62
     1
 10
167.841
 20
4.88237
 30
0.0
 11
168.337
 21
5.17317
 31
0.0
  0
LINE
  8
0
 62
     1
 10
168.337
 20
5.17317
 30
0.0
 11
168.906
 21
5.26962
 31
0.0
  0
LINE
  8
0
 62
     1
 10
168.906
 20
5.26962
 30
0.0
 11
169.475
 21
5.17317
 31
0.0
  0
LINE
  8
0
 62
     1
 10
169.475
 20
5.17317
 30
0.0
 11
169.972
 21
4.88237
 31
0.0
  0
LINE
  8
0
 62
     1
 10
169.972
 20
4.88237
 30
0.0
 11
170.323
 21
4.39872
 31
0.0
  0
LINE
  8
0
 62
     1
 10
170.323
 20
4.39872
 30
0.0
 11
170.457
 21
3.89019
 31
0.0
  0
LINE
  8
0
 62
     1
 10
170.457
 20
3.89019
 30
0.0
 11
170.457
 21
3.71934
 31
0.0
  0
LINE
  8
0
 62
     1
 10
170.457
 20
3.71934
 30
0.0
 11
170.457
 21
3.54983
 31
0.0
  0
LINE
  8
0
 62
     1
 10
170.457
 20
3.54983
 30
0.0
 11
170.323
 21
3.04133
 31
0.0
  0
LINE
  8
0
 62
     1
 10
170.323
 20
3.04133
 30
0.0
 11
169.972
 21
2.55764
 31
0.0
  0
LINE
  8
0
 62
     1
 10
169.972
 20
2.55764
 30
0.0
 11
169.475
 21
2.26687
 31
0.0
  0
LINE
  8
0
 62
     1
 10
169.475
 20
2.26687
 30
0.0
 11
168.906
 21
2.16903
 31
0.0
  0
LINE
  8
0
 62
     1
 10
168.906
 20
2.16903
 30
0.0
 11
168.337
 21
2.26687
 31
0.0
  0
LINE
  8
0
 62
     1
 10
168.337
 20
2.26687
 30
0.0
 11
167.841
 21
2.55764
 31
0.0
  0
LINE
  8
0
 62
     1
 10
167.841
 20
2.55764
 30
0.0
 11
167.489
 21
3.04133
 31
0.0
  0
LINE
  8
0
 62
     1
 10
167.489
 20
3.04133
 30
0.0
 11
167.357
 21
3.54983
 31
0.0
  0
LINE
  8
0
 62
     1
 10
167.357
 20
3.54983
 30
0.0
 11
167.357
 21
3.71934
 31
0.0
  0
LINE
  8
0
 62
     1
 10
194.652
 20
62.2529
 30
0.0
 11
194.652
 21
62.4237
 31
0.0
  0
LINE
  8
0
 62
     1
 10
194.652
 20
62.4237
 30
0.0
 11
194.784
 21
62.9324
 31
0.0
  0
LINE
  8
0
 62
     1
 10
194.784
 20
62.9324
 30
0.0
 11
195.136
 21
63.416
 31
0.0
  0
LINE
  8
0
 62
     1
 10
195.136
 20
63.416
 30
0.0
 11
195.632
 21
63.7067
 31
0.0
  0
LINE
  8
0
 62
     1
 10
195.632
 20
63.7067
 30
0.0
 11
196.201
 21
63.803
 31
0.0
  0
LINE
  8
0
 62
     1
 10
196.201
 20
63.803
 30
0.0
 11
196.77
 21
63.7067
 31
0.0
  0
LINE
  8
0
 62
     1
 10
196.77
 20
63.7067
 30
0.0
 11
197.266
 21
63.416
 31
0.0
  0
LINE
  8
0
 62
     1
 10
197.266
 20
63.416
 30
0.0
 11
197.618
 21
62.9324
 31
0.0
  0
LINE
  8
0
 62
     1
 10
197.618
 20
62.9324
 30
0.0
 11
197.751
 21
62.4237
 31
0.0
  0
LINE
  8
0
 62
     1
 10
197.751
 20
62.4237
 30
0.0
 11
197.751
 21
62.2529
 31
0.0
  0
LINE
  8
0
 62
     1
 10
197.751
 20
62.2529
 30
0.0
 11
197.751
 21
62.0847
 31
0.0
  0
LINE
  8
0
 62
     1
 10
197.751
 20
62.0847
 30
0.0
 11
197.618
 21
61.5763
 31
0.0
  0
LINE
  8
0
 62
     1
 10
197.618
 20
61.5763
 30
0.0
 11
197.266
 21
61.0912
 31
0.0
  0
LINE
  8
0
 62
     1
 10
197.266
 20
61.0912
 30
0.0
 11
196.77
 21
60.802
 31
0.0
  0
LINE
  8
0
 62
     1
 10
196.77
 20
60.802
 30
0.0
 11
196.201
 21
60.7039
 31
0.0
  0
LINE
  8
0
 62
     1
 10
196.201
 20
60.7039
 30
0.0
 11
195.632
 21
60.802
 31
0.0
  0
LINE
  8
0
 62
     1
 10
195.632
 20
60.802
 30
0.0
 11
195.136
 21
61.0912
 31
0.0
  0
LINE
  8
0
 62
     1
 10
195.136
 20
61.0912
 30
0.0
 11
194.784
 21
61.5763
 31
0.0
  0
LINE
  8
0
 62
     1
 10
194.784
 20
61.5763
 30
0.0
 11
194.652
 21
62.0847
 31
0.0
  0
LINE
  8
0
 62
     1
 10
194.652
 20
62.0847
 30
0.0
 11
194.652
 21
62.2529
 31
0.0
  0
LINE
  8
0
 62
     1
 10
194.652
 20
150.967
 30
0.0
 11
194.652
 21
151.138
 31
0.0
  0
LINE
  8
0
 62
     1
 10
194.652
 20
151.138
 30
0.0
 11
194.784
 21
151.646
 31
0.0
  0
LINE
  8
0
 62
     1
 10
194.784
 20
151.646
 30
0.0
 11
195.136
 21
152.13
 31
0.0
  0
LINE
  8
0
 62
     1
 10
195.136
 20
152.13
 30
0.0
 11
195.632
 21
152.421
 31
0.0
  0
LINE
  8
0
 62
     1
 10
195.632
 20
152.421
 30
0.0
 11
196.201
 21
152.517
 31
0.0
  0
LINE
  8
0
 62
     1
 10
196.201
 20
152.517
 30
0.0
 11
196.77
 21
152.421
 31
0.0
  0
LINE
  8
0
 62
     1
 10
196.77
 20
152.421
 30
0.0
 11
197.266
 21
152.13
 31
0.0
  0
LINE
  8
0
 62
     1
 10
197.266
 20
152.13
 30
0.0
 11
197.618
 21
151.646
 31
0.0
  0
LINE
  8
0
 62
     1
 10
197.618
 20
151.646
 30
0.0
 11
197.751
 21
151.138
 31
0.0
  0
LINE
  8
0
 62
     1
 10
197.751
 20
151.138
 30
0.0
 11
197.751
 21
150.967
 31
0.0
  0
LINE
  8
0
 62
     1
 10
197.751
 20
150.967
 30
0.0
 11
197.751
 21
150.797
 31
0.0
  0
LINE
  8
0
 62
     1
 10
197.751
 20
150.797
 30
0.0
 11
197.618
 21
150.289
 31
0.0
  0
LINE
  8
0
 62
     1
 10
197.618
 20
150.289
 30
0.0
 11
197.266
 21
149.805
 31
0.0
  0
LINE
  8
0
 62
     1
 10
197.266
 20
149.805
 30
0.0
 11
196.77
 21
149.514
 31
0.0
  0
LINE
  8
0
 62
     1
 10
196.77
 20
149.514
 30
0.0
 11
196.201
 21
149.417
 31
0.0
  0
LINE
  8
0
 62
     1
 10
196.201
 20
149.417
 30
0.0
 11
195.632
 21
149.514
 31
0.0
  0
LINE
  8
0
 62
     1
 10
195.632
 20
149.514
 30
0.0
 11
195.136
 21
149.805
 31
0.0
  0
LINE
  8
0
 62
     1
 10
195.136
 20
149.805
 30
0.0
 11
194.784
 21
150.289
 31
0.0
  0
LINE
  8
0
 62
     1
 10
194.784
 20
150.289
 30
0.0
 11
194.652
 21
150.797
 31
0.0
  0
LINE
  8
0
 62
     1
 10
194.652
 20
150.797
 30
0.0
 11
194.652
 21
150.967
 31
0.0
  0
ENDSEC
  0
EOF
