  0
SECTION
  2
HEADER
  9
$ACADVER
  1
AC1009
  9
$EXTMIN
 10
0.0
 20
0.0
 30
0.0
  9
$EXTMAX
 10
1000.0
 20
1000.0
 30
0.0
  9
$FILLMODE
 70
 0
  9
$SPLFRAME
 70
 1
  0
ENDSEC
  0
SECTION
  2
TABLES
  0
TABLE
  2
LAYER
 70
1
  0
LAYER
  2
0
 70
     0
 62
     7
  6
CONTINUOUS
  0
ENDTAB
  0
ENDSEC
  0
SECTION
  2
ENTITIES
  0
LINE
  8
0
 62
     1
 10
0.0496094
 20
23.4363
 30
0.0
 11
0.0496094
 21
23.1896
 31
0.0
  0
LINE
  8
0
 62
     1
 10
0.0496094
 20
23.1896
 30
0.0
 11
0.191547
 21
22.4482
 31
0.0
  0
LINE
  8
0
 62
     1
 10
0.191547
 20
22.4482
 30
0.0
 11
0.596692
 21
21.5567
 31
0.0
  0
LINE
  8
0
 62
     1
 10
0.596692
 20
21.5567
 30
0.0
 11
1.23472
 21
20.8111
 31
0.0
  0
LINE
  8
0
 62
     1
 10
1.23472
 20
20.8111
 30
0.0
 11
1.84657
 21
20.3688
 31
0.0
  0
LINE
  8
0
 62
     1
 10
1.84657
 20
20.3688
 30
0.0
 11
2.07119
 21
20.264
 31
0.0
  0
LINE
  8
0
 62
     1
 10
2.07119
 20
20.264
 30
0.0
 11
44.413
 21
0.519522
 31
0.0
  0
LINE
  8
0
 62
     1
 10
44.413
 20
0.519522
 30
0.0
 11
44.7202
 21
0.376206
 31
0.0
  0
LINE
  8
0
 62
     1
 10
44.7202
 20
0.376206
 30
0.0
 11
45.7634
 21
0.194303
 31
0.0
  0
LINE
  8
0
 62
     1
 10
45.7634
 20
0.194303
 30
0.0
 11
47.0877
 21
0.403765
 31
0.0
  0
LINE
  8
0
 62
     1
 10
47.0877
 20
0.403765
 30
0.0
 11
48.2381
 21
1.09554
 31
0.0
  0
LINE
  8
0
 62
     1
 10
48.2381
 20
1.09554
 30
0.0
 11
48.919
 21
1.90583
 31
0.0
  0
LINE
  8
0
 62
     1
 10
48.919
 20
1.90583
 30
0.0
 11
49.0636
 21
2.21313
 31
0.0
  0
LINE
  8
0
 62
     1
 10
49.0636
 20
2.21313
 30
0.0
 11
49.1172
 21
2.32888
 31
0.0
  0
LINE
  8
0
 62
     1
 10
49.1172
 20
2.32888
 30
0.0
 11
49.3917
 21
3.35139
 31
0.0
  0
LINE
  8
0
 62
     1
 10
49.3917
 20
3.35139
 30
0.0
 11
49.3917
 21
3.69175
 31
0.0
  0
LINE
  8
0
 62
     1
 10
49.3917
 20
3.69175
 30
0.0
 11
49.3917
 21
92.4059
 31
0.0
  0
LINE
  8
0
 62
     1
 10
49.3917
 20
92.4059
 30
0.0
 11
49.3917
 21
92.7474
 31
0.0
  0
LINE
  8
0
 62
     1
 10
49.3917
 20
92.7474
 30
0.0
 11
49.1162
 21
93.7687
 31
0.0
  0
LINE
  8
0
 62
     1
 10
49.1162
 20
93.7687
 30
0.0
 11
48.3665
 21
94.8821
 31
0.0
  0
LINE
  8
0
 62
     1
 10
48.3665
 20
94.8821
 30
0.0
 11
47.2528
 21
95.6317
 31
0.0
  0
LINE
  8
0
 62
     1
 10
47.2528
 20
95.6317
 30
0.0
 11
46.2319
 21
95.9058
 31
0.0
  0
LINE
  8
0
 62
     1
 10
46.2319
 20
95.9058
 30
0.0
 11
45.8914
 21
95.9058
 31
0.0
  0
LINE
  8
0
 62
     1
 10
45.8914
 20
95.9058
 30
0.0
 11
3.54983
 21
95.9058
 31
0.0
  0
LINE
  8
0
 62
     1
 10
3.54983
 20
95.9058
 30
0.0
 11
3.20807
 21
95.9058
 31
0.0
  0
LINE
  8
0
 62
     1
 10
3.20807
 20
95.9058
 30
0.0
 11
2.18695
 21
95.6317
 31
0.0
  0
LINE
  8
0
 62
     1
 10
2.18695
 20
95.6317
 30
0.0
 11
1.07349
 21
94.8821
 31
0.0
  0
LINE
  8
0
 62
     1
 10
1.07349
 20
94.8821
 30
0.0
 11
0.323839
 21
93.7687
 31
0.0
  0
LINE
  8
0
 62
     1
 10
0.323839
 20
93.7687
 30
0.0
 11
0.0496094
 21
92.7474
 31
0.0
  0
LINE
  8
0
 62
     1
 10
0.0496094
 20
92.7474
 30
0.0
 11
0.0496094
 21
92.4059
 31
0.0
  0
LINE
  8
0
 62
     1
 10
0.0496094
 20
92.4059
 30
0.0
 11
0.0496094
 21
23.4363
 31
0.0
  0
LINE
  8
0
 62
     1
 10
3.54983
 20
23.4363
 30
0.0
 11
42.8336
 21
5.11803
 31
0.0
  0
LINE
  8
0
 62
     1
 10
42.8336
 20
5.11803
 30
0.0
 11
42.9341
 21
5.33439
 31
0.0
  0
LINE
  8
0
 62
     1
 10
42.9341
 20
5.33439
 30
0.0
 11
43.3599
 21
5.92557
 31
0.0
  0
LINE
  8
0
 62
     1
 10
43.3599
 20
5.92557
 30
0.0
 11
44.0778
 21
6.53881
 31
0.0
  0
LINE
  8
0
 62
     1
 10
44.0778
 20
6.53881
 30
0.0
 11
44.9379
 21
6.93014
 31
0.0
  0
LINE
  8
0
 62
     1
 10
44.9379
 20
6.93014
 30
0.0
 11
45.653
 21
7.0666
 31
0.0
  0
LINE
  8
0
 62
     1
 10
45.653
 20
7.0666
 30
0.0
 11
45.8914
 21
7.0666
 31
0.0
  0
LINE
  8
0
 62
     1
 10
45.8914
 20
7.0666
 30
0.0
 11
45.8914
 21
89.0309
 31
0.0
  0
LINE
  8
0
 62
     1
 10
45.8914
 20
89.0309
 30
0.0
 11
45.562
 21
89.0309
 31
0.0
  0
LINE
  8
0
 62
     1
 10
45.562
 20
89.0309
 30
0.0
 11
44.5766
 21
89.2969
 31
0.0
  0
LINE
  8
0
 62
     1
 10
44.5766
 20
89.2969
 30
0.0
 11
43.5046
 21
90.0204
 31
0.0
  0
LINE
  8
0
 62
     1
 10
43.5046
 20
90.0204
 30
0.0
 11
42.7814
 21
91.0925
 31
0.0
  0
LINE
  8
0
 62
     1
 10
42.7814
 20
91.0925
 30
0.0
 11
42.5168
 21
92.0778
 31
0.0
  0
LINE
  8
0
 62
     1
 10
42.5168
 20
92.0778
 30
0.0
 11
42.5168
 21
92.4059
 31
0.0
  0
LINE
  8
0
 62
     1
 10
42.5168
 20
92.4059
 30
0.0
 11
3.54983
 21
92.4059
 31
0.0
  0
LINE
  8
0
 62
     1
 10
3.54983
 20
92.4059
 30
0.0
 11
3.54983
 21
23.4363
 31
0.0
  0
LINE
  8
0
 62
     1
 10
44.341
 20
3.69175
 30
0.0
 11
44.341
 21
3.86263
 31
0.0
  0
LINE
  8
0
 62
     1
 10
44.341
 20
3.86263
 30
0.0
 11
44.4733
 21
4.37113
 31
0.0
  0
LINE
  8
0
 62
     1
 10
44.4733
 20
4.37113
 30
0.0
 11
44.825
 21
4.85482
 31
0.0
  0
LINE
  8
0
 62
     1
 10
44.825
 20
4.85482
 30
0.0
 11
45.321
 21
5.14558
 31
0.0
  0
LINE
  8
0
 62
     1
 10
45.321
 20
5.14558
 30
0.0
 11
45.8914
 21
5.24207
 31
0.0
  0
LINE
  8
0
 62
     1
 10
45.8914
 20
5.24207
 30
0.0
 11
46.4605
 21
5.14558
 31
0.0
  0
LINE
  8
0
 62
     1
 10
46.4605
 20
5.14558
 30
0.0
 11
46.9565
 21
4.85482
 31
0.0
  0
LINE
  8
0
 62
     1
 10
46.9565
 20
4.85482
 30
0.0
 11
47.3082
 21
4.37113
 31
0.0
  0
LINE
  8
0
 62
     1
 10
47.3082
 20
4.37113
 30
0.0
 11
47.4416
 21
3.86263
 31
0.0
  0
LINE
  8
0
 62
     1
 10
47.4416
 20
3.86263
 30
0.0
 11
47.4416
 21
3.69175
 31
0.0
  0
LINE
  8
0
 62
     1
 10
47.4416
 20
3.69175
 30
0.0
 11
47.4416
 21
3.52364
 31
0.0
  0
LINE
  8
0
 62
     1
 10
47.4416
 20
3.52364
 30
0.0
 11
47.3082
 21
3.01515
 31
0.0
  0
LINE
  8
0
 62
     1
 10
47.3082
 20
3.01515
 30
0.0
 11
46.9565
 21
2.53008
 31
0.0
  0
LINE
  8
0
 62
     1
 10
46.9565
 20
2.53008
 30
0.0
 11
46.4605
 21
2.24069
 31
0.0
  0
LINE
  8
0
 62
     1
 10
46.4605
 20
2.24069
 30
0.0
 11
45.8914
 21
2.14285
 31
0.0
  0
LINE
  8
0
 62
     1
 10
45.8914
 20
2.14285
 30
0.0
 11
45.321
 21
2.24069
 31
0.0
  0
LINE
  8
0
 62
     1
 10
45.321
 20
2.24069
 30
0.0
 11
44.825
 21
2.53008
 31
0.0
  0
LINE
  8
0
 62
     1
 10
44.825
 20
2.53008
 30
0.0
 11
44.4733
 21
3.01515
 31
0.0
  0
LINE
  8
0
 62
     1
 10
44.4733
 20
3.01515
 30
0.0
 11
44.341
 21
3.52364
 31
0.0
  0
LINE
  8
0
 62
     1
 10
44.341
 20
3.52364
 30
0.0
 11
44.341
 21
3.69175
 31
0.0
  0
LINE
  8
0
 62
     1
 10
44.341
 20
92.4059
 30
0.0
 11
44.341
 21
92.5766
 31
0.0
  0
LINE
  8
0
 62
     1
 10
44.341
 20
92.5766
 30
0.0
 11
44.4733
 21
93.085
 31
0.0
  0
LINE
  8
0
 62
     1
 10
44.4733
 20
93.085
 30
0.0
 11
44.825
 21
93.5687
 31
0.0
  0
LINE
  8
0
 62
     1
 10
44.825
 20
93.5687
 30
0.0
 11
45.321
 21
93.8597
 31
0.0
  0
LINE
  8
0
 62
     1
 10
45.321
 20
93.8597
 30
0.0
 11
45.8914
 21
93.956
 31
0.0
  0
LINE
  8
0
 62
     1
 10
45.8914
 20
93.956
 30
0.0
 11
46.4605
 21
93.8597
 31
0.0
  0
LINE
  8
0
 62
     1
 10
46.4605
 20
93.8597
 30
0.0
 11
46.9565
 21
93.5687
 31
0.0
  0
LINE
  8
0
 62
     1
 10
46.9565
 20
93.5687
 30
0.0
 11
47.3082
 21
93.085
 31
0.0
  0
LINE
  8
0
 62
     1
 10
47.3082
 20
93.085
 30
0.0
 11
47.4416
 21
92.5766
 31
0.0
  0
LINE
  8
0
 62
     1
 10
47.4416
 20
92.5766
 30
0.0
 11
47.4416
 21
92.4059
 31
0.0
  0
LINE
  8
0
 62
     1
 10
47.4416
 20
92.4059
 30
0.0
 11
47.4416
 21
92.2362
 31
0.0
  0
LINE
  8
0
 62
     1
 10
47.4416
 20
92.2362
 30
0.0
 11
47.3082
 21
91.7279
 31
0.0
  0
LINE
  8
0
 62
     1
 10
47.3082
 20
91.7279
 30
0.0
 11
46.9565
 21
91.2442
 31
0.0
  0
LINE
  8
0
 62
     1
 10
46.9565
 20
91.2442
 30
0.0
 11
46.4605
 21
90.9532
 31
0.0
  0
LINE
  8
0
 62
     1
 10
46.4605
 20
90.9532
 30
0.0
 11
45.8914
 21
90.8554
 31
0.0
  0
LINE
  8
0
 62
     1
 10
45.8914
 20
90.8554
 30
0.0
 11
45.321
 21
90.9532
 31
0.0
  0
LINE
  8
0
 62
     1
 10
45.321
 20
90.9532
 30
0.0
 11
44.825
 21
91.2442
 31
0.0
  0
LINE
  8
0
 62
     1
 10
44.825
 20
91.2442
 30
0.0
 11
44.4733
 21
91.7279
 31
0.0
  0
LINE
  8
0
 62
     1
 10
44.4733
 20
91.7279
 30
0.0
 11
44.341
 21
92.2362
 31
0.0
  0
LINE
  8
0
 62
     1
 10
44.341
 20
92.2362
 30
0.0
 11
44.341
 21
92.4059
 31
0.0
  0
ENDSEC
  0
EOF
