  0
SECTION
  2
HEADER
  9
$ACADVER
  1
AC1009
  9
$EXTMIN
 10
0.0
 20
0.0
 30
0.0
  9
$EXTMAX
 10
1000.0
 20
1000.0
 30
0.0
  9
$FILLMODE
 70
 0
  9
$SPLFRAME
 70
 1
  0
ENDSEC
  0
SECTION
  2
TABLES
  0
TABLE
  2
LAYER
 70
1
  0
LAYER
  2
0
 70
     0
 62
     7
  6
CONTINUOUS
  0
ENDTAB
  0
ENDSEC
  0
SECTION
  2
ENTITIES
  0
LINE
  8
0
 62
     1
 10
3.54983
 20
154.467
 30
0.0
 11
3.20807
 21
154.467
 31
0.0
  0
LINE
  8
0
 62
     1
 10
3.20807
 20
154.467
 30
0.0
 11
2.18695
 21
154.193
 31
0.0
  0
LINE
  8
0
 62
     1
 10
2.18695
 20
154.193
 30
0.0
 11
1.07349
 21
153.443
 31
0.0
  0
LINE
  8
0
 62
     1
 10
1.07349
 20
153.443
 30
0.0
 11
0.323839
 21
152.33
 31
0.0
  0
LINE
  8
0
 62
     1
 10
0.323839
 20
152.33
 30
0.0
 11
0.0496094
 21
151.309
 31
0.0
  0
LINE
  8
0
 62
     1
 10
0.0496094
 20
151.309
 30
0.0
 11
0.0496094
 21
150.967
 31
0.0
  0
LINE
  8
0
 62
     1
 10
0.0496094
 20
150.967
 30
0.0
 11
0.0496094
 21
43.4813
 31
0.0
  0
LINE
  8
0
 62
     1
 10
0.0496094
 20
43.4813
 30
0.0
 11
0.0496094
 21
43.1408
 31
0.0
  0
LINE
  8
0
 62
     1
 10
0.0496094
 20
43.1408
 30
0.0
 11
0.323839
 21
42.1199
 31
0.0
  0
LINE
  8
0
 62
     1
 10
0.323839
 20
42.1199
 30
0.0
 11
1.07349
 21
41.0076
 31
0.0
  0
LINE
  8
0
 62
     1
 10
1.07349
 20
41.0076
 30
0.0
 11
2.18695
 21
40.2579
 31
0.0
  0
LINE
  8
0
 62
     1
 10
2.18695
 20
40.2579
 30
0.0
 11
3.20807
 21
39.9824
 31
0.0
  0
LINE
  8
0
 62
     1
 10
3.20807
 20
39.9824
 30
0.0
 11
3.54983
 21
39.9824
 31
0.0
  0
LINE
  8
0
 62
     1
 10
3.54983
 20
39.9824
 30
0.0
 11
82.0843
 21
39.9824
 31
0.0
  0
LINE
  8
0
 62
     1
 10
82.0843
 20
39.9824
 30
0.0
 11
82.4537
 21
39.9824
 31
0.0
  0
LINE
  8
0
 62
     1
 10
82.4537
 20
39.9824
 30
0.0
 11
83.4485
 21
39.7083
 31
0.0
  0
LINE
  8
0
 62
     1
 10
83.4485
 20
39.7083
 30
0.0
 11
83.5642
 21
39.6543
 31
0.0
  0
LINE
  8
0
 62
     1
 10
83.5642
 20
39.6543
 30
0.0
 11
167.428
 21
0.547081
 31
0.0
  0
LINE
  8
0
 62
     1
 10
167.428
 20
0.547081
 30
0.0
 11
167.735
 21
0.403765
 31
0.0
  0
LINE
  8
0
 62
     1
 10
167.735
 20
0.403765
 30
0.0
 11
168.778
 21
0.220486
 31
0.0
  0
LINE
  8
0
 62
     1
 10
168.778
 20
0.220486
 30
0.0
 11
170.104
 21
0.431327
 31
0.0
  0
LINE
  8
0
 62
     1
 10
170.104
 20
0.431327
 30
0.0
 11
171.253
 21
1.12172
 31
0.0
  0
LINE
  8
0
 62
     1
 10
171.253
 20
1.12172
 30
0.0
 11
171.934
 21
1.93201
 31
0.0
  0
LINE
  8
0
 62
     1
 10
171.934
 20
1.93201
 30
0.0
 11
172.078
 21
2.24069
 31
0.0
  0
LINE
  8
0
 62
     1
 10
172.078
 20
2.24069
 30
0.0
 11
199.373
 21
60.7741
 31
0.0
  0
LINE
  8
0
 62
     1
 10
199.373
 20
60.7741
 30
0.0
 11
199.427
 21
60.8902
 31
0.0
  0
LINE
  8
0
 62
     1
 10
199.427
 20
60.8902
 30
0.0
 11
199.701
 21
61.9125
 31
0.0
  0
LINE
  8
0
 62
     1
 10
199.701
 20
61.9125
 30
0.0
 11
199.701
 21
62.2529
 31
0.0
  0
LINE
  8
0
 62
     1
 10
199.701
 20
62.2529
 30
0.0
 11
199.701
 21
150.967
 31
0.0
  0
LINE
  8
0
 62
     1
 10
199.701
 20
150.967
 30
0.0
 11
199.701
 21
151.309
 31
0.0
  0
LINE
  8
0
 62
     1
 10
199.701
 20
151.309
 30
0.0
 11
199.426
 21
152.33
 31
0.0
  0
LINE
  8
0
 62
     1
 10
199.426
 20
152.33
 30
0.0
 11
198.676
 21
153.443
 31
0.0
  0
LINE
  8
0
 62
     1
 10
198.676
 20
153.443
 30
0.0
 11
197.564
 21
154.193
 31
0.0
  0
LINE
  8
0
 62
     1
 10
197.564
 20
154.193
 30
0.0
 11
196.543
 21
154.467
 31
0.0
  0
LINE
  8
0
 62
     1
 10
196.543
 20
154.467
 30
0.0
 11
196.202
 21
154.467
 31
0.0
  0
LINE
  8
0
 62
     1
 10
196.202
 20
154.467
 30
0.0
 11
3.54983
 21
154.467
 31
0.0
  0
LINE
  8
0
 62
     1
 10
1.99953
 20
150.967
 30
0.0
 11
1.99953
 21
151.138
 31
0.0
  0
LINE
  8
0
 62
     1
 10
1.99953
 20
151.138
 30
0.0
 11
2.13183
 21
151.646
 31
0.0
  0
LINE
  8
0
 62
     1
 10
2.13183
 20
151.646
 30
0.0
 11
2.48322
 21
152.13
 31
0.0
  0
LINE
  8
0
 62
     1
 10
2.48322
 20
152.13
 30
0.0
 11
2.97932
 21
152.421
 31
0.0
  0
LINE
  8
0
 62
     1
 10
2.97932
 20
152.421
 30
0.0
 11
3.54983
 21
152.517
 31
0.0
  0
LINE
  8
0
 62
     1
 10
3.54983
 20
152.517
 30
0.0
 11
4.11896
 21
152.421
 31
0.0
  0
LINE
  8
0
 62
     1
 10
4.11896
 20
152.421
 30
0.0
 11
4.61504
 21
152.13
 31
0.0
  0
LINE
  8
0
 62
     1
 10
4.61504
 20
152.13
 30
0.0
 11
4.96644
 21
151.646
 31
0.0
  0
LINE
  8
0
 62
     1
 10
4.96644
 20
151.646
 30
0.0
 11
5.10011
 21
151.138
 31
0.0
  0
LINE
  8
0
 62
     1
 10
5.10011
 20
151.138
 30
0.0
 11
5.10011
 21
150.967
 31
0.0
  0
LINE
  8
0
 62
     1
 10
5.10011
 20
150.967
 30
0.0
 11
5.10011
 21
150.797
 31
0.0
  0
LINE
  8
0
 62
     1
 10
5.10011
 20
150.797
 30
0.0
 11
4.96644
 21
150.289
 31
0.0
  0
LINE
  8
0
 62
     1
 10
4.96644
 20
150.289
 30
0.0
 11
4.61504
 21
149.805
 31
0.0
  0
LINE
  8
0
 62
     1
 10
4.61504
 20
149.805
 30
0.0
 11
4.11896
 21
149.514
 31
0.0
  0
LINE
  8
0
 62
     1
 10
4.11896
 20
149.514
 30
0.0
 11
3.54983
 21
149.417
 31
0.0
  0
LINE
  8
0
 62
     1
 10
3.54983
 20
149.417
 30
0.0
 11
2.97932
 21
149.514
 31
0.0
  0
LINE
  8
0
 62
     1
 10
2.97932
 20
149.514
 30
0.0
 11
2.48322
 21
149.805
 31
0.0
  0
LINE
  8
0
 62
     1
 10
2.48322
 20
149.805
 30
0.0
 11
2.13183
 21
150.289
 31
0.0
  0
LINE
  8
0
 62
     1
 10
2.13183
 20
150.289
 30
0.0
 11
1.99953
 21
150.797
 31
0.0
  0
LINE
  8
0
 62
     1
 10
1.99953
 20
150.797
 30
0.0
 11
1.99953
 21
150.967
 31
0.0
  0
LINE
  8
0
 62
     1
 10
1.99953
 20
43.4813
 30
0.0
 11
1.99953
 21
43.652
 31
0.0
  0
LINE
  8
0
 62
     1
 10
1.99953
 20
43.652
 30
0.0
 11
2.13183
 21
44.1607
 31
0.0
  0
LINE
  8
0
 62
     1
 10
2.13183
 20
44.1607
 30
0.0
 11
2.48322
 21
44.6444
 31
0.0
  0
LINE
  8
0
 62
     1
 10
2.48322
 20
44.6444
 30
0.0
 11
2.97932
 21
44.9351
 31
0.0
  0
LINE
  8
0
 62
     1
 10
2.97932
 20
44.9351
 30
0.0
 11
3.54983
 21
45.0314
 31
0.0
  0
LINE
  8
0
 62
     1
 10
3.54983
 20
45.0314
 30
0.0
 11
4.11896
 21
44.9351
 31
0.0
  0
LINE
  8
0
 62
     1
 10
4.11896
 20
44.9351
 30
0.0
 11
4.61504
 21
44.6444
 31
0.0
  0
LINE
  8
0
 62
     1
 10
4.61504
 20
44.6444
 30
0.0
 11
4.96644
 21
44.1607
 31
0.0
  0
LINE
  8
0
 62
     1
 10
4.96644
 20
44.1607
 30
0.0
 11
5.10011
 21
43.652
 31
0.0
  0
LINE
  8
0
 62
     1
 10
5.10011
 20
43.652
 30
0.0
 11
5.10011
 21
43.4813
 31
0.0
  0
LINE
  8
0
 62
     1
 10
5.10011
 20
43.4813
 30
0.0
 11
5.10011
 21
43.313
 31
0.0
  0
LINE
  8
0
 62
     1
 10
5.10011
 20
43.313
 30
0.0
 11
4.96644
 21
42.8046
 31
0.0
  0
LINE
  8
0
 62
     1
 10
4.96644
 20
42.8046
 30
0.0
 11
4.61504
 21
42.3196
 31
0.0
  0
LINE
  8
0
 62
     1
 10
4.61504
 20
42.3196
 30
0.0
 11
4.11896
 21
42.0303
 31
0.0
  0
LINE
  8
0
 62
     1
 10
4.11896
 20
42.0303
 30
0.0
 11
3.54983
 21
41.9322
 31
0.0
  0
LINE
  8
0
 62
     1
 10
3.54983
 20
41.9322
 30
0.0
 11
2.97932
 21
42.0303
 31
0.0
  0
LINE
  8
0
 62
     1
 10
2.97932
 20
42.0303
 30
0.0
 11
2.48322
 21
42.3196
 31
0.0
  0
LINE
  8
0
 62
     1
 10
2.48322
 20
42.3196
 30
0.0
 11
2.13183
 21
42.8046
 31
0.0
  0
LINE
  8
0
 62
     1
 10
2.13183
 20
42.8046
 30
0.0
 11
1.99953
 21
43.313
 31
0.0
  0
LINE
  8
0
 62
     1
 10
1.99953
 20
43.313
 30
0.0
 11
1.99953
 21
43.4813
 31
0.0
  0
LINE
  8
0
 62
     1
 10
82.0872
 20
43.4813
 30
0.0
 11
82.0872
 21
43.652
 31
0.0
  0
LINE
  8
0
 62
     1
 10
82.0872
 20
43.652
 30
0.0
 11
82.2194
 21
44.1607
 31
0.0
  0
LINE
  8
0
 62
     1
 10
82.2194
 20
44.1607
 30
0.0
 11
82.5708
 21
44.6444
 31
0.0
  0
LINE
  8
0
 62
     1
 10
82.5708
 20
44.6444
 30
0.0
 11
83.0668
 21
44.9351
 31
0.0
  0
LINE
  8
0
 62
     1
 10
83.0668
 20
44.9351
 30
0.0
 11
83.6359
 21
45.0314
 31
0.0
  0
LINE
  8
0
 62
     1
 10
83.6359
 20
45.0314
 30
0.0
 11
84.2049
 21
44.9351
 31
0.0
  0
LINE
  8
0
 62
     1
 10
84.2049
 20
44.9351
 30
0.0
 11
84.7012
 21
44.6444
 31
0.0
  0
LINE
  8
0
 62
     1
 10
84.7012
 20
44.6444
 30
0.0
 11
85.0526
 21
44.1607
 31
0.0
  0
LINE
  8
0
 62
     1
 10
85.0526
 20
44.1607
 30
0.0
 11
85.1863
 21
43.652
 31
0.0
  0
LINE
  8
0
 62
     1
 10
85.1863
 20
43.652
 30
0.0
 11
85.1863
 21
43.4813
 31
0.0
  0
LINE
  8
0
 62
     1
 10
85.1863
 20
43.4813
 30
0.0
 11
85.1863
 21
43.313
 31
0.0
  0
LINE
  8
0
 62
     1
 10
85.1863
 20
43.313
 30
0.0
 11
85.0526
 21
42.8046
 31
0.0
  0
LINE
  8
0
 62
     1
 10
85.0526
 20
42.8046
 30
0.0
 11
84.7012
 21
42.3196
 31
0.0
  0
LINE
  8
0
 62
     1
 10
84.7012
 20
42.3196
 30
0.0
 11
84.2049
 21
42.0303
 31
0.0
  0
LINE
  8
0
 62
     1
 10
84.2049
 20
42.0303
 30
0.0
 11
83.6359
 21
41.9322
 31
0.0
  0
LINE
  8
0
 62
     1
 10
83.6359
 20
41.9322
 30
0.0
 11
83.0668
 21
42.0303
 31
0.0
  0
LINE
  8
0
 62
     1
 10
83.0668
 20
42.0303
 30
0.0
 11
82.5708
 21
42.3196
 31
0.0
  0
LINE
  8
0
 62
     1
 10
82.5708
 20
42.3196
 30
0.0
 11
82.2194
 21
42.8046
 31
0.0
  0
LINE
  8
0
 62
     1
 10
82.2194
 20
42.8046
 30
0.0
 11
82.0872
 21
43.313
 31
0.0
  0
LINE
  8
0
 62
     1
 10
82.0872
 20
43.313
 30
0.0
 11
82.0872
 21
43.4813
 31
0.0
  0
LINE
  8
0
 62
     1
 10
167.357
 20
3.71934
 30
0.0
 11
167.357
 21
3.89019
 31
0.0
  0
LINE
  8
0
 62
     1
 10
167.357
 20
3.89019
 30
0.0
 11
167.489
 21
4.39872
 31
0.0
  0
LINE
  8
0
 62
     1
 10
167.489
 20
4.39872
 30
0.0
 11
167.841
 21
4.88237
 31
0.0
  0
LINE
  8
0
 62
     1
 10
167.841
 20
4.88237
 30
0.0
 11
168.337
 21
5.17317
 31
0.0
  0
LINE
  8
0
 62
     1
 10
168.337
 20
5.17317
 30
0.0
 11
168.906
 21
5.26962
 31
0.0
  0
LINE
  8
0
 62
     1
 10
168.906
 20
5.26962
 30
0.0
 11
169.475
 21
5.17317
 31
0.0
  0
LINE
  8
0
 62
     1
 10
169.475
 20
5.17317
 30
0.0
 11
169.972
 21
4.88237
 31
0.0
  0
LINE
  8
0
 62
     1
 10
169.972
 20
4.88237
 30
0.0
 11
170.323
 21
4.39872
 31
0.0
  0
LINE
  8
0
 62
     1
 10
170.323
 20
4.39872
 30
0.0
 11
170.457
 21
3.89019
 31
0.0
  0
LINE
  8
0
 62
     1
 10
170.457
 20
3.89019
 30
0.0
 11
170.457
 21
3.71934
 31
0.0
  0
LINE
  8
0
 62
     1
 10
170.457
 20
3.71934
 30
0.0
 11
170.457
 21
3.54983
 31
0.0
  0
LINE
  8
0
 62
     1
 10
170.457
 20
3.54983
 30
0.0
 11
170.323
 21
3.04133
 31
0.0
  0
LINE
  8
0
 62
     1
 10
170.323
 20
3.04133
 30
0.0
 11
169.972
 21
2.55764
 31
0.0
  0
LINE
  8
0
 62
     1
 10
169.972
 20
2.55764
 30
0.0
 11
169.475
 21
2.26687
 31
0.0
  0
LINE
  8
0
 62
     1
 10
169.475
 20
2.26687
 30
0.0
 11
168.906
 21
2.16903
 31
0.0
  0
LINE
  8
0
 62
     1
 10
168.906
 20
2.16903
 30
0.0
 11
168.337
 21
2.26687
 31
0.0
  0
LINE
  8
0
 62
     1
 10
168.337
 20
2.26687
 30
0.0
 11
167.841
 21
2.55764
 31
0.0
  0
LINE
  8
0
 62
     1
 10
167.841
 20
2.55764
 30
0.0
 11
167.489
 21
3.04133
 31
0.0
  0
LINE
  8
0
 62
     1
 10
167.489
 20
3.04133
 30
0.0
 11
167.357
 21
3.54983
 31
0.0
  0
LINE
  8
0
 62
     1
 10
167.357
 20
3.54983
 30
0.0
 11
167.357
 21
3.71934
 31
0.0
  0
LINE
  8
0
 62
     1
 10
194.652
 20
62.2529
 30
0.0
 11
194.652
 21
62.4237
 31
0.0
  0
LINE
  8
0
 62
     1
 10
194.652
 20
62.4237
 30
0.0
 11
194.784
 21
62.9324
 31
0.0
  0
LINE
  8
0
 62
     1
 10
194.784
 20
62.9324
 30
0.0
 11
195.136
 21
63.416
 31
0.0
  0
LINE
  8
0
 62
     1
 10
195.136
 20
63.416
 30
0.0
 11
195.632
 21
63.7067
 31
0.0
  0
LINE
  8
0
 62
     1
 10
195.632
 20
63.7067
 30
0.0
 11
196.201
 21
63.803
 31
0.0
  0
LINE
  8
0
 62
     1
 10
196.201
 20
63.803
 30
0.0
 11
196.77
 21
63.7067
 31
0.0
  0
LINE
  8
0
 62
     1
 10
196.77
 20
63.7067
 30
0.0
 11
197.266
 21
63.416
 31
0.0
  0
LINE
  8
0
 62
     1
 10
197.266
 20
63.416
 30
0.0
 11
197.618
 21
62.9324
 31
0.0
  0
LINE
  8
0
 62
     1
 10
197.618
 20
62.9324
 30
0.0
 11
197.751
 21
62.4237
 31
0.0
  0
LINE
  8
0
 62
     1
 10
197.751
 20
62.4237
 30
0.0
 11
197.751
 21
62.2529
 31
0.0
  0
LINE
  8
0
 62
     1
 10
197.751
 20
62.2529
 30
0.0
 11
197.751
 21
62.0847
 31
0.0
  0
LINE
  8
0
 62
     1
 10
197.751
 20
62.0847
 30
0.0
 11
197.618
 21
61.5763
 31
0.0
  0
LINE
  8
0
 62
     1
 10
197.618
 20
61.5763
 30
0.0
 11
197.266
 21
61.0912
 31
0.0
  0
LINE
  8
0
 62
     1
 10
197.266
 20
61.0912
 30
0.0
 11
196.77
 21
60.802
 31
0.0
  0
LINE
  8
0
 62
     1
 10
196.77
 20
60.802
 30
0.0
 11
196.201
 21
60.7039
 31
0.0
  0
LINE
  8
0
 62
     1
 10
196.201
 20
60.7039
 30
0.0
 11
195.632
 21
60.802
 31
0.0
  0
LINE
  8
0
 62
     1
 10
195.632
 20
60.802
 30
0.0
 11
195.136
 21
61.0912
 31
0.0
  0
LINE
  8
0
 62
     1
 10
195.136
 20
61.0912
 30
0.0
 11
194.784
 21
61.5763
 31
0.0
  0
LINE
  8
0
 62
     1
 10
194.784
 20
61.5763
 30
0.0
 11
194.652
 21
62.0847
 31
0.0
  0
LINE
  8
0
 62
     1
 10
194.652
 20
62.0847
 30
0.0
 11
194.652
 21
62.2529
 31
0.0
  0
LINE
  8
0
 62
     1
 10
194.652
 20
150.967
 30
0.0
 11
194.652
 21
151.138
 31
0.0
  0
LINE
  8
0
 62
     1
 10
194.652
 20
151.138
 30
0.0
 11
194.784
 21
151.646
 31
0.0
  0
LINE
  8
0
 62
     1
 10
194.784
 20
151.646
 30
0.0
 11
195.136
 21
152.13
 31
0.0
  0
LINE
  8
0
 62
     1
 10
195.136
 20
152.13
 30
0.0
 11
195.632
 21
152.421
 31
0.0
  0
LINE
  8
0
 62
     1
 10
195.632
 20
152.421
 30
0.0
 11
196.201
 21
152.517
 31
0.0
  0
LINE
  8
0
 62
     1
 10
196.201
 20
152.517
 30
0.0
 11
196.77
 21
152.421
 31
0.0
  0
LINE
  8
0
 62
     1
 10
196.77
 20
152.421
 30
0.0
 11
197.266
 21
152.13
 31
0.0
  0
LINE
  8
0
 62
     1
 10
197.266
 20
152.13
 30
0.0
 11
197.618
 21
151.646
 31
0.0
  0
LINE
  8
0
 62
     1
 10
197.618
 20
151.646
 30
0.0
 11
197.751
 21
151.138
 31
0.0
  0
LINE
  8
0
 62
     1
 10
197.751
 20
151.138
 30
0.0
 11
197.751
 21
150.967
 31
0.0
  0
LINE
  8
0
 62
     1
 10
197.751
 20
150.967
 30
0.0
 11
197.751
 21
150.797
 31
0.0
  0
LINE
  8
0
 62
     1
 10
197.751
 20
150.797
 30
0.0
 11
197.618
 21
150.289
 31
0.0
  0
LINE
  8
0
 62
     1
 10
197.618
 20
150.289
 30
0.0
 11
197.266
 21
149.805
 31
0.0
  0
LINE
  8
0
 62
     1
 10
197.266
 20
149.805
 30
0.0
 11
196.77
 21
149.514
 31
0.0
  0
LINE
  8
0
 62
     1
 10
196.77
 20
149.514
 30
0.0
 11
196.201
 21
149.417
 31
0.0
  0
LINE
  8
0
 62
     1
 10
196.201
 20
149.417
 30
0.0
 11
195.632
 21
149.514
 31
0.0
  0
LINE
  8
0
 62
     1
 10
195.632
 20
149.514
 30
0.0
 11
195.136
 21
149.805
 31
0.0
  0
LINE
  8
0
 62
     1
 10
195.136
 20
149.805
 30
0.0
 11
194.784
 21
150.289
 31
0.0
  0
LINE
  8
0
 62
     1
 10
194.784
 20
150.289
 30
0.0
 11
194.652
 21
150.797
 31
0.0
  0
LINE
  8
0
 62
     1
 10
194.652
 20
150.797
 30
0.0
 11
194.652
 21
150.967
 31
0.0
  0
LINE
  8
0
 62
     1
 10
173.481
 20
146.466
 30
0.0
 11
173.481
 21
146.637
 31
0.0
  0
LINE
  8
0
 62
     1
 10
173.481
 20
146.637
 30
0.0
 11
173.614
 21
147.145
 31
0.0
  0
LINE
  8
0
 62
     1
 10
173.614
 20
147.145
 30
0.0
 11
173.965
 21
147.629
 31
0.0
  0
LINE
  8
0
 62
     1
 10
173.965
 20
147.629
 30
0.0
 11
174.461
 21
147.92
 31
0.0
  0
LINE
  8
0
 62
     1
 10
174.461
 20
147.92
 30
0.0
 11
175.03
 21
148.016
 31
0.0
  0
LINE
  8
0
 62
     1
 10
175.03
 20
148.016
 30
0.0
 11
175.599
 21
147.92
 31
0.0
  0
LINE
  8
0
 62
     1
 10
175.599
 20
147.92
 30
0.0
 11
176.095
 21
147.629
 31
0.0
  0
LINE
  8
0
 62
     1
 10
176.095
 20
147.629
 30
0.0
 11
176.447
 21
147.145
 31
0.0
  0
LINE
  8
0
 62
     1
 10
176.447
 20
147.145
 30
0.0
 11
176.58
 21
146.637
 31
0.0
  0
LINE
  8
0
 62
     1
 10
176.58
 20
146.637
 30
0.0
 11
176.58
 21
146.466
 31
0.0
  0
LINE
  8
0
 62
     1
 10
176.58
 20
146.466
 30
0.0
 11
176.58
 21
146.298
 31
0.0
  0
LINE
  8
0
 62
     1
 10
176.58
 20
146.298
 30
0.0
 11
176.447
 21
145.79
 31
0.0
  0
LINE
  8
0
 62
     1
 10
176.447
 20
145.79
 30
0.0
 11
176.095
 21
145.305
 31
0.0
  0
LINE
  8
0
 62
     1
 10
176.095
 20
145.305
 30
0.0
 11
175.599
 21
145.015
 31
0.0
  0
LINE
  8
0
 62
     1
 10
175.599
 20
145.015
 30
0.0
 11
175.03
 21
144.917
 31
0.0
  0
LINE
  8
0
 62
     1
 10
175.03
 20
144.917
 30
0.0
 11
174.461
 21
145.015
 31
0.0
  0
LINE
  8
0
 62
     1
 10
174.461
 20
145.015
 30
0.0
 11
173.965
 21
145.305
 31
0.0
  0
LINE
  8
0
 62
     1
 10
173.965
 20
145.305
 30
0.0
 11
173.614
 21
145.79
 31
0.0
  0
LINE
  8
0
 62
     1
 10
173.614
 20
145.79
 30
0.0
 11
173.481
 21
146.298
 31
0.0
  0
LINE
  8
0
 62
     1
 10
173.481
 20
146.298
 30
0.0
 11
173.481
 21
146.466
 31
0.0
  0
LINE
  8
0
 62
     1
 10
173.481
 20
76.6258
 30
0.0
 11
173.481
 21
76.7965
 31
0.0
  0
LINE
  8
0
 62
     1
 10
173.481
 20
76.7965
 30
0.0
 11
173.614
 21
77.3053
 31
0.0
  0
LINE
  8
0
 62
     1
 10
173.614
 20
77.3053
 30
0.0
 11
173.965
 21
77.7889
 31
0.0
  0
LINE
  8
0
 62
     1
 10
173.965
 20
77.7889
 30
0.0
 11
174.461
 21
78.0796
 31
0.0
  0
LINE
  8
0
 62
     1
 10
174.461
 20
78.0796
 30
0.0
 11
175.03
 21
78.1763
 31
0.0
  0
LINE
  8
0
 62
     1
 10
175.03
 20
78.1763
 30
0.0
 11
175.599
 21
78.0796
 31
0.0
  0
LINE
  8
0
 62
     1
 10
175.599
 20
78.0796
 30
0.0
 11
176.095
 21
77.7889
 31
0.0
  0
LINE
  8
0
 62
     1
 10
176.095
 20
77.7889
 30
0.0
 11
176.447
 21
77.3053
 31
0.0
  0
LINE
  8
0
 62
     1
 10
176.447
 20
77.3053
 30
0.0
 11
176.58
 21
76.7965
 31
0.0
  0
LINE
  8
0
 62
     1
 10
176.58
 20
76.7965
 30
0.0
 11
176.58
 21
76.6258
 31
0.0
  0
LINE
  8
0
 62
     1
 10
176.58
 20
76.6258
 30
0.0
 11
176.58
 21
76.4565
 31
0.0
  0
LINE
  8
0
 62
     1
 10
176.58
 20
76.4565
 30
0.0
 11
176.447
 21
75.9478
 31
0.0
  0
LINE
  8
0
 62
     1
 10
176.447
 20
75.9478
 30
0.0
 11
176.095
 21
75.4641
 31
0.0
  0
LINE
  8
0
 62
     1
 10
176.095
 20
75.4641
 30
0.0
 11
175.599
 21
75.1734
 31
0.0
  0
LINE
  8
0
 62
     1
 10
175.599
 20
75.1734
 30
0.0
 11
175.03
 21
75.0757
 31
0.0
  0
LINE
  8
0
 62
     1
 10
175.03
 20
75.0757
 30
0.0
 11
174.461
 21
75.1734
 31
0.0
  0
LINE
  8
0
 62
     1
 10
174.461
 20
75.1734
 30
0.0
 11
173.965
 21
75.4641
 31
0.0
  0
LINE
  8
0
 62
     1
 10
173.965
 20
75.4641
 30
0.0
 11
173.614
 21
75.9478
 31
0.0
  0
LINE
  8
0
 62
     1
 10
173.614
 20
75.9478
 30
0.0
 11
173.481
 21
76.4565
 31
0.0
  0
LINE
  8
0
 62
     1
 10
173.481
 20
76.4565
 30
0.0
 11
173.481
 21
76.6258
 31
0.0
  0
ENDSEC
  0
EOF
