  0
SECTION
  2
HEADER
  9
$ACADVER
  1
AC1009
  9
$EXTMIN
 10
0.0
 20
0.0
 30
0.0
  9
$EXTMAX
 10
1000.0
 20
1000.0
 30
0.0
  9
$FILLMODE
 70
 0
  9
$SPLFRAME
 70
 1
  0
ENDSEC
  0
SECTION
  2
TABLES
  0
TABLE
  2
LAYER
 70
1
  0
LAYER
  2
0
 70
     0
 62
     7
  6
CONTINUOUS
  0
ENDTAB
  0
ENDSEC
  0
SECTION
  2
ENTITIES
  0
LINE
  8
0
 62
     1
 10
3.54983
 20
154.467
 30
0.0
 11
3.20807
 21
154.467
 31
0.0
  0
LINE
  8
0
 62
     1
 10
3.20807
 20
154.467
 30
0.0
 11
2.18695
 21
154.193
 31
0.0
  0
LINE
  8
0
 62
     1
 10
2.18695
 20
154.193
 30
0.0
 11
1.07349
 21
153.443
 31
0.0
  0
LINE
  8
0
 62
     1
 10
1.07349
 20
153.443
 30
0.0
 11
0.323839
 21
152.33
 31
0.0
  0
LINE
  8
0
 62
     1
 10
0.323839
 20
152.33
 30
0.0
 11
0.0496094
 21
151.309
 31
0.0
  0
LINE
  8
0
 62
     1
 10
0.0496094
 20
151.309
 30
0.0
 11
0.0496094
 21
150.967
 31
0.0
  0
LINE
  8
0
 62
     1
 10
0.0496094
 20
150.967
 30
0.0
 11
0.0496094
 21
43.4813
 31
0.0
  0
LINE
  8
0
 62
     1
 10
0.0496094
 20
43.4813
 30
0.0
 11
0.0496094
 21
43.1408
 31
0.0
  0
LINE
  8
0
 62
     1
 10
0.0496094
 20
43.1408
 30
0.0
 11
0.323839
 21
42.1199
 31
0.0
  0
LINE
  8
0
 62
     1
 10
0.323839
 20
42.1199
 30
0.0
 11
1.07349
 21
41.0076
 31
0.0
  0
LINE
  8
0
 62
     1
 10
1.07349
 20
41.0076
 30
0.0
 11
2.18695
 21
40.2579
 31
0.0
  0
LINE
  8
0
 62
     1
 10
2.18695
 20
40.2579
 30
0.0
 11
3.20807
 21
39.9824
 31
0.0
  0
LINE
  8
0
 62
     1
 10
3.20807
 20
39.9824
 30
0.0
 11
3.54983
 21
39.9824
 31
0.0
  0
LINE
  8
0
 62
     1
 10
3.54983
 20
39.9824
 30
0.0
 11
82.0843
 21
39.9824
 31
0.0
  0
LINE
  8
0
 62
     1
 10
82.0843
 20
39.9824
 30
0.0
 11
82.4537
 21
39.9824
 31
0.0
  0
LINE
  8
0
 62
     1
 10
82.4537
 20
39.9824
 30
0.0
 11
83.4485
 21
39.7083
 31
0.0
  0
LINE
  8
0
 62
     1
 10
83.4485
 20
39.7083
 30
0.0
 11
83.5642
 21
39.6543
 31
0.0
  0
LINE
  8
0
 62
     1
 10
83.5642
 20
39.6543
 30
0.0
 11
167.428
 21
0.547081
 31
0.0
  0
LINE
  8
0
 62
     1
 10
167.428
 20
0.547081
 30
0.0
 11
167.735
 21
0.403765
 31
0.0
  0
LINE
  8
0
 62
     1
 10
167.735
 20
0.403765
 30
0.0
 11
168.778
 21
0.220486
 31
0.0
  0
LINE
  8
0
 62
     1
 10
168.778
 20
0.220486
 30
0.0
 11
170.104
 21
0.431327
 31
0.0
  0
LINE
  8
0
 62
     1
 10
170.104
 20
0.431327
 30
0.0
 11
171.253
 21
1.12172
 31
0.0
  0
LINE
  8
0
 62
     1
 10
171.253
 20
1.12172
 30
0.0
 11
171.934
 21
1.93201
 31
0.0
  0
LINE
  8
0
 62
     1
 10
171.934
 20
1.93201
 30
0.0
 11
172.078
 21
2.24069
 31
0.0
  0
LINE
  8
0
 62
     1
 10
172.078
 20
2.24069
 30
0.0
 11
199.373
 21
60.7741
 31
0.0
  0
LINE
  8
0
 62
     1
 10
199.373
 20
60.7741
 30
0.0
 11
199.427
 21
60.8902
 31
0.0
  0
LINE
  8
0
 62
     1
 10
199.427
 20
60.8902
 30
0.0
 11
199.701
 21
61.9125
 31
0.0
  0
LINE
  8
0
 62
     1
 10
199.701
 20
61.9125
 30
0.0
 11
199.701
 21
62.2529
 31
0.0
  0
LINE
  8
0
 62
     1
 10
199.701
 20
62.2529
 30
0.0
 11
199.701
 21
150.967
 31
0.0
  0
LINE
  8
0
 62
     1
 10
199.701
 20
150.967
 30
0.0
 11
199.701
 21
151.309
 31
0.0
  0
LINE
  8
0
 62
     1
 10
199.701
 20
151.309
 30
0.0
 11
199.426
 21
152.33
 31
0.0
  0
LINE
  8
0
 62
     1
 10
199.426
 20
152.33
 30
0.0
 11
198.676
 21
153.443
 31
0.0
  0
LINE
  8
0
 62
     1
 10
198.676
 20
153.443
 30
0.0
 11
197.564
 21
154.193
 31
0.0
  0
LINE
  8
0
 62
     1
 10
197.564
 20
154.193
 30
0.0
 11
196.543
 21
154.467
 31
0.0
  0
LINE
  8
0
 62
     1
 10
196.543
 20
154.467
 30
0.0
 11
196.202
 21
154.467
 31
0.0
  0
LINE
  8
0
 62
     1
 10
196.202
 20
154.467
 30
0.0
 11
3.54983
 21
154.467
 31
0.0
  0
LINE
  8
0
 62
     1
 10
3.54983
 20
147.467
 30
0.0
 11
3.54983
 21
46.9815
 31
0.0
  0
LINE
  8
0
 62
     1
 10
3.54983
 20
46.9815
 30
0.0
 11
3.89019
 21
46.9815
 31
0.0
  0
LINE
  8
0
 62
     1
 10
3.89019
 20
46.9815
 30
0.0
 11
4.91134
 21
46.7071
 31
0.0
  0
LINE
  8
0
 62
     1
 10
4.91134
 20
46.7071
 30
0.0
 11
6.02477
 21
45.9574
 31
0.0
  0
LINE
  8
0
 62
     1
 10
6.02477
 20
45.9574
 30
0.0
 11
6.77443
 21
44.8441
 31
0.0
  0
LINE
  8
0
 62
     1
 10
6.77443
 20
44.8441
 30
0.0
 11
7.05005
 21
43.8231
 31
0.0
  0
LINE
  8
0
 62
     1
 10
7.05005
 20
43.8231
 30
0.0
 11
7.05005
 21
43.4813
 31
0.0
  0
LINE
  8
0
 62
     1
 10
7.05005
 20
43.4813
 30
0.0
 11
80.137
 21
43.4813
 31
0.0
  0
LINE
  8
0
 62
     1
 10
80.137
 20
43.4813
 30
0.0
 11
80.137
 21
43.8602
 31
0.0
  0
LINE
  8
0
 62
     1
 10
80.137
 20
43.8602
 30
0.0
 11
80.4803
 21
44.9957
 31
0.0
  0
LINE
  8
0
 62
     1
 10
80.4803
 20
44.9957
 30
0.0
 11
81.238
 21
46.0456
 31
0.0
  0
LINE
  8
0
 62
     1
 10
81.238
 20
46.0456
 30
0.0
 11
81.4462
 21
46.2111
 31
0.0
  0
LINE
  8
0
 62
     1
 10
81.4462
 20
46.2111
 30
0.0
 11
81.6529
 21
46.3779
 31
0.0
  0
LINE
  8
0
 62
     1
 10
81.6529
 20
46.3779
 30
0.0
 11
82.8407
 21
46.8905
 31
0.0
  0
LINE
  8
0
 62
     1
 10
82.8407
 20
46.8905
 30
0.0
 11
84.1347
 21
46.9565
 31
0.0
  0
LINE
  8
0
 62
     1
 10
84.1347
 20
46.9565
 30
0.0
 11
84.394
 21
46.8986
 31
0.0
  0
LINE
  8
0
 62
     1
 10
84.394
 20
46.8986
 30
0.0
 11
84.6529
 21
46.8422
 31
0.0
  0
LINE
  8
0
 62
     1
 10
84.6529
 20
46.8422
 30
0.0
 11
85.7966
 21
46.2361
 31
0.0
  0
LINE
  8
0
 62
     1
 10
85.7966
 20
46.2361
 30
0.0
 11
86.6581
 21
45.2684
 31
0.0
  0
LINE
  8
0
 62
     1
 10
86.6581
 20
45.2684
 30
0.0
 11
86.7752
 21
45.0303
 31
0.0
  0
LINE
  8
0
 62
     1
 10
86.7752
 20
45.0303
 30
0.0
 11
86.8923
 21
44.7933
 31
0.0
  0
LINE
  8
0
 62
     1
 10
86.8923
 20
44.7933
 30
0.0
 11
87.1361
 21
43.5211
 31
0.0
  0
LINE
  8
0
 62
     1
 10
87.1361
 20
43.5211
 30
0.0
 11
86.9199
 21
42.2437
 31
0.0
  0
LINE
  8
0
 62
     1
 10
86.9199
 20
42.2437
 30
0.0
 11
86.808
 21
42.0028
 31
0.0
  0
LINE
  8
0
 62
     1
 10
86.808
 20
42.0028
 30
0.0
 11
165.735
 21
5.19934
 31
0.0
  0
LINE
  8
0
 62
     1
 10
165.735
 20
5.19934
 30
0.0
 11
165.879
 21
5.50803
 31
0.0
  0
LINE
  8
0
 62
     1
 10
165.879
 20
5.50803
 30
0.0
 11
166.559
 21
6.31832
 31
0.0
  0
LINE
  8
0
 62
     1
 10
166.559
 20
6.31832
 30
0.0
 11
167.71
 21
7.00871
 31
0.0
  0
LINE
  8
0
 62
     1
 10
167.71
 20
7.00871
 30
0.0
 11
169.034
 21
7.21953
 31
0.0
  0
LINE
  8
0
 62
     1
 10
169.034
 20
7.21953
 30
0.0
 11
170.077
 21
7.03626
 31
0.0
  0
LINE
  8
0
 62
     1
 10
170.077
 20
7.03626
 30
0.0
 11
170.386
 21
6.89158
 31
0.0
  0
LINE
  8
0
 62
     1
 10
170.386
 20
6.89158
 30
0.0
 11
194.722
 21
59.0808
 31
0.0
  0
LINE
  8
0
 62
     1
 10
194.722
 20
59.0808
 30
0.0
 11
194.455
 21
59.206
 31
0.0
  0
LINE
  8
0
 62
     1
 10
194.455
 20
59.206
 30
0.0
 11
193.741
 21
59.7627
 31
0.0
  0
LINE
  8
0
 62
     1
 10
193.741
 20
59.7627
 30
0.0
 11
193.062
 21
60.7053
 31
0.0
  0
LINE
  8
0
 62
     1
 10
193.062
 20
60.7053
 30
0.0
 11
192.728
 21
61.8187
 31
0.0
  0
LINE
  8
0
 62
     1
 10
192.728
 20
61.8187
 30
0.0
 11
192.721
 21
62.7242
 31
0.0
  0
LINE
  8
0
 62
     1
 10
192.721
 20
62.7242
 30
0.0
 11
192.785
 21
63.0107
 31
0.0
  0
LINE
  8
0
 62
     1
 10
192.785
 20
63.0107
 30
0.0
 11
192.848
 21
63.2989
 31
0.0
  0
LINE
  8
0
 62
     1
 10
192.848
 20
63.2989
 30
0.0
 11
193.237
 21
64.116
 31
0.0
  0
LINE
  8
0
 62
     1
 10
193.237
 20
64.116
 30
0.0
 11
194.011
 21
64.9841
 31
0.0
  0
LINE
  8
0
 62
     1
 10
194.011
 20
64.9841
 30
0.0
 11
195.025
 21
65.5507
 31
0.0
  0
LINE
  8
0
 62
     1
 10
195.025
 20
65.5507
 30
0.0
 11
195.907
 21
65.7532
 31
0.0
  0
LINE
  8
0
 62
     1
 10
195.907
 20
65.7532
 30
0.0
 11
196.202
 21
65.7532
 31
0.0
  0
LINE
  8
0
 62
     1
 10
196.202
 20
65.7532
 30
0.0
 11
196.202
 21
147.467
 31
0.0
  0
LINE
  8
0
 62
     1
 10
196.202
 20
147.467
 30
0.0
 11
195.86
 21
147.467
 31
0.0
  0
LINE
  8
0
 62
     1
 10
195.86
 20
147.467
 30
0.0
 11
194.84
 21
147.742
 31
0.0
  0
LINE
  8
0
 62
     1
 10
194.84
 20
147.742
 30
0.0
 11
193.726
 21
148.492
 31
0.0
  0
LINE
  8
0
 62
     1
 10
193.726
 20
148.492
 30
0.0
 11
192.977
 21
149.605
 31
0.0
  0
LINE
  8
0
 62
     1
 10
192.977
 20
149.605
 30
0.0
 11
192.702
 21
150.627
 31
0.0
  0
LINE
  8
0
 62
     1
 10
192.702
 20
150.627
 30
0.0
 11
192.702
 21
150.967
 31
0.0
  0
LINE
  8
0
 62
     1
 10
192.702
 20
150.967
 30
0.0
 11
7.05005
 21
150.967
 31
0.0
  0
LINE
  8
0
 62
     1
 10
7.05005
 20
150.967
 30
0.0
 11
7.05005
 21
150.627
 31
0.0
  0
LINE
  8
0
 62
     1
 10
7.05005
 20
150.627
 30
0.0
 11
6.77443
 21
149.605
 31
0.0
  0
LINE
  8
0
 62
     1
 10
6.77443
 20
149.605
 30
0.0
 11
6.02477
 21
148.492
 31
0.0
  0
LINE
  8
0
 62
     1
 10
6.02477
 20
148.492
 30
0.0
 11
4.91134
 21
147.742
 31
0.0
  0
LINE
  8
0
 62
     1
 10
4.91134
 20
147.742
 30
0.0
 11
3.89019
 21
147.467
 31
0.0
  0
LINE
  8
0
 62
     1
 10
3.89019
 20
147.467
 30
0.0
 11
3.54983
 21
147.467
 31
0.0
  0
LINE
  8
0
 62
     1
 10
1.99953
 20
150.967
 30
0.0
 11
1.99953
 21
151.138
 31
0.0
  0
LINE
  8
0
 62
     1
 10
1.99953
 20
151.138
 30
0.0
 11
2.13183
 21
151.646
 31
0.0
  0
LINE
  8
0
 62
     1
 10
2.13183
 20
151.646
 30
0.0
 11
2.48322
 21
152.13
 31
0.0
  0
LINE
  8
0
 62
     1
 10
2.48322
 20
152.13
 30
0.0
 11
2.97932
 21
152.421
 31
0.0
  0
LINE
  8
0
 62
     1
 10
2.97932
 20
152.421
 30
0.0
 11
3.54983
 21
152.517
 31
0.0
  0
LINE
  8
0
 62
     1
 10
3.54983
 20
152.517
 30
0.0
 11
4.11896
 21
152.421
 31
0.0
  0
LINE
  8
0
 62
     1
 10
4.11896
 20
152.421
 30
0.0
 11
4.61504
 21
152.13
 31
0.0
  0
LINE
  8
0
 62
     1
 10
4.61504
 20
152.13
 30
0.0
 11
4.96644
 21
151.646
 31
0.0
  0
LINE
  8
0
 62
     1
 10
4.96644
 20
151.646
 30
0.0
 11
5.10011
 21
151.138
 31
0.0
  0
LINE
  8
0
 62
     1
 10
5.10011
 20
151.138
 30
0.0
 11
5.10011
 21
150.967
 31
0.0
  0
LINE
  8
0
 62
     1
 10
5.10011
 20
150.967
 30
0.0
 11
5.10011
 21
150.797
 31
0.0
  0
LINE
  8
0
 62
     1
 10
5.10011
 20
150.797
 30
0.0
 11
4.96644
 21
150.289
 31
0.0
  0
LINE
  8
0
 62
     1
 10
4.96644
 20
150.289
 30
0.0
 11
4.61504
 21
149.805
 31
0.0
  0
LINE
  8
0
 62
     1
 10
4.61504
 20
149.805
 30
0.0
 11
4.11896
 21
149.514
 31
0.0
  0
LINE
  8
0
 62
     1
 10
4.11896
 20
149.514
 30
0.0
 11
3.54983
 21
149.417
 31
0.0
  0
LINE
  8
0
 62
     1
 10
3.54983
 20
149.417
 30
0.0
 11
2.97932
 21
149.514
 31
0.0
  0
LINE
  8
0
 62
     1
 10
2.97932
 20
149.514
 30
0.0
 11
2.48322
 21
149.805
 31
0.0
  0
LINE
  8
0
 62
     1
 10
2.48322
 20
149.805
 30
0.0
 11
2.13183
 21
150.289
 31
0.0
  0
LINE
  8
0
 62
     1
 10
2.13183
 20
150.289
 30
0.0
 11
1.99953
 21
150.797
 31
0.0
  0
LINE
  8
0
 62
     1
 10
1.99953
 20
150.797
 30
0.0
 11
1.99953
 21
150.967
 31
0.0
  0
LINE
  8
0
 62
     1
 10
1.99953
 20
43.4813
 30
0.0
 11
1.99953
 21
43.652
 31
0.0
  0
LINE
  8
0
 62
     1
 10
1.99953
 20
43.652
 30
0.0
 11
2.13183
 21
44.1607
 31
0.0
  0
LINE
  8
0
 62
     1
 10
2.13183
 20
44.1607
 30
0.0
 11
2.48322
 21
44.6444
 31
0.0
  0
LINE
  8
0
 62
     1
 10
2.48322
 20
44.6444
 30
0.0
 11
2.97932
 21
44.9351
 31
0.0
  0
LINE
  8
0
 62
     1
 10
2.97932
 20
44.9351
 30
0.0
 11
3.54983
 21
45.0314
 31
0.0
  0
LINE
  8
0
 62
     1
 10
3.54983
 20
45.0314
 30
0.0
 11
4.11896
 21
44.9351
 31
0.0
  0
LINE
  8
0
 62
     1
 10
4.11896
 20
44.9351
 30
0.0
 11
4.61504
 21
44.6444
 31
0.0
  0
LINE
  8
0
 62
     1
 10
4.61504
 20
44.6444
 30
0.0
 11
4.96644
 21
44.1607
 31
0.0
  0
LINE
  8
0
 62
     1
 10
4.96644
 20
44.1607
 30
0.0
 11
5.10011
 21
43.652
 31
0.0
  0
LINE
  8
0
 62
     1
 10
5.10011
 20
43.652
 30
0.0
 11
5.10011
 21
43.4813
 31
0.0
  0
LINE
  8
0
 62
     1
 10
5.10011
 20
43.4813
 30
0.0
 11
5.10011
 21
43.313
 31
0.0
  0
LINE
  8
0
 62
     1
 10
5.10011
 20
43.313
 30
0.0
 11
4.96644
 21
42.8046
 31
0.0
  0
LINE
  8
0
 62
     1
 10
4.96644
 20
42.8046
 30
0.0
 11
4.61504
 21
42.3196
 31
0.0
  0
LINE
  8
0
 62
     1
 10
4.61504
 20
42.3196
 30
0.0
 11
4.11896
 21
42.0303
 31
0.0
  0
LINE
  8
0
 62
     1
 10
4.11896
 20
42.0303
 30
0.0
 11
3.54983
 21
41.9322
 31
0.0
  0
LINE
  8
0
 62
     1
 10
3.54983
 20
41.9322
 30
0.0
 11
2.97932
 21
42.0303
 31
0.0
  0
LINE
  8
0
 62
     1
 10
2.97932
 20
42.0303
 30
0.0
 11
2.48322
 21
42.3196
 31
0.0
  0
LINE
  8
0
 62
     1
 10
2.48322
 20
42.3196
 30
0.0
 11
2.13183
 21
42.8046
 31
0.0
  0
LINE
  8
0
 62
     1
 10
2.13183
 20
42.8046
 30
0.0
 11
1.99953
 21
43.313
 31
0.0
  0
LINE
  8
0
 62
     1
 10
1.99953
 20
43.313
 30
0.0
 11
1.99953
 21
43.4813
 31
0.0
  0
LINE
  8
0
 62
     1
 10
82.0872
 20
43.4813
 30
0.0
 11
82.0872
 21
43.652
 31
0.0
  0
LINE
  8
0
 62
     1
 10
82.0872
 20
43.652
 30
0.0
 11
82.2194
 21
44.1607
 31
0.0
  0
LINE
  8
0
 62
     1
 10
82.2194
 20
44.1607
 30
0.0
 11
82.5708
 21
44.6444
 31
0.0
  0
LINE
  8
0
 62
     1
 10
82.5708
 20
44.6444
 30
0.0
 11
83.0668
 21
44.9351
 31
0.0
  0
LINE
  8
0
 62
     1
 10
83.0668
 20
44.9351
 30
0.0
 11
83.6359
 21
45.0314
 31
0.0
  0
LINE
  8
0
 62
     1
 10
83.6359
 20
45.0314
 30
0.0
 11
84.2049
 21
44.9351
 31
0.0
  0
LINE
  8
0
 62
     1
 10
84.2049
 20
44.9351
 30
0.0
 11
84.7012
 21
44.6444
 31
0.0
  0
LINE
  8
0
 62
     1
 10
84.7012
 20
44.6444
 30
0.0
 11
85.0526
 21
44.1607
 31
0.0
  0
LINE
  8
0
 62
     1
 10
85.0526
 20
44.1607
 30
0.0
 11
85.1863
 21
43.652
 31
0.0
  0
LINE
  8
0
 62
     1
 10
85.1863
 20
43.652
 30
0.0
 11
85.1863
 21
43.4813
 31
0.0
  0
LINE
  8
0
 62
     1
 10
85.1863
 20
43.4813
 30
0.0
 11
85.1863
 21
43.313
 31
0.0
  0
LINE
  8
0
 62
     1
 10
85.1863
 20
43.313
 30
0.0
 11
85.0526
 21
42.8046
 31
0.0
  0
LINE
  8
0
 62
     1
 10
85.0526
 20
42.8046
 30
0.0
 11
84.7012
 21
42.3196
 31
0.0
  0
LINE
  8
0
 62
     1
 10
84.7012
 20
42.3196
 30
0.0
 11
84.2049
 21
42.0303
 31
0.0
  0
LINE
  8
0
 62
     1
 10
84.2049
 20
42.0303
 30
0.0
 11
83.6359
 21
41.9322
 31
0.0
  0
LINE
  8
0
 62
     1
 10
83.6359
 20
41.9322
 30
0.0
 11
83.0668
 21
42.0303
 31
0.0
  0
LINE
  8
0
 62
     1
 10
83.0668
 20
42.0303
 30
0.0
 11
82.5708
 21
42.3196
 31
0.0
  0
LINE
  8
0
 62
     1
 10
82.5708
 20
42.3196
 30
0.0
 11
82.2194
 21
42.8046
 31
0.0
  0
LINE
  8
0
 62
     1
 10
82.2194
 20
42.8046
 30
0.0
 11
82.0872
 21
43.313
 31
0.0
  0
LINE
  8
0
 62
     1
 10
82.0872
 20
43.313
 30
0.0
 11
82.0872
 21
43.4813
 31
0.0
  0
LINE
  8
0
 62
     1
 10
167.357
 20
3.71934
 30
0.0
 11
167.357
 21
3.89019
 31
0.0
  0
LINE
  8
0
 62
     1
 10
167.357
 20
3.89019
 30
0.0
 11
167.489
 21
4.39872
 31
0.0
  0
LINE
  8
0
 62
     1
 10
167.489
 20
4.39872
 30
0.0
 11
167.841
 21
4.88237
 31
0.0
  0
LINE
  8
0
 62
     1
 10
167.841
 20
4.88237
 30
0.0
 11
168.337
 21
5.17317
 31
0.0
  0
LINE
  8
0
 62
     1
 10
168.337
 20
5.17317
 30
0.0
 11
168.906
 21
5.26962
 31
0.0
  0
LINE
  8
0
 62
     1
 10
168.906
 20
5.26962
 30
0.0
 11
169.475
 21
5.17317
 31
0.0
  0
LINE
  8
0
 62
     1
 10
169.475
 20
5.17317
 30
0.0
 11
169.972
 21
4.88237
 31
0.0
  0
LINE
  8
0
 62
     1
 10
169.972
 20
4.88237
 30
0.0
 11
170.323
 21
4.39872
 31
0.0
  0
LINE
  8
0
 62
     1
 10
170.323
 20
4.39872
 30
0.0
 11
170.457
 21
3.89019
 31
0.0
  0
LINE
  8
0
 62
     1
 10
170.457
 20
3.89019
 30
0.0
 11
170.457
 21
3.71934
 31
0.0
  0
LINE
  8
0
 62
     1
 10
170.457
 20
3.71934
 30
0.0
 11
170.457
 21
3.54983
 31
0.0
  0
LINE
  8
0
 62
     1
 10
170.457
 20
3.54983
 30
0.0
 11
170.323
 21
3.04133
 31
0.0
  0
LINE
  8
0
 62
     1
 10
170.323
 20
3.04133
 30
0.0
 11
169.972
 21
2.55764
 31
0.0
  0
LINE
  8
0
 62
     1
 10
169.972
 20
2.55764
 30
0.0
 11
169.475
 21
2.26687
 31
0.0
  0
LINE
  8
0
 62
     1
 10
169.475
 20
2.26687
 30
0.0
 11
168.906
 21
2.16903
 31
0.0
  0
LINE
  8
0
 62
     1
 10
168.906
 20
2.16903
 30
0.0
 11
168.337
 21
2.26687
 31
0.0
  0
LINE
  8
0
 62
     1
 10
168.337
 20
2.26687
 30
0.0
 11
167.841
 21
2.55764
 31
0.0
  0
LINE
  8
0
 62
     1
 10
167.841
 20
2.55764
 30
0.0
 11
167.489
 21
3.04133
 31
0.0
  0
LINE
  8
0
 62
     1
 10
167.489
 20
3.04133
 30
0.0
 11
167.357
 21
3.54983
 31
0.0
  0
LINE
  8
0
 62
     1
 10
167.357
 20
3.54983
 30
0.0
 11
167.357
 21
3.71934
 31
0.0
  0
LINE
  8
0
 62
     1
 10
194.652
 20
62.2529
 30
0.0
 11
194.652
 21
62.4237
 31
0.0
  0
LINE
  8
0
 62
     1
 10
194.652
 20
62.4237
 30
0.0
 11
194.784
 21
62.9324
 31
0.0
  0
LINE
  8
0
 62
     1
 10
194.784
 20
62.9324
 30
0.0
 11
195.136
 21
63.416
 31
0.0
  0
LINE
  8
0
 62
     1
 10
195.136
 20
63.416
 30
0.0
 11
195.632
 21
63.7067
 31
0.0
  0
LINE
  8
0
 62
     1
 10
195.632
 20
63.7067
 30
0.0
 11
196.201
 21
63.803
 31
0.0
  0
LINE
  8
0
 62
     1
 10
196.201
 20
63.803
 30
0.0
 11
196.77
 21
63.7067
 31
0.0
  0
LINE
  8
0
 62
     1
 10
196.77
 20
63.7067
 30
0.0
 11
197.266
 21
63.416
 31
0.0
  0
LINE
  8
0
 62
     1
 10
197.266
 20
63.416
 30
0.0
 11
197.618
 21
62.9324
 31
0.0
  0
LINE
  8
0
 62
     1
 10
197.618
 20
62.9324
 30
0.0
 11
197.751
 21
62.4237
 31
0.0
  0
LINE
  8
0
 62
     1
 10
197.751
 20
62.4237
 30
0.0
 11
197.751
 21
62.2529
 31
0.0
  0
LINE
  8
0
 62
     1
 10
197.751
 20
62.2529
 30
0.0
 11
197.751
 21
62.0847
 31
0.0
  0
LINE
  8
0
 62
     1
 10
197.751
 20
62.0847
 30
0.0
 11
197.618
 21
61.5763
 31
0.0
  0
LINE
  8
0
 62
     1
 10
197.618
 20
61.5763
 30
0.0
 11
197.266
 21
61.0912
 31
0.0
  0
LINE
  8
0
 62
     1
 10
197.266
 20
61.0912
 30
0.0
 11
196.77
 21
60.802
 31
0.0
  0
LINE
  8
0
 62
     1
 10
196.77
 20
60.802
 30
0.0
 11
196.201
 21
60.7039
 31
0.0
  0
LINE
  8
0
 62
     1
 10
196.201
 20
60.7039
 30
0.0
 11
195.632
 21
60.802
 31
0.0
  0
LINE
  8
0
 62
     1
 10
195.632
 20
60.802
 30
0.0
 11
195.136
 21
61.0912
 31
0.0
  0
LINE
  8
0
 62
     1
 10
195.136
 20
61.0912
 30
0.0
 11
194.784
 21
61.5763
 31
0.0
  0
LINE
  8
0
 62
     1
 10
194.784
 20
61.5763
 30
0.0
 11
194.652
 21
62.0847
 31
0.0
  0
LINE
  8
0
 62
     1
 10
194.652
 20
62.0847
 30
0.0
 11
194.652
 21
62.2529
 31
0.0
  0
LINE
  8
0
 62
     1
 10
194.652
 20
150.967
 30
0.0
 11
194.652
 21
151.138
 31
0.0
  0
LINE
  8
0
 62
     1
 10
194.652
 20
151.138
 30
0.0
 11
194.784
 21
151.646
 31
0.0
  0
LINE
  8
0
 62
     1
 10
194.784
 20
151.646
 30
0.0
 11
195.136
 21
152.13
 31
0.0
  0
LINE
  8
0
 62
     1
 10
195.136
 20
152.13
 30
0.0
 11
195.632
 21
152.421
 31
0.0
  0
LINE
  8
0
 62
     1
 10
195.632
 20
152.421
 30
0.0
 11
196.201
 21
152.517
 31
0.0
  0
LINE
  8
0
 62
     1
 10
196.201
 20
152.517
 30
0.0
 11
196.77
 21
152.421
 31
0.0
  0
LINE
  8
0
 62
     1
 10
196.77
 20
152.421
 30
0.0
 11
197.266
 21
152.13
 31
0.0
  0
LINE
  8
0
 62
     1
 10
197.266
 20
152.13
 30
0.0
 11
197.618
 21
151.646
 31
0.0
  0
LINE
  8
0
 62
     1
 10
197.618
 20
151.646
 30
0.0
 11
197.751
 21
151.138
 31
0.0
  0
LINE
  8
0
 62
     1
 10
197.751
 20
151.138
 30
0.0
 11
197.751
 21
150.967
 31
0.0
  0
LINE
  8
0
 62
     1
 10
197.751
 20
150.967
 30
0.0
 11
197.751
 21
150.797
 31
0.0
  0
LINE
  8
0
 62
     1
 10
197.751
 20
150.797
 30
0.0
 11
197.618
 21
150.289
 31
0.0
  0
LINE
  8
0
 62
     1
 10
197.618
 20
150.289
 30
0.0
 11
197.266
 21
149.805
 31
0.0
  0
LINE
  8
0
 62
     1
 10
197.266
 20
149.805
 30
0.0
 11
196.77
 21
149.514
 31
0.0
  0
LINE
  8
0
 62
     1
 10
196.77
 20
149.514
 30
0.0
 11
196.201
 21
149.417
 31
0.0
  0
LINE
  8
0
 62
     1
 10
196.201
 20
149.417
 30
0.0
 11
195.632
 21
149.514
 31
0.0
  0
LINE
  8
0
 62
     1
 10
195.632
 20
149.514
 30
0.0
 11
195.136
 21
149.805
 31
0.0
  0
LINE
  8
0
 62
     1
 10
195.136
 20
149.805
 30
0.0
 11
194.784
 21
150.289
 31
0.0
  0
LINE
  8
0
 62
     1
 10
194.784
 20
150.289
 30
0.0
 11
194.652
 21
150.797
 31
0.0
  0
LINE
  8
0
 62
     1
 10
194.652
 20
150.797
 30
0.0
 11
194.652
 21
150.967
 31
0.0
  0
ENDSEC
  0
EOF
