  0
SECTION
  2
HEADER
  9
$ACADVER
  1
AC1009
  9
$EXTMIN
 10
0.0
 20
0.0
 30
0.0
  9
$EXTMAX
 10
1000.0
 20
1000.0
 30
0.0
  9
$FILLMODE
 70
 0
  9
$SPLFRAME
 70
 1
  0
ENDSEC
  0
SECTION
  2
TABLES
  0
TABLE
  2
LAYER
 70
1
  0
LAYER
  2
0
 70
     0
 62
     7
  6
CONTINUOUS
  0
ENDTAB
  0
ENDSEC
  0
SECTION
  2
ENTITIES
  0
LINE
  8
0
 62
     1
 10
0.0496094
 20
142.5
 30
0.0
 11
0.0496094
 21
42.0151
 31
0.0
  0
LINE
  8
0
 62
     1
 10
0.0496094
 20
42.0151
 30
0.0
 11
0.389985
 21
42.0151
 31
0.0
  0
LINE
  8
0
 62
     1
 10
0.389985
 20
42.0151
 30
0.0
 11
1.41111
 21
41.7407
 31
0.0
  0
LINE
  8
0
 62
     1
 10
1.41111
 20
41.7407
 30
0.0
 11
2.52457
 21
40.991
 31
0.0
  0
LINE
  8
0
 62
     1
 10
2.52457
 20
40.991
 30
0.0
 11
3.27422
 21
39.8776
 31
0.0
  0
LINE
  8
0
 62
     1
 10
3.27422
 20
39.8776
 30
0.0
 11
3.54983
 21
38.8567
 31
0.0
  0
LINE
  8
0
 62
     1
 10
3.54983
 20
38.8567
 30
0.0
 11
3.54983
 21
38.5149
 31
0.0
  0
LINE
  8
0
 62
     1
 10
3.54983
 20
38.5149
 30
0.0
 11
76.6367
 21
38.5149
 31
0.0
  0
LINE
  8
0
 62
     1
 10
76.6367
 20
38.5149
 30
0.0
 11
76.6367
 21
38.8938
 31
0.0
  0
LINE
  8
0
 62
     1
 10
76.6367
 20
38.8938
 30
0.0
 11
76.98
 21
40.0293
 31
0.0
  0
LINE
  8
0
 62
     1
 10
76.98
 20
40.0293
 30
0.0
 11
77.7378
 21
41.0792
 31
0.0
  0
LINE
  8
0
 62
     1
 10
77.7378
 20
41.0792
 30
0.0
 11
77.9459
 21
41.2447
 31
0.0
  0
LINE
  8
0
 62
     1
 10
77.9459
 20
41.2447
 30
0.0
 11
78.1526
 21
41.4115
 31
0.0
  0
LINE
  8
0
 62
     1
 10
78.1526
 20
41.4115
 30
0.0
 11
79.3418
 21
41.9241
 31
0.0
  0
LINE
  8
0
 62
     1
 10
79.3418
 20
41.9241
 30
0.0
 11
80.6344
 21
41.9901
 31
0.0
  0
LINE
  8
0
 62
     1
 10
80.6344
 20
41.9901
 30
0.0
 11
80.8937
 21
41.9322
 31
0.0
  0
LINE
  8
0
 62
     1
 10
80.8937
 20
41.9322
 30
0.0
 11
81.1526
 21
41.8758
 31
0.0
  0
LINE
  8
0
 62
     1
 10
81.1526
 20
41.8758
 30
0.0
 11
82.2964
 21
41.2694
 31
0.0
  0
LINE
  8
0
 62
     1
 10
82.2964
 20
41.2694
 30
0.0
 11
83.1578
 21
40.302
 31
0.0
  0
LINE
  8
0
 62
     1
 10
83.1578
 20
40.302
 30
0.0
 11
83.2764
 21
40.0636
 31
0.0
  0
LINE
  8
0
 62
     1
 10
83.2764
 20
40.0636
 30
0.0
 11
83.3935
 21
39.8268
 31
0.0
  0
LINE
  8
0
 62
     1
 10
83.3935
 20
39.8268
 30
0.0
 11
83.6359
 21
38.5547
 31
0.0
  0
LINE
  8
0
 62
     1
 10
83.6359
 20
38.5547
 30
0.0
 11
83.421
 21
37.2773
 31
0.0
  0
LINE
  8
0
 62
     1
 10
83.421
 20
37.2773
 30
0.0
 11
83.3092
 21
37.036
 31
0.0
  0
LINE
  8
0
 62
     1
 10
83.3092
 20
37.036
 30
0.0
 11
162.235
 21
0.23151
 31
0.0
  0
LINE
  8
0
 62
     1
 10
162.235
 20
0.23151
 30
0.0
 11
162.378
 21
0.540191
 31
0.0
  0
LINE
  8
0
 62
     1
 10
162.378
 20
0.540191
 30
0.0
 11
163.059
 21
1.35186
 31
0.0
  0
LINE
  8
0
 62
     1
 10
163.059
 20
1.35186
 30
0.0
 11
164.21
 21
2.04225
 31
0.0
  0
LINE
  8
0
 62
     1
 10
164.21
 20
2.04225
 30
0.0
 11
165.534
 21
2.25309
 31
0.0
  0
LINE
  8
0
 62
     1
 10
165.534
 20
2.25309
 30
0.0
 11
166.577
 21
2.06981
 31
0.0
  0
LINE
  8
0
 62
     1
 10
166.577
 20
2.06981
 30
0.0
 11
166.886
 21
1.92512
 31
0.0
  0
LINE
  8
0
 62
     1
 10
166.886
 20
1.92512
 30
0.0
 11
191.222
 21
54.1143
 31
0.0
  0
LINE
  8
0
 62
     1
 10
191.222
 20
54.1143
 30
0.0
 11
191.011
 21
54.2135
 31
0.0
  0
LINE
  8
0
 62
     1
 10
191.011
 20
54.2135
 30
0.0
 11
190.121
 21
54.9233
 31
0.0
  0
LINE
  8
0
 62
     1
 10
190.121
 20
54.9233
 30
0.0
 11
189.491
 21
55.8726
 31
0.0
  0
LINE
  8
0
 62
     1
 10
189.491
 20
55.8726
 30
0.0
 11
189.413
 21
56.0903
 31
0.0
  0
LINE
  8
0
 62
     1
 10
189.413
 20
56.0903
 30
0.0
 11
189.333
 21
56.3093
 31
0.0
  0
LINE
  8
0
 62
     1
 10
189.333
 20
56.3093
 30
0.0
 11
189.205
 21
57.4407
 31
0.0
  0
LINE
  8
0
 62
     1
 10
189.205
 20
57.4407
 30
0.0
 11
189.431
 21
58.5569
 31
0.0
  0
LINE
  8
0
 62
     1
 10
189.431
 20
58.5569
 30
0.0
 11
189.53
 21
58.7664
 31
0.0
  0
LINE
  8
0
 62
     1
 10
189.53
 20
58.7664
 30
0.0
 11
150.361
 21
77.0308
 31
0.0
  0
LINE
  8
0
 62
     1
 10
150.361
 20
77.0308
 30
0.0
 11
150.361
 21
146
 31
0.0
  0
LINE
  8
0
 62
     1
 10
150.361
 20
146
 30
0.0
 11
3.54983
 21
146
 31
0.0
  0
LINE
  8
0
 62
     1
 10
3.54983
 20
146
 30
0.0
 11
3.54983
 21
145.66
 31
0.0
  0
LINE
  8
0
 62
     1
 10
3.54983
 20
145.66
 30
0.0
 11
3.27422
 21
144.639
 31
0.0
  0
LINE
  8
0
 62
     1
 10
3.27422
 20
144.639
 30
0.0
 11
2.52457
 21
143.526
 31
0.0
  0
LINE
  8
0
 62
     1
 10
2.52457
 20
143.526
 30
0.0
 11
1.41111
 21
142.776
 31
0.0
  0
LINE
  8
0
 62
     1
 10
1.41111
 20
142.776
 30
0.0
 11
0.389985
 21
142.5
 31
0.0
  0
LINE
  8
0
 62
     1
 10
0.389985
 20
142.5
 30
0.0
 11
0.0496094
 21
142.5
 31
0.0
  0
LINE
  8
0
 62
     1
 10
155.761
 20
39.7235
 30
0.0
 11
157.155
 21
42.7136
 31
0.0
  0
LINE
  8
0
 62
     1
 10
157.155
 20
42.7136
 30
0.0
 11
144.468
 21
48.6311
 31
0.0
  0
LINE
  8
0
 62
     1
 10
144.468
 20
48.6311
 30
0.0
 11
143.074
 21
45.6392
 31
0.0
  0
LINE
  8
0
 62
     1
 10
143.074
 20
45.6392
 30
0.0
 11
155.761
 21
39.7235
 31
0.0
  0
LINE
  8
0
 62
     1
 10
146.578
 20
17.6623
 30
0.0
 11
147.972
 21
20.6527
 31
0.0
  0
LINE
  8
0
 62
     1
 10
147.972
 20
20.6527
 30
0.0
 11
133.471
 21
27.4147
 31
0.0
  0
LINE
  8
0
 62
     1
 10
133.471
 20
27.4147
 30
0.0
 11
132.077
 21
24.423
 31
0.0
  0
LINE
  8
0
 62
     1
 10
132.077
 20
24.423
 30
0.0
 11
146.578
 21
17.6623
 31
0.0
  0
LINE
  8
0
 62
     1
 10
138.497
 20
47.7739
 30
0.0
 11
139.892
 21
50.7654
 31
0.0
  0
LINE
  8
0
 62
     1
 10
139.892
 20
50.7654
 30
0.0
 11
127.202
 21
56.6815
 31
0.0
  0
LINE
  8
0
 62
     1
 10
127.202
 20
56.6815
 30
0.0
 11
125.808
 21
53.691
 31
0.0
  0
LINE
  8
0
 62
     1
 10
125.808
 20
53.691
 30
0.0
 11
138.497
 21
47.7739
 31
0.0
  0
LINE
  8
0
 62
     1
 10
129.312
 20
25.7128
 30
0.0
 11
130.707
 21
28.7032
 31
0.0
  0
LINE
  8
0
 62
     1
 10
130.707
 20
28.7032
 30
0.0
 11
116.206
 21
35.4651
 31
0.0
  0
LINE
  8
0
 62
     1
 10
116.206
 20
35.4651
 30
0.0
 11
114.811
 21
32.4749
 31
0.0
  0
LINE
  8
0
 62
     1
 10
114.811
 20
32.4749
 30
0.0
 11
129.312
 21
25.7128
 31
0.0
  0
LINE
  8
0
 62
     1
 10
11.0546
 20
134.958
 30
0.0
 11
25.0555
 21
134.958
 31
0.0
  0
LINE
  8
0
 62
     1
 10
25.0555
 20
134.958
 30
0.0
 11
25.0555
 21
120.957
 31
0.0
  0
LINE
  8
0
 62
     1
 10
25.0555
 20
120.957
 30
0.0
 11
11.0546
 21
120.957
 31
0.0
  0
LINE
  8
0
 62
     1
 10
11.0546
 20
120.957
 30
0.0
 11
11.0546
 21
134.958
 31
0.0
  0
LINE
  8
0
 62
     1
 10
34.8671
 20
134.958
 30
0.0
 11
48.8678
 21
134.958
 31
0.0
  0
LINE
  8
0
 62
     1
 10
48.8678
 20
134.958
 30
0.0
 11
48.8678
 21
120.957
 31
0.0
  0
LINE
  8
0
 62
     1
 10
48.8678
 20
120.957
 30
0.0
 11
34.8671
 21
120.957
 31
0.0
  0
LINE
  8
0
 62
     1
 10
34.8671
 20
120.957
 30
0.0
 11
34.8671
 21
134.958
 31
0.0
  0
LINE
  8
0
 62
     1
 10
53.9171
 20
138.158
 30
0.0
 11
67.9178
 21
138.158
 31
0.0
  0
LINE
  8
0
 62
     1
 10
67.9178
 20
138.158
 30
0.0
 11
67.9178
 21
124.157
 31
0.0
  0
LINE
  8
0
 62
     1
 10
67.9178
 20
124.157
 30
0.0
 11
53.9171
 21
124.157
 31
0.0
  0
LINE
  8
0
 62
     1
 10
53.9171
 20
124.157
 30
0.0
 11
53.9171
 21
138.158
 31
0.0
  0
LINE
  8
0
 62
     1
 10
72.9671
 20
139.758
 30
0.0
 11
86.9678
 21
139.758
 31
0.0
  0
LINE
  8
0
 62
     1
 10
86.9678
 20
139.758
 30
0.0
 11
86.9678
 21
125.757
 31
0.0
  0
LINE
  8
0
 62
     1
 10
86.9678
 20
125.757
 30
0.0
 11
72.9671
 21
125.757
 31
0.0
  0
LINE
  8
0
 62
     1
 10
72.9671
 20
125.757
 30
0.0
 11
72.9671
 21
139.758
 31
0.0
  0
LINE
  8
0
 62
     1
 10
92.0171
 20
138.158
 30
0.0
 11
106.018
 21
138.158
 31
0.0
  0
LINE
  8
0
 62
     1
 10
106.018
 20
138.158
 30
0.0
 11
106.018
 21
124.157
 31
0.0
  0
LINE
  8
0
 62
     1
 10
106.018
 20
124.157
 30
0.0
 11
92.0171
 21
124.157
 31
0.0
  0
LINE
  8
0
 62
     1
 10
92.0171
 20
124.157
 30
0.0
 11
92.0171
 21
138.158
 31
0.0
  0
LINE
  8
0
 62
     1
 10
111.067
 20
136.558
 30
0.0
 11
125.068
 21
136.558
 31
0.0
  0
LINE
  8
0
 62
     1
 10
125.068
 20
136.558
 30
0.0
 11
125.068
 21
122.557
 31
0.0
  0
LINE
  8
0
 62
     1
 10
125.068
 20
122.557
 30
0.0
 11
111.067
 21
122.557
 31
0.0
  0
LINE
  8
0
 62
     1
 10
111.067
 20
122.557
 30
0.0
 11
111.067
 21
136.558
 31
0.0
  0
LINE
  8
0
 62
     1
 10
130.117
 20
136.558
 30
0.0
 11
144.118
 21
136.558
 31
0.0
  0
LINE
  8
0
 62
     1
 10
144.118
 20
136.558
 30
0.0
 11
144.118
 21
122.557
 31
0.0
  0
LINE
  8
0
 62
     1
 10
144.118
 20
122.557
 30
0.0
 11
130.117
 21
122.557
 31
0.0
  0
LINE
  8
0
 62
     1
 10
130.117
 20
122.557
 30
0.0
 11
130.117
 21
136.558
 31
0.0
  0
LINE
  8
0
 62
     1
 10
11.0546
 20
115.908
 30
0.0
 11
25.0555
 21
115.908
 31
0.0
  0
LINE
  8
0
 62
     1
 10
25.0555
 20
115.908
 30
0.0
 11
25.0555
 21
101.907
 31
0.0
  0
LINE
  8
0
 62
     1
 10
25.0555
 20
101.907
 30
0.0
 11
11.0546
 21
101.907
 31
0.0
  0
LINE
  8
0
 62
     1
 10
11.0546
 20
101.907
 30
0.0
 11
11.0546
 21
115.908
 31
0.0
  0
LINE
  8
0
 62
     1
 10
34.8671
 20
115.908
 30
0.0
 11
48.8678
 21
115.908
 31
0.0
  0
LINE
  8
0
 62
     1
 10
48.8678
 20
115.908
 30
0.0
 11
48.8678
 21
101.907
 31
0.0
  0
LINE
  8
0
 62
     1
 10
48.8678
 20
101.907
 30
0.0
 11
34.8671
 21
101.907
 31
0.0
  0
LINE
  8
0
 62
     1
 10
34.8671
 20
101.907
 30
0.0
 11
34.8671
 21
115.908
 31
0.0
  0
LINE
  8
0
 62
     1
 10
53.9171
 20
119.108
 30
0.0
 11
67.9178
 21
119.108
 31
0.0
  0
LINE
  8
0
 62
     1
 10
67.9178
 20
119.108
 30
0.0
 11
67.9178
 21
105.107
 31
0.0
  0
LINE
  8
0
 62
     1
 10
67.9178
 20
105.107
 30
0.0
 11
53.9171
 21
105.107
 31
0.0
  0
LINE
  8
0
 62
     1
 10
53.9171
 20
105.107
 30
0.0
 11
53.9171
 21
119.108
 31
0.0
  0
LINE
  8
0
 62
     1
 10
72.9671
 20
120.708
 30
0.0
 11
86.9678
 21
120.708
 31
0.0
  0
LINE
  8
0
 62
     1
 10
86.9678
 20
120.708
 30
0.0
 11
86.9678
 21
106.707
 31
0.0
  0
LINE
  8
0
 62
     1
 10
86.9678
 20
106.707
 30
0.0
 11
72.9671
 21
106.707
 31
0.0
  0
LINE
  8
0
 62
     1
 10
72.9671
 20
106.707
 30
0.0
 11
72.9671
 21
120.708
 31
0.0
  0
LINE
  8
0
 62
     1
 10
92.0171
 20
119.108
 30
0.0
 11
106.018
 21
119.108
 31
0.0
  0
LINE
  8
0
 62
     1
 10
106.018
 20
119.108
 30
0.0
 11
106.018
 21
105.107
 31
0.0
  0
LINE
  8
0
 62
     1
 10
106.018
 20
105.107
 30
0.0
 11
92.0171
 21
105.107
 31
0.0
  0
LINE
  8
0
 62
     1
 10
92.0171
 20
105.107
 30
0.0
 11
92.0171
 21
119.108
 31
0.0
  0
LINE
  8
0
 62
     1
 10
111.067
 20
117.508
 30
0.0
 11
125.068
 21
117.508
 31
0.0
  0
LINE
  8
0
 62
     1
 10
125.068
 20
117.508
 30
0.0
 11
125.068
 21
103.507
 31
0.0
  0
LINE
  8
0
 62
     1
 10
125.068
 20
103.507
 30
0.0
 11
111.067
 21
103.507
 31
0.0
  0
LINE
  8
0
 62
     1
 10
111.067
 20
103.507
 30
0.0
 11
111.067
 21
117.508
 31
0.0
  0
LINE
  8
0
 62
     1
 10
130.117
 20
112.746
 30
0.0
 11
144.118
 21
112.746
 31
0.0
  0
LINE
  8
0
 62
     1
 10
144.118
 20
112.746
 30
0.0
 11
144.118
 21
98.7446
 31
0.0
  0
LINE
  8
0
 62
     1
 10
144.118
 20
98.7446
 30
0.0
 11
130.117
 21
98.7446
 31
0.0
  0
LINE
  8
0
 62
     1
 10
130.117
 20
98.7446
 30
0.0
 11
130.117
 21
112.746
 31
0.0
  0
LINE
  8
0
 62
     1
 10
11.0546
 20
96.8583
 30
0.0
 11
25.0555
 21
96.8583
 31
0.0
  0
LINE
  8
0
 62
     1
 10
25.0555
 20
96.8583
 30
0.0
 11
25.0555
 21
82.8573
 31
0.0
  0
LINE
  8
0
 62
     1
 10
25.0555
 20
82.8573
 30
0.0
 11
11.0546
 21
82.8573
 31
0.0
  0
LINE
  8
0
 62
     1
 10
11.0546
 20
82.8573
 30
0.0
 11
11.0546
 21
96.8583
 31
0.0
  0
LINE
  8
0
 62
     1
 10
34.8671
 20
96.8583
 30
0.0
 11
48.8678
 21
96.8583
 31
0.0
  0
LINE
  8
0
 62
     1
 10
48.8678
 20
96.8583
 30
0.0
 11
48.8678
 21
82.8573
 31
0.0
  0
LINE
  8
0
 62
     1
 10
48.8678
 20
82.8573
 30
0.0
 11
34.8671
 21
82.8573
 31
0.0
  0
LINE
  8
0
 62
     1
 10
34.8671
 20
82.8573
 30
0.0
 11
34.8671
 21
96.8583
 31
0.0
  0
LINE
  8
0
 62
     1
 10
53.9171
 20
100.058
 30
0.0
 11
67.9178
 21
100.058
 31
0.0
  0
LINE
  8
0
 62
     1
 10
67.9178
 20
100.058
 30
0.0
 11
67.9178
 21
86.057
 31
0.0
  0
LINE
  8
0
 62
     1
 10
67.9178
 20
86.057
 30
0.0
 11
53.9171
 21
86.057
 31
0.0
  0
LINE
  8
0
 62
     1
 10
53.9171
 20
86.057
 30
0.0
 11
53.9171
 21
100.058
 31
0.0
  0
LINE
  8
0
 62
     1
 10
72.9671
 20
101.658
 30
0.0
 11
86.9678
 21
101.658
 31
0.0
  0
LINE
  8
0
 62
     1
 10
86.9678
 20
101.658
 30
0.0
 11
86.9678
 21
87.6572
 31
0.0
  0
LINE
  8
0
 62
     1
 10
86.9678
 20
87.6572
 30
0.0
 11
72.9671
 21
87.6572
 31
0.0
  0
LINE
  8
0
 62
     1
 10
72.9671
 20
87.6572
 30
0.0
 11
72.9671
 21
101.658
 31
0.0
  0
LINE
  8
0
 62
     1
 10
92.0171
 20
100.058
 30
0.0
 11
106.018
 21
100.058
 31
0.0
  0
LINE
  8
0
 62
     1
 10
106.018
 20
100.058
 30
0.0
 11
106.018
 21
86.057
 31
0.0
  0
LINE
  8
0
 62
     1
 10
106.018
 20
86.057
 30
0.0
 11
92.0171
 21
86.057
 31
0.0
  0
LINE
  8
0
 62
     1
 10
92.0171
 20
86.057
 30
0.0
 11
92.0171
 21
100.058
 31
0.0
  0
LINE
  8
0
 62
     1
 10
111.067
 20
98.4582
 30
0.0
 11
125.068
 21
98.4582
 31
0.0
  0
LINE
  8
0
 62
     1
 10
125.068
 20
98.4582
 30
0.0
 11
125.068
 21
84.4571
 31
0.0
  0
LINE
  8
0
 62
     1
 10
125.068
 20
84.4571
 30
0.0
 11
111.067
 21
84.4571
 31
0.0
  0
LINE
  8
0
 62
     1
 10
111.067
 20
84.4571
 30
0.0
 11
111.067
 21
98.4582
 31
0.0
  0
LINE
  8
0
 62
     1
 10
11.0546
 20
77.8083
 30
0.0
 11
25.0555
 21
77.8083
 31
0.0
  0
LINE
  8
0
 62
     1
 10
25.0555
 20
77.8083
 30
0.0
 11
25.0555
 21
63.8073
 31
0.0
  0
LINE
  8
0
 62
     1
 10
25.0555
 20
63.8073
 30
0.0
 11
11.0546
 21
63.8073
 31
0.0
  0
LINE
  8
0
 62
     1
 10
11.0546
 20
63.8073
 30
0.0
 11
11.0546
 21
77.8083
 31
0.0
  0
LINE
  8
0
 62
     1
 10
34.8671
 20
77.8083
 30
0.0
 11
48.8678
 21
77.8083
 31
0.0
  0
LINE
  8
0
 62
     1
 10
48.8678
 20
77.8083
 30
0.0
 11
48.8678
 21
63.8073
 31
0.0
  0
LINE
  8
0
 62
     1
 10
48.8678
 20
63.8073
 30
0.0
 11
34.8671
 21
63.8073
 31
0.0
  0
LINE
  8
0
 62
     1
 10
34.8671
 20
63.8073
 30
0.0
 11
34.8671
 21
77.8083
 31
0.0
  0
LINE
  8
0
 62
     1
 10
53.9171
 20
81.008
 30
0.0
 11
67.9178
 21
81.008
 31
0.0
  0
LINE
  8
0
 62
     1
 10
67.9178
 20
81.008
 30
0.0
 11
67.9178
 21
67.007
 31
0.0
  0
LINE
  8
0
 62
     1
 10
67.9178
 20
67.007
 30
0.0
 11
53.9171
 21
67.007
 31
0.0
  0
LINE
  8
0
 62
     1
 10
53.9171
 20
67.007
 30
0.0
 11
53.9171
 21
81.008
 31
0.0
  0
LINE
  8
0
 62
     1
 10
72.9671
 20
82.6079
 30
0.0
 11
86.9678
 21
82.6079
 31
0.0
  0
LINE
  8
0
 62
     1
 10
86.9678
 20
82.6079
 30
0.0
 11
86.9678
 21
68.6072
 31
0.0
  0
LINE
  8
0
 62
     1
 10
86.9678
 20
68.6072
 30
0.0
 11
72.9671
 21
68.6072
 31
0.0
  0
LINE
  8
0
 62
     1
 10
72.9671
 20
68.6072
 30
0.0
 11
72.9671
 21
82.6079
 31
0.0
  0
LINE
  8
0
 62
     1
 10
92.0171
 20
81.008
 30
0.0
 11
106.018
 21
81.008
 31
0.0
  0
LINE
  8
0
 62
     1
 10
106.018
 20
81.008
 30
0.0
 11
106.018
 21
67.007
 31
0.0
  0
LINE
  8
0
 62
     1
 10
106.018
 20
67.007
 30
0.0
 11
92.0171
 21
67.007
 31
0.0
  0
LINE
  8
0
 62
     1
 10
92.0171
 20
67.007
 30
0.0
 11
92.0171
 21
81.008
 31
0.0
  0
LINE
  8
0
 62
     1
 10
111.067
 20
79.4082
 30
0.0
 11
125.068
 21
79.4082
 31
0.0
  0
LINE
  8
0
 62
     1
 10
125.068
 20
79.4082
 30
0.0
 11
125.068
 21
65.4071
 31
0.0
  0
LINE
  8
0
 62
     1
 10
125.068
 20
65.4071
 30
0.0
 11
111.067
 21
65.4071
 31
0.0
  0
LINE
  8
0
 62
     1
 10
111.067
 20
65.4071
 30
0.0
 11
111.067
 21
79.4082
 31
0.0
  0
LINE
  8
0
 62
     1
 10
130.117
 20
84.1707
 30
0.0
 11
144.118
 21
84.1707
 31
0.0
  0
LINE
  8
0
 62
     1
 10
144.118
 20
84.1707
 30
0.0
 11
144.118
 21
70.1696
 31
0.0
  0
LINE
  8
0
 62
     1
 10
144.118
 20
70.1696
 30
0.0
 11
130.117
 21
70.1696
 31
0.0
  0
LINE
  8
0
 62
     1
 10
130.117
 20
70.1696
 30
0.0
 11
130.117
 21
84.1707
 31
0.0
  0
LINE
  8
0
 62
     1
 10
15.8171
 20
58.7583
 30
0.0
 11
29.818
 21
58.7583
 31
0.0
  0
LINE
  8
0
 62
     1
 10
29.818
 20
58.7583
 30
0.0
 11
29.818
 21
44.7573
 31
0.0
  0
LINE
  8
0
 62
     1
 10
29.818
 20
44.7573
 30
0.0
 11
15.8171
 21
44.7573
 31
0.0
  0
LINE
  8
0
 62
     1
 10
15.8171
 20
44.7573
 30
0.0
 11
15.8171
 21
58.7583
 31
0.0
  0
LINE
  8
0
 62
     1
 10
34.8671
 20
58.7583
 30
0.0
 11
48.8678
 21
58.7583
 31
0.0
  0
LINE
  8
0
 62
     1
 10
48.8678
 20
58.7583
 30
0.0
 11
48.8678
 21
44.7573
 31
0.0
  0
LINE
  8
0
 62
     1
 10
48.8678
 20
44.7573
 30
0.0
 11
34.8671
 21
44.7573
 31
0.0
  0
LINE
  8
0
 62
     1
 10
34.8671
 20
44.7573
 30
0.0
 11
34.8671
 21
58.7583
 31
0.0
  0
LINE
  8
0
 62
     1
 10
53.9171
 20
61.958
 30
0.0
 11
67.9178
 21
61.958
 31
0.0
  0
LINE
  8
0
 62
     1
 10
67.9178
 20
61.958
 30
0.0
 11
67.9178
 21
47.957
 31
0.0
  0
LINE
  8
0
 62
     1
 10
67.9178
 20
47.957
 30
0.0
 11
53.9171
 21
47.957
 31
0.0
  0
LINE
  8
0
 62
     1
 10
53.9171
 20
47.957
 30
0.0
 11
53.9171
 21
61.958
 31
0.0
  0
LINE
  8
0
 62
     1
 10
72.9671
 20
63.5579
 30
0.0
 11
86.9678
 21
63.5579
 31
0.0
  0
LINE
  8
0
 62
     1
 10
86.9678
 20
63.5579
 30
0.0
 11
86.9678
 21
49.5572
 31
0.0
  0
LINE
  8
0
 62
     1
 10
86.9678
 20
49.5572
 30
0.0
 11
72.9671
 21
49.5572
 31
0.0
  0
LINE
  8
0
 62
     1
 10
72.9671
 20
49.5572
 30
0.0
 11
72.9671
 21
63.5579
 31
0.0
  0
LINE
  8
0
 62
     1
 10
92.0171
 20
61.958
 30
0.0
 11
106.018
 21
61.958
 31
0.0
  0
LINE
  8
0
 62
     1
 10
106.018
 20
61.958
 30
0.0
 11
106.018
 21
47.957
 31
0.0
  0
LINE
  8
0
 62
     1
 10
106.018
 20
47.957
 30
0.0
 11
92.0171
 21
47.957
 31
0.0
  0
LINE
  8
0
 62
     1
 10
92.0171
 20
47.957
 30
0.0
 11
92.0171
 21
61.958
 31
0.0
  0
LINE
  8
0
 62
     1
 10
168.304
 20
19.7376
 30
0.0
 11
155.616
 21
25.6536
 31
0.0
  0
LINE
  8
0
 62
     1
 10
155.616
 20
25.6536
 30
0.0
 11
149.699
 21
12.966
 31
0.0
  0
LINE
  8
0
 62
     1
 10
149.699
 20
12.966
 30
0.0
 11
162.388
 21
7.04868
 31
0.0
  0
LINE
  8
0
 62
     1
 10
162.388
 20
7.04868
 30
0.0
 11
168.304
 21
19.7376
 31
0.0
  0
LINE
  8
0
 62
     1
 10
176.354
 20
37.0018
 30
0.0
 11
163.667
 21
42.9189
 31
0.0
  0
LINE
  8
0
 62
     1
 10
163.667
 20
42.9189
 30
0.0
 11
157.75
 21
30.23
 31
0.0
  0
LINE
  8
0
 62
     1
 10
157.75
 20
30.23
 30
0.0
 11
170.439
 21
24.3141
 31
0.0
  0
LINE
  8
0
 62
     1
 10
170.439
 20
24.3141
 30
0.0
 11
176.354
 21
37.0018
 31
0.0
  0
LINE
  8
0
 62
     1
 10
155.065
 20
36.4201
 30
0.0
 11
142.376
 21
42.3376
 31
0.0
  0
LINE
  8
0
 62
     1
 10
142.376
 20
42.3376
 30
0.0
 11
136.459
 21
29.6485
 31
0.0
  0
LINE
  8
0
 62
     1
 10
136.459
 20
29.6485
 30
0.0
 11
149.148
 21
23.7326
 31
0.0
  0
LINE
  8
0
 62
     1
 10
149.148
 20
23.7326
 30
0.0
 11
155.065
 21
36.4201
 31
0.0
  0
LINE
  8
0
 62
     1
 10
137.8
 20
44.4708
 30
0.0
 11
125.111
 21
50.388
 31
0.0
  0
LINE
  8
0
 62
     1
 10
125.111
 20
50.388
 30
0.0
 11
119.195
 21
37.6989
 31
0.0
  0
LINE
  8
0
 62
     1
 10
119.195
 20
37.6989
 30
0.0
 11
131.882
 21
31.7831
 31
0.0
  0
LINE
  8
0
 62
     1
 10
131.882
 20
31.7831
 30
0.0
 11
137.8
 21
44.4708
 31
0.0
  0
LINE
  8
0
 62
     1
 10
184.406
 20
54.2671
 30
0.0
 11
171.717
 21
60.1846
 31
0.0
  0
LINE
  8
0
 62
     1
 10
171.717
 20
60.1846
 30
0.0
 11
165.801
 21
47.4955
 31
0.0
  0
LINE
  8
0
 62
     1
 10
165.801
 20
47.4955
 30
0.0
 11
178.489
 21
41.5794
 31
0.0
  0
LINE
  8
0
 62
     1
 10
178.489
 20
41.5794
 30
0.0
 11
184.406
 21
54.2671
 31
0.0
  0
LINE
  8
0
 62
     1
 10
167.141
 20
62.3175
 30
0.0
 11
154.452
 21
68.235
 31
0.0
  0
LINE
  8
0
 62
     1
 10
154.452
 20
68.235
 30
0.0
 11
148.536
 21
55.5459
 31
0.0
  0
LINE
  8
0
 62
     1
 10
148.536
 20
55.5459
 30
0.0
 11
161.224
 21
49.6302
 31
0.0
  0
LINE
  8
0
 62
     1
 10
161.224
 20
49.6302
 30
0.0
 11
167.141
 21
62.3175
 31
0.0
  0
ENDSEC
  0
EOF
