  0
SECTION
  2
HEADER
  9
$ACADVER
  1
AC1009
  9
$EXTMIN
 10
0.0
 20
0.0
 30
0.0
  9
$EXTMAX
 10
1000.0
 20
1000.0
 30
0.0
  9
$FILLMODE
 70
 0
  9
$SPLFRAME
 70
 1
  0
ENDSEC
  0
SECTION
  2
TABLES
  0
TABLE
  2
LAYER
 70
1
  0
LAYER
  2
0
 70
     0
 62
     7
  6
CONTINUOUS
  0
ENDTAB
  0
ENDSEC
  0
SECTION
  2
ENTITIES
  0
LINE
  8
0
 62
     1
 10
3.54983
 20
154.467
 30
0.0
 11
3.20807
 21
154.467
 31
0.0
  0
LINE
  8
0
 62
     1
 10
3.20807
 20
154.467
 30
0.0
 11
2.18695
 21
154.193
 31
0.0
  0
LINE
  8
0
 62
     1
 10
2.18695
 20
154.193
 30
0.0
 11
1.07349
 21
153.443
 31
0.0
  0
LINE
  8
0
 62
     1
 10
1.07349
 20
153.443
 30
0.0
 11
0.323839
 21
152.33
 31
0.0
  0
LINE
  8
0
 62
     1
 10
0.323839
 20
152.33
 30
0.0
 11
0.0496094
 21
151.309
 31
0.0
  0
LINE
  8
0
 62
     1
 10
0.0496094
 20
151.309
 30
0.0
 11
0.0496094
 21
150.967
 31
0.0
  0
LINE
  8
0
 62
     1
 10
0.0496094
 20
150.967
 30
0.0
 11
0.0496094
 21
43.4813
 31
0.0
  0
LINE
  8
0
 62
     1
 10
0.0496094
 20
43.4813
 30
0.0
 11
0.0496094
 21
43.1408
 31
0.0
  0
LINE
  8
0
 62
     1
 10
0.0496094
 20
43.1408
 30
0.0
 11
0.323839
 21
42.1199
 31
0.0
  0
LINE
  8
0
 62
     1
 10
0.323839
 20
42.1199
 30
0.0
 11
1.07349
 21
41.0076
 31
0.0
  0
LINE
  8
0
 62
     1
 10
1.07349
 20
41.0076
 30
0.0
 11
2.18695
 21
40.2579
 31
0.0
  0
LINE
  8
0
 62
     1
 10
2.18695
 20
40.2579
 30
0.0
 11
3.20807
 21
39.9824
 31
0.0
  0
LINE
  8
0
 62
     1
 10
3.20807
 20
39.9824
 30
0.0
 11
3.54983
 21
39.9824
 31
0.0
  0
LINE
  8
0
 62
     1
 10
3.54983
 20
39.9824
 30
0.0
 11
82.0843
 21
39.9824
 31
0.0
  0
LINE
  8
0
 62
     1
 10
82.0843
 20
39.9824
 30
0.0
 11
82.4537
 21
39.9824
 31
0.0
  0
LINE
  8
0
 62
     1
 10
82.4537
 20
39.9824
 30
0.0
 11
83.4485
 21
39.7083
 31
0.0
  0
LINE
  8
0
 62
     1
 10
83.4485
 20
39.7083
 30
0.0
 11
83.5642
 21
39.6543
 31
0.0
  0
LINE
  8
0
 62
     1
 10
83.5642
 20
39.6543
 30
0.0
 11
167.428
 21
0.547081
 31
0.0
  0
LINE
  8
0
 62
     1
 10
167.428
 20
0.547081
 30
0.0
 11
167.735
 21
0.403765
 31
0.0
  0
LINE
  8
0
 62
     1
 10
167.735
 20
0.403765
 30
0.0
 11
168.778
 21
0.220486
 31
0.0
  0
LINE
  8
0
 62
     1
 10
168.778
 20
0.220486
 30
0.0
 11
170.104
 21
0.431327
 31
0.0
  0
LINE
  8
0
 62
     1
 10
170.104
 20
0.431327
 30
0.0
 11
171.253
 21
1.12172
 31
0.0
  0
LINE
  8
0
 62
     1
 10
171.253
 20
1.12172
 30
0.0
 11
171.934
 21
1.93201
 31
0.0
  0
LINE
  8
0
 62
     1
 10
171.934
 20
1.93201
 30
0.0
 11
172.078
 21
2.24069
 31
0.0
  0
LINE
  8
0
 62
     1
 10
172.078
 20
2.24069
 30
0.0
 11
199.373
 21
60.7741
 31
0.0
  0
LINE
  8
0
 62
     1
 10
199.373
 20
60.7741
 30
0.0
 11
199.427
 21
60.8902
 31
0.0
  0
LINE
  8
0
 62
     1
 10
199.427
 20
60.8902
 30
0.0
 11
199.701
 21
61.9125
 31
0.0
  0
LINE
  8
0
 62
     1
 10
199.701
 20
61.9125
 30
0.0
 11
199.701
 21
62.2529
 31
0.0
  0
LINE
  8
0
 62
     1
 10
199.701
 20
62.2529
 30
0.0
 11
199.701
 21
150.967
 31
0.0
  0
LINE
  8
0
 62
     1
 10
199.701
 20
150.967
 30
0.0
 11
199.701
 21
151.309
 31
0.0
  0
LINE
  8
0
 62
     1
 10
199.701
 20
151.309
 30
0.0
 11
199.426
 21
152.33
 31
0.0
  0
LINE
  8
0
 62
     1
 10
199.426
 20
152.33
 30
0.0
 11
198.676
 21
153.443
 31
0.0
  0
LINE
  8
0
 62
     1
 10
198.676
 20
153.443
 30
0.0
 11
197.564
 21
154.193
 31
0.0
  0
LINE
  8
0
 62
     1
 10
197.564
 20
154.193
 30
0.0
 11
196.543
 21
154.467
 31
0.0
  0
LINE
  8
0
 62
     1
 10
196.543
 20
154.467
 30
0.0
 11
196.202
 21
154.467
 31
0.0
  0
LINE
  8
0
 62
     1
 10
196.202
 20
154.467
 30
0.0
 11
3.54983
 21
154.467
 31
0.0
  0
LINE
  8
0
 62
     1
 10
153.859
 20
81.9976
 30
0.0
 11
193.03
 21
63.7328
 31
0.0
  0
LINE
  8
0
 62
     1
 10
193.03
 20
63.7328
 30
0.0
 11
193.133
 21
63.9576
 31
0.0
  0
LINE
  8
0
 62
     1
 10
193.133
 20
63.9576
 30
0.0
 11
193.576
 21
64.5693
 31
0.0
  0
LINE
  8
0
 62
     1
 10
193.576
 20
64.5693
 30
0.0
 11
194.32
 21
65.206
 31
0.0
  0
LINE
  8
0
 62
     1
 10
194.32
 20
65.206
 30
0.0
 11
195.213
 21
65.611
 31
0.0
  0
LINE
  8
0
 62
     1
 10
195.213
 20
65.611
 30
0.0
 11
195.954
 21
65.7532
 31
0.0
  0
LINE
  8
0
 62
     1
 10
195.954
 20
65.7532
 30
0.0
 11
196.202
 21
65.7532
 31
0.0
  0
LINE
  8
0
 62
     1
 10
196.202
 20
65.7532
 30
0.0
 11
196.202
 21
147.467
 31
0.0
  0
LINE
  8
0
 62
     1
 10
196.202
 20
147.467
 30
0.0
 11
195.86
 21
147.467
 31
0.0
  0
LINE
  8
0
 62
     1
 10
195.86
 20
147.467
 30
0.0
 11
194.84
 21
147.742
 31
0.0
  0
LINE
  8
0
 62
     1
 10
194.84
 20
147.742
 30
0.0
 11
193.726
 21
148.492
 31
0.0
  0
LINE
  8
0
 62
     1
 10
193.726
 20
148.492
 30
0.0
 11
192.977
 21
149.605
 31
0.0
  0
LINE
  8
0
 62
     1
 10
192.977
 20
149.605
 30
0.0
 11
192.702
 21
150.627
 31
0.0
  0
LINE
  8
0
 62
     1
 10
192.702
 20
150.627
 30
0.0
 11
192.702
 21
150.967
 31
0.0
  0
LINE
  8
0
 62
     1
 10
192.702
 20
150.967
 30
0.0
 11
153.859
 21
150.967
 31
0.0
  0
LINE
  8
0
 62
     1
 10
153.859
 20
150.967
 30
0.0
 11
153.859
 21
81.9976
 31
0.0
  0
LINE
  8
0
 62
     1
 10
159.261
 20
44.6899
 30
0.0
 11
160.656
 21
47.68
 31
0.0
  0
LINE
  8
0
 62
     1
 10
160.656
 20
47.68
 30
0.0
 11
147.968
 21
53.5975
 31
0.0
  0
LINE
  8
0
 62
     1
 10
147.968
 20
53.5975
 30
0.0
 11
146.574
 21
50.607
 31
0.0
  0
LINE
  8
0
 62
     1
 10
146.574
 20
50.607
 30
0.0
 11
159.261
 21
44.6899
 31
0.0
  0
LINE
  8
0
 62
     1
 10
149.171
 20
23.0504
 30
0.0
 11
150.566
 21
26.0422
 31
0.0
  0
LINE
  8
0
 62
     1
 10
150.566
 20
26.0422
 30
0.0
 11
137.877
 21
31.9581
 31
0.0
  0
LINE
  8
0
 62
     1
 10
137.877
 20
31.9581
 30
0.0
 11
136.482
 21
28.9677
 31
0.0
  0
LINE
  8
0
 62
     1
 10
136.482
 20
28.9677
 30
0.0
 11
149.171
 21
23.0504
 31
0.0
  0
LINE
  8
0
 62
     1
 10
141.996
 20
52.7403
 30
0.0
 11
143.392
 21
55.7318
 31
0.0
  0
LINE
  8
0
 62
     1
 10
143.392
 20
55.7318
 30
0.0
 11
130.703
 21
61.6479
 31
0.0
  0
LINE
  8
0
 62
     1
 10
130.703
 20
61.6479
 30
0.0
 11
129.308
 21
58.6574
 31
0.0
  0
LINE
  8
0
 62
     1
 10
129.308
 20
58.6574
 30
0.0
 11
141.996
 21
52.7403
 31
0.0
  0
LINE
  8
0
 62
     1
 10
131.906
 20
31.1023
 30
0.0
 11
133.3
 21
34.0927
 31
0.0
  0
LINE
  8
0
 62
     1
 10
133.3
 20
34.0927
 30
0.0
 11
120.613
 21
40.0085
 31
0.0
  0
LINE
  8
0
 62
     1
 10
120.613
 20
40.0085
 30
0.0
 11
119.218
 21
37.0184
 31
0.0
  0
LINE
  8
0
 62
     1
 10
119.218
 20
37.0184
 30
0.0
 11
131.906
 21
31.1023
 31
0.0
  0
LINE
  8
0
 62
     1
 10
1.99953
 20
150.967
 30
0.0
 11
1.99953
 21
151.138
 31
0.0
  0
LINE
  8
0
 62
     1
 10
1.99953
 20
151.138
 30
0.0
 11
2.13183
 21
151.646
 31
0.0
  0
LINE
  8
0
 62
     1
 10
2.13183
 20
151.646
 30
0.0
 11
2.48322
 21
152.13
 31
0.0
  0
LINE
  8
0
 62
     1
 10
2.48322
 20
152.13
 30
0.0
 11
2.97932
 21
152.421
 31
0.0
  0
LINE
  8
0
 62
     1
 10
2.97932
 20
152.421
 30
0.0
 11
3.54983
 21
152.517
 31
0.0
  0
LINE
  8
0
 62
     1
 10
3.54983
 20
152.517
 30
0.0
 11
4.11896
 21
152.421
 31
0.0
  0
LINE
  8
0
 62
     1
 10
4.11896
 20
152.421
 30
0.0
 11
4.61504
 21
152.13
 31
0.0
  0
LINE
  8
0
 62
     1
 10
4.61504
 20
152.13
 30
0.0
 11
4.96644
 21
151.646
 31
0.0
  0
LINE
  8
0
 62
     1
 10
4.96644
 20
151.646
 30
0.0
 11
5.10011
 21
151.138
 31
0.0
  0
LINE
  8
0
 62
     1
 10
5.10011
 20
151.138
 30
0.0
 11
5.10011
 21
150.967
 31
0.0
  0
LINE
  8
0
 62
     1
 10
5.10011
 20
150.967
 30
0.0
 11
5.10011
 21
150.797
 31
0.0
  0
LINE
  8
0
 62
     1
 10
5.10011
 20
150.797
 30
0.0
 11
4.96644
 21
150.289
 31
0.0
  0
LINE
  8
0
 62
     1
 10
4.96644
 20
150.289
 30
0.0
 11
4.61504
 21
149.805
 31
0.0
  0
LINE
  8
0
 62
     1
 10
4.61504
 20
149.805
 30
0.0
 11
4.11896
 21
149.514
 31
0.0
  0
LINE
  8
0
 62
     1
 10
4.11896
 20
149.514
 30
0.0
 11
3.54983
 21
149.417
 31
0.0
  0
LINE
  8
0
 62
     1
 10
3.54983
 20
149.417
 30
0.0
 11
2.97932
 21
149.514
 31
0.0
  0
LINE
  8
0
 62
     1
 10
2.97932
 20
149.514
 30
0.0
 11
2.48322
 21
149.805
 31
0.0
  0
LINE
  8
0
 62
     1
 10
2.48322
 20
149.805
 30
0.0
 11
2.13183
 21
150.289
 31
0.0
  0
LINE
  8
0
 62
     1
 10
2.13183
 20
150.289
 30
0.0
 11
1.99953
 21
150.797
 31
0.0
  0
LINE
  8
0
 62
     1
 10
1.99953
 20
150.797
 30
0.0
 11
1.99953
 21
150.967
 31
0.0
  0
LINE
  8
0
 62
     1
 10
1.99953
 20
43.4813
 30
0.0
 11
1.99953
 21
43.652
 31
0.0
  0
LINE
  8
0
 62
     1
 10
1.99953
 20
43.652
 30
0.0
 11
2.13183
 21
44.1607
 31
0.0
  0
LINE
  8
0
 62
     1
 10
2.13183
 20
44.1607
 30
0.0
 11
2.48322
 21
44.6444
 31
0.0
  0
LINE
  8
0
 62
     1
 10
2.48322
 20
44.6444
 30
0.0
 11
2.97932
 21
44.9351
 31
0.0
  0
LINE
  8
0
 62
     1
 10
2.97932
 20
44.9351
 30
0.0
 11
3.54983
 21
45.0314
 31
0.0
  0
LINE
  8
0
 62
     1
 10
3.54983
 20
45.0314
 30
0.0
 11
4.11896
 21
44.9351
 31
0.0
  0
LINE
  8
0
 62
     1
 10
4.11896
 20
44.9351
 30
0.0
 11
4.61504
 21
44.6444
 31
0.0
  0
LINE
  8
0
 62
     1
 10
4.61504
 20
44.6444
 30
0.0
 11
4.96644
 21
44.1607
 31
0.0
  0
LINE
  8
0
 62
     1
 10
4.96644
 20
44.1607
 30
0.0
 11
5.10011
 21
43.652
 31
0.0
  0
LINE
  8
0
 62
     1
 10
5.10011
 20
43.652
 30
0.0
 11
5.10011
 21
43.4813
 31
0.0
  0
LINE
  8
0
 62
     1
 10
5.10011
 20
43.4813
 30
0.0
 11
5.10011
 21
43.313
 31
0.0
  0
LINE
  8
0
 62
     1
 10
5.10011
 20
43.313
 30
0.0
 11
4.96644
 21
42.8046
 31
0.0
  0
LINE
  8
0
 62
     1
 10
4.96644
 20
42.8046
 30
0.0
 11
4.61504
 21
42.3196
 31
0.0
  0
LINE
  8
0
 62
     1
 10
4.61504
 20
42.3196
 30
0.0
 11
4.11896
 21
42.0303
 31
0.0
  0
LINE
  8
0
 62
     1
 10
4.11896
 20
42.0303
 30
0.0
 11
3.54983
 21
41.9322
 31
0.0
  0
LINE
  8
0
 62
     1
 10
3.54983
 20
41.9322
 30
0.0
 11
2.97932
 21
42.0303
 31
0.0
  0
LINE
  8
0
 62
     1
 10
2.97932
 20
42.0303
 30
0.0
 11
2.48322
 21
42.3196
 31
0.0
  0
LINE
  8
0
 62
     1
 10
2.48322
 20
42.3196
 30
0.0
 11
2.13183
 21
42.8046
 31
0.0
  0
LINE
  8
0
 62
     1
 10
2.13183
 20
42.8046
 30
0.0
 11
1.99953
 21
43.313
 31
0.0
  0
LINE
  8
0
 62
     1
 10
1.99953
 20
43.313
 30
0.0
 11
1.99953
 21
43.4813
 31
0.0
  0
LINE
  8
0
 62
     1
 10
82.0872
 20
43.4813
 30
0.0
 11
82.0872
 21
43.652
 31
0.0
  0
LINE
  8
0
 62
     1
 10
82.0872
 20
43.652
 30
0.0
 11
82.2194
 21
44.1607
 31
0.0
  0
LINE
  8
0
 62
     1
 10
82.2194
 20
44.1607
 30
0.0
 11
82.5708
 21
44.6444
 31
0.0
  0
LINE
  8
0
 62
     1
 10
82.5708
 20
44.6444
 30
0.0
 11
83.0668
 21
44.9351
 31
0.0
  0
LINE
  8
0
 62
     1
 10
83.0668
 20
44.9351
 30
0.0
 11
83.6359
 21
45.0314
 31
0.0
  0
LINE
  8
0
 62
     1
 10
83.6359
 20
45.0314
 30
0.0
 11
84.2049
 21
44.9351
 31
0.0
  0
LINE
  8
0
 62
     1
 10
84.2049
 20
44.9351
 30
0.0
 11
84.7012
 21
44.6444
 31
0.0
  0
LINE
  8
0
 62
     1
 10
84.7012
 20
44.6444
 30
0.0
 11
85.0526
 21
44.1607
 31
0.0
  0
LINE
  8
0
 62
     1
 10
85.0526
 20
44.1607
 30
0.0
 11
85.1863
 21
43.652
 31
0.0
  0
LINE
  8
0
 62
     1
 10
85.1863
 20
43.652
 30
0.0
 11
85.1863
 21
43.4813
 31
0.0
  0
LINE
  8
0
 62
     1
 10
85.1863
 20
43.4813
 30
0.0
 11
85.1863
 21
43.313
 31
0.0
  0
LINE
  8
0
 62
     1
 10
85.1863
 20
43.313
 30
0.0
 11
85.0526
 21
42.8046
 31
0.0
  0
LINE
  8
0
 62
     1
 10
85.0526
 20
42.8046
 30
0.0
 11
84.7012
 21
42.3196
 31
0.0
  0
LINE
  8
0
 62
     1
 10
84.7012
 20
42.3196
 30
0.0
 11
84.2049
 21
42.0303
 31
0.0
  0
LINE
  8
0
 62
     1
 10
84.2049
 20
42.0303
 30
0.0
 11
83.6359
 21
41.9322
 31
0.0
  0
LINE
  8
0
 62
     1
 10
83.6359
 20
41.9322
 30
0.0
 11
83.0668
 21
42.0303
 31
0.0
  0
LINE
  8
0
 62
     1
 10
83.0668
 20
42.0303
 30
0.0
 11
82.5708
 21
42.3196
 31
0.0
  0
LINE
  8
0
 62
     1
 10
82.5708
 20
42.3196
 30
0.0
 11
82.2194
 21
42.8046
 31
0.0
  0
LINE
  8
0
 62
     1
 10
82.2194
 20
42.8046
 30
0.0
 11
82.0872
 21
43.313
 31
0.0
  0
LINE
  8
0
 62
     1
 10
82.0872
 20
43.313
 30
0.0
 11
82.0872
 21
43.4813
 31
0.0
  0
LINE
  8
0
 62
     1
 10
167.357
 20
3.71934
 30
0.0
 11
167.357
 21
3.89019
 31
0.0
  0
LINE
  8
0
 62
     1
 10
167.357
 20
3.89019
 30
0.0
 11
167.489
 21
4.39872
 31
0.0
  0
LINE
  8
0
 62
     1
 10
167.489
 20
4.39872
 30
0.0
 11
167.841
 21
4.88237
 31
0.0
  0
LINE
  8
0
 62
     1
 10
167.841
 20
4.88237
 30
0.0
 11
168.337
 21
5.17317
 31
0.0
  0
LINE
  8
0
 62
     1
 10
168.337
 20
5.17317
 30
0.0
 11
168.906
 21
5.26962
 31
0.0
  0
LINE
  8
0
 62
     1
 10
168.906
 20
5.26962
 30
0.0
 11
169.475
 21
5.17317
 31
0.0
  0
LINE
  8
0
 62
     1
 10
169.475
 20
5.17317
 30
0.0
 11
169.972
 21
4.88237
 31
0.0
  0
LINE
  8
0
 62
     1
 10
169.972
 20
4.88237
 30
0.0
 11
170.323
 21
4.39872
 31
0.0
  0
LINE
  8
0
 62
     1
 10
170.323
 20
4.39872
 30
0.0
 11
170.457
 21
3.89019
 31
0.0
  0
LINE
  8
0
 62
     1
 10
170.457
 20
3.89019
 30
0.0
 11
170.457
 21
3.71934
 31
0.0
  0
LINE
  8
0
 62
     1
 10
170.457
 20
3.71934
 30
0.0
 11
170.457
 21
3.54983
 31
0.0
  0
LINE
  8
0
 62
     1
 10
170.457
 20
3.54983
 30
0.0
 11
170.323
 21
3.04133
 31
0.0
  0
LINE
  8
0
 62
     1
 10
170.323
 20
3.04133
 30
0.0
 11
169.972
 21
2.55764
 31
0.0
  0
LINE
  8
0
 62
     1
 10
169.972
 20
2.55764
 30
0.0
 11
169.475
 21
2.26687
 31
0.0
  0
LINE
  8
0
 62
     1
 10
169.475
 20
2.26687
 30
0.0
 11
168.906
 21
2.16903
 31
0.0
  0
LINE
  8
0
 62
     1
 10
168.906
 20
2.16903
 30
0.0
 11
168.337
 21
2.26687
 31
0.0
  0
LINE
  8
0
 62
     1
 10
168.337
 20
2.26687
 30
0.0
 11
167.841
 21
2.55764
 31
0.0
  0
LINE
  8
0
 62
     1
 10
167.841
 20
2.55764
 30
0.0
 11
167.489
 21
3.04133
 31
0.0
  0
LINE
  8
0
 62
     1
 10
167.489
 20
3.04133
 30
0.0
 11
167.357
 21
3.54983
 31
0.0
  0
LINE
  8
0
 62
     1
 10
167.357
 20
3.54983
 30
0.0
 11
167.357
 21
3.71934
 31
0.0
  0
LINE
  8
0
 62
     1
 10
194.652
 20
62.2529
 30
0.0
 11
194.652
 21
62.4237
 31
0.0
  0
LINE
  8
0
 62
     1
 10
194.652
 20
62.4237
 30
0.0
 11
194.784
 21
62.9324
 31
0.0
  0
LINE
  8
0
 62
     1
 10
194.784
 20
62.9324
 30
0.0
 11
195.136
 21
63.416
 31
0.0
  0
LINE
  8
0
 62
     1
 10
195.136
 20
63.416
 30
0.0
 11
195.632
 21
63.7067
 31
0.0
  0
LINE
  8
0
 62
     1
 10
195.632
 20
63.7067
 30
0.0
 11
196.201
 21
63.803
 31
0.0
  0
LINE
  8
0
 62
     1
 10
196.201
 20
63.803
 30
0.0
 11
196.77
 21
63.7067
 31
0.0
  0
LINE
  8
0
 62
     1
 10
196.77
 20
63.7067
 30
0.0
 11
197.266
 21
63.416
 31
0.0
  0
LINE
  8
0
 62
     1
 10
197.266
 20
63.416
 30
0.0
 11
197.618
 21
62.9324
 31
0.0
  0
LINE
  8
0
 62
     1
 10
197.618
 20
62.9324
 30
0.0
 11
197.751
 21
62.4237
 31
0.0
  0
LINE
  8
0
 62
     1
 10
197.751
 20
62.4237
 30
0.0
 11
197.751
 21
62.2529
 31
0.0
  0
LINE
  8
0
 62
     1
 10
197.751
 20
62.2529
 30
0.0
 11
197.751
 21
62.0847
 31
0.0
  0
LINE
  8
0
 62
     1
 10
197.751
 20
62.0847
 30
0.0
 11
197.618
 21
61.5763
 31
0.0
  0
LINE
  8
0
 62
     1
 10
197.618
 20
61.5763
 30
0.0
 11
197.266
 21
61.0912
 31
0.0
  0
LINE
  8
0
 62
     1
 10
197.266
 20
61.0912
 30
0.0
 11
196.77
 21
60.802
 31
0.0
  0
LINE
  8
0
 62
     1
 10
196.77
 20
60.802
 30
0.0
 11
196.201
 21
60.7039
 31
0.0
  0
LINE
  8
0
 62
     1
 10
196.201
 20
60.7039
 30
0.0
 11
195.632
 21
60.802
 31
0.0
  0
LINE
  8
0
 62
     1
 10
195.632
 20
60.802
 30
0.0
 11
195.136
 21
61.0912
 31
0.0
  0
LINE
  8
0
 62
     1
 10
195.136
 20
61.0912
 30
0.0
 11
194.784
 21
61.5763
 31
0.0
  0
LINE
  8
0
 62
     1
 10
194.784
 20
61.5763
 30
0.0
 11
194.652
 21
62.0847
 31
0.0
  0
LINE
  8
0
 62
     1
 10
194.652
 20
62.0847
 30
0.0
 11
194.652
 21
62.2529
 31
0.0
  0
LINE
  8
0
 62
     1
 10
194.652
 20
150.967
 30
0.0
 11
194.652
 21
151.138
 31
0.0
  0
LINE
  8
0
 62
     1
 10
194.652
 20
151.138
 30
0.0
 11
194.784
 21
151.646
 31
0.0
  0
LINE
  8
0
 62
     1
 10
194.784
 20
151.646
 30
0.0
 11
195.136
 21
152.13
 31
0.0
  0
LINE
  8
0
 62
     1
 10
195.136
 20
152.13
 30
0.0
 11
195.632
 21
152.421
 31
0.0
  0
LINE
  8
0
 62
     1
 10
195.632
 20
152.421
 30
0.0
 11
196.201
 21
152.517
 31
0.0
  0
LINE
  8
0
 62
     1
 10
196.201
 20
152.517
 30
0.0
 11
196.77
 21
152.421
 31
0.0
  0
LINE
  8
0
 62
     1
 10
196.77
 20
152.421
 30
0.0
 11
197.266
 21
152.13
 31
0.0
  0
LINE
  8
0
 62
     1
 10
197.266
 20
152.13
 30
0.0
 11
197.618
 21
151.646
 31
0.0
  0
LINE
  8
0
 62
     1
 10
197.618
 20
151.646
 30
0.0
 11
197.751
 21
151.138
 31
0.0
  0
LINE
  8
0
 62
     1
 10
197.751
 20
151.138
 30
0.0
 11
197.751
 21
150.967
 31
0.0
  0
LINE
  8
0
 62
     1
 10
197.751
 20
150.967
 30
0.0
 11
197.751
 21
150.797
 31
0.0
  0
LINE
  8
0
 62
     1
 10
197.751
 20
150.797
 30
0.0
 11
197.618
 21
150.289
 31
0.0
  0
LINE
  8
0
 62
     1
 10
197.618
 20
150.289
 30
0.0
 11
197.266
 21
149.805
 31
0.0
  0
LINE
  8
0
 62
     1
 10
197.266
 20
149.805
 30
0.0
 11
196.77
 21
149.514
 31
0.0
  0
LINE
  8
0
 62
     1
 10
196.77
 20
149.514
 30
0.0
 11
196.201
 21
149.417
 31
0.0
  0
LINE
  8
0
 62
     1
 10
196.201
 20
149.417
 30
0.0
 11
195.632
 21
149.514
 31
0.0
  0
LINE
  8
0
 62
     1
 10
195.632
 20
149.514
 30
0.0
 11
195.136
 21
149.805
 31
0.0
  0
LINE
  8
0
 62
     1
 10
195.136
 20
149.805
 30
0.0
 11
194.784
 21
150.289
 31
0.0
  0
LINE
  8
0
 62
     1
 10
194.784
 20
150.289
 30
0.0
 11
194.652
 21
150.797
 31
0.0
  0
LINE
  8
0
 62
     1
 10
194.652
 20
150.797
 30
0.0
 11
194.652
 21
150.967
 31
0.0
  0
LINE
  8
0
 62
     1
 10
14.5548
 20
139.925
 30
0.0
 11
28.5543
 21
139.925
 31
0.0
  0
LINE
  8
0
 62
     1
 10
28.5543
 20
139.925
 30
0.0
 11
28.5543
 21
125.924
 31
0.0
  0
LINE
  8
0
 62
     1
 10
28.5543
 20
125.924
 30
0.0
 11
14.5548
 21
125.924
 31
0.0
  0
LINE
  8
0
 62
     1
 10
14.5548
 20
125.924
 30
0.0
 11
14.5548
 21
139.925
 31
0.0
  0
LINE
  8
0
 62
     1
 10
38.3674
 20
139.925
 30
0.0
 11
52.3667
 21
139.925
 31
0.0
  0
LINE
  8
0
 62
     1
 10
52.3667
 20
139.925
 30
0.0
 11
52.3667
 21
125.924
 31
0.0
  0
LINE
  8
0
 62
     1
 10
52.3667
 20
125.924
 30
0.0
 11
38.3674
 21
125.924
 31
0.0
  0
LINE
  8
0
 62
     1
 10
38.3674
 20
125.924
 30
0.0
 11
38.3674
 21
139.925
 31
0.0
  0
LINE
  8
0
 62
     1
 10
57.4174
 20
143.124
 30
0.0
 11
71.4167
 21
143.124
 31
0.0
  0
LINE
  8
0
 62
     1
 10
71.4167
 20
143.124
 30
0.0
 11
71.4167
 21
129.124
 31
0.0
  0
LINE
  8
0
 62
     1
 10
71.4167
 20
129.124
 30
0.0
 11
57.4174
 21
129.124
 31
0.0
  0
LINE
  8
0
 62
     1
 10
57.4174
 20
129.124
 30
0.0
 11
57.4174
 21
143.124
 31
0.0
  0
LINE
  8
0
 62
     1
 10
76.4674
 20
144.724
 30
0.0
 11
90.4667
 21
144.724
 31
0.0
  0
LINE
  8
0
 62
     1
 10
90.4667
 20
144.724
 30
0.0
 11
90.4667
 21
130.725
 31
0.0
  0
LINE
  8
0
 62
     1
 10
90.4667
 20
130.725
 30
0.0
 11
76.4674
 21
130.725
 31
0.0
  0
LINE
  8
0
 62
     1
 10
76.4674
 20
130.725
 30
0.0
 11
76.4674
 21
144.724
 31
0.0
  0
LINE
  8
0
 62
     1
 10
95.5174
 20
143.124
 30
0.0
 11
109.517
 21
143.124
 31
0.0
  0
LINE
  8
0
 62
     1
 10
109.517
 20
143.124
 30
0.0
 11
109.517
 21
129.124
 31
0.0
  0
LINE
  8
0
 62
     1
 10
109.517
 20
129.124
 30
0.0
 11
95.5174
 21
129.124
 31
0.0
  0
LINE
  8
0
 62
     1
 10
95.5174
 20
129.124
 30
0.0
 11
95.5174
 21
143.124
 31
0.0
  0
LINE
  8
0
 62
     1
 10
114.567
 20
141.525
 30
0.0
 11
128.567
 21
141.525
 31
0.0
  0
LINE
  8
0
 62
     1
 10
128.567
 20
141.525
 30
0.0
 11
128.567
 21
127.524
 31
0.0
  0
LINE
  8
0
 62
     1
 10
128.567
 20
127.524
 30
0.0
 11
114.567
 21
127.524
 31
0.0
  0
LINE
  8
0
 62
     1
 10
114.567
 20
127.524
 30
0.0
 11
114.567
 21
141.525
 31
0.0
  0
LINE
  8
0
 62
     1
 10
133.617
 20
141.525
 30
0.0
 11
147.617
 21
141.525
 31
0.0
  0
LINE
  8
0
 62
     1
 10
147.617
 20
141.525
 30
0.0
 11
147.617
 21
127.524
 31
0.0
  0
LINE
  8
0
 62
     1
 10
147.617
 20
127.524
 30
0.0
 11
133.617
 21
127.524
 31
0.0
  0
LINE
  8
0
 62
     1
 10
133.617
 20
127.524
 30
0.0
 11
133.617
 21
141.525
 31
0.0
  0
LINE
  8
0
 62
     1
 10
14.5548
 20
120.875
 30
0.0
 11
28.5543
 21
120.875
 31
0.0
  0
LINE
  8
0
 62
     1
 10
28.5543
 20
120.875
 30
0.0
 11
28.5543
 21
106.874
 31
0.0
  0
LINE
  8
0
 62
     1
 10
28.5543
 20
106.874
 30
0.0
 11
14.5548
 21
106.874
 31
0.0
  0
LINE
  8
0
 62
     1
 10
14.5548
 20
106.874
 30
0.0
 11
14.5548
 21
120.875
 31
0.0
  0
LINE
  8
0
 62
     1
 10
38.3674
 20
120.875
 30
0.0
 11
52.3667
 21
120.875
 31
0.0
  0
LINE
  8
0
 62
     1
 10
52.3667
 20
120.875
 30
0.0
 11
52.3667
 21
106.874
 31
0.0
  0
LINE
  8
0
 62
     1
 10
52.3667
 20
106.874
 30
0.0
 11
38.3674
 21
106.874
 31
0.0
  0
LINE
  8
0
 62
     1
 10
38.3674
 20
106.874
 30
0.0
 11
38.3674
 21
120.875
 31
0.0
  0
LINE
  8
0
 62
     1
 10
57.4174
 20
124.074
 30
0.0
 11
71.4167
 21
124.074
 31
0.0
  0
LINE
  8
0
 62
     1
 10
71.4167
 20
124.074
 30
0.0
 11
71.4167
 21
110.074
 31
0.0
  0
LINE
  8
0
 62
     1
 10
71.4167
 20
110.074
 30
0.0
 11
57.4174
 21
110.074
 31
0.0
  0
LINE
  8
0
 62
     1
 10
57.4174
 20
110.074
 30
0.0
 11
57.4174
 21
124.074
 31
0.0
  0
LINE
  8
0
 62
     1
 10
76.4674
 20
125.674
 30
0.0
 11
90.4667
 21
125.674
 31
0.0
  0
LINE
  8
0
 62
     1
 10
90.4667
 20
125.674
 30
0.0
 11
90.4667
 21
111.675
 31
0.0
  0
LINE
  8
0
 62
     1
 10
90.4667
 20
111.675
 30
0.0
 11
76.4674
 21
111.675
 31
0.0
  0
LINE
  8
0
 62
     1
 10
76.4674
 20
111.675
 30
0.0
 11
76.4674
 21
125.674
 31
0.0
  0
LINE
  8
0
 62
     1
 10
95.5174
 20
124.074
 30
0.0
 11
109.517
 21
124.074
 31
0.0
  0
LINE
  8
0
 62
     1
 10
109.517
 20
124.074
 30
0.0
 11
109.517
 21
110.074
 31
0.0
  0
LINE
  8
0
 62
     1
 10
109.517
 20
110.074
 30
0.0
 11
95.5174
 21
110.074
 31
0.0
  0
LINE
  8
0
 62
     1
 10
95.5174
 20
110.074
 30
0.0
 11
95.5174
 21
124.074
 31
0.0
  0
LINE
  8
0
 62
     1
 10
114.567
 20
122.475
 30
0.0
 11
128.567
 21
122.475
 31
0.0
  0
LINE
  8
0
 62
     1
 10
128.567
 20
122.475
 30
0.0
 11
128.567
 21
108.474
 31
0.0
  0
LINE
  8
0
 62
     1
 10
128.567
 20
108.474
 30
0.0
 11
114.567
 21
108.474
 31
0.0
  0
LINE
  8
0
 62
     1
 10
114.567
 20
108.474
 30
0.0
 11
114.567
 21
122.475
 31
0.0
  0
LINE
  8
0
 62
     1
 10
133.617
 20
117.712
 30
0.0
 11
147.617
 21
117.712
 31
0.0
  0
LINE
  8
0
 62
     1
 10
147.617
 20
117.712
 30
0.0
 11
147.617
 21
103.711
 31
0.0
  0
LINE
  8
0
 62
     1
 10
147.617
 20
103.711
 30
0.0
 11
133.617
 21
103.711
 31
0.0
  0
LINE
  8
0
 62
     1
 10
133.617
 20
103.711
 30
0.0
 11
133.617
 21
117.712
 31
0.0
  0
LINE
  8
0
 62
     1
 10
14.5548
 20
101.825
 30
0.0
 11
28.5543
 21
101.825
 31
0.0
  0
LINE
  8
0
 62
     1
 10
28.5543
 20
101.825
 30
0.0
 11
28.5543
 21
87.8237
 31
0.0
  0
LINE
  8
0
 62
     1
 10
28.5543
 20
87.8237
 30
0.0
 11
14.5548
 21
87.8237
 31
0.0
  0
LINE
  8
0
 62
     1
 10
14.5548
 20
87.8237
 30
0.0
 11
14.5548
 21
101.825
 31
0.0
  0
LINE
  8
0
 62
     1
 10
38.3674
 20
101.825
 30
0.0
 11
52.3667
 21
101.825
 31
0.0
  0
LINE
  8
0
 62
     1
 10
52.3667
 20
101.825
 30
0.0
 11
52.3667
 21
87.8237
 31
0.0
  0
LINE
  8
0
 62
     1
 10
52.3667
 20
87.8237
 30
0.0
 11
38.3674
 21
87.8237
 31
0.0
  0
LINE
  8
0
 62
     1
 10
38.3674
 20
87.8237
 30
0.0
 11
38.3674
 21
101.825
 31
0.0
  0
LINE
  8
0
 62
     1
 10
57.4174
 20
105.024
 30
0.0
 11
71.4167
 21
105.024
 31
0.0
  0
LINE
  8
0
 62
     1
 10
71.4167
 20
105.024
 30
0.0
 11
71.4167
 21
91.0237
 31
0.0
  0
LINE
  8
0
 62
     1
 10
71.4167
 20
91.0237
 30
0.0
 11
57.4174
 21
91.0237
 31
0.0
  0
LINE
  8
0
 62
     1
 10
57.4174
 20
91.0237
 30
0.0
 11
57.4174
 21
105.024
 31
0.0
  0
LINE
  8
0
 62
     1
 10
76.4674
 20
106.624
 30
0.0
 11
90.4667
 21
106.624
 31
0.0
  0
LINE
  8
0
 62
     1
 10
90.4667
 20
106.624
 30
0.0
 11
90.4667
 21
92.625
 31
0.0
  0
LINE
  8
0
 62
     1
 10
90.4667
 20
92.625
 30
0.0
 11
76.4674
 21
92.625
 31
0.0
  0
LINE
  8
0
 62
     1
 10
76.4674
 20
92.625
 30
0.0
 11
76.4674
 21
106.624
 31
0.0
  0
LINE
  8
0
 62
     1
 10
95.5174
 20
105.024
 30
0.0
 11
109.517
 21
105.024
 31
0.0
  0
LINE
  8
0
 62
     1
 10
109.517
 20
105.024
 30
0.0
 11
109.517
 21
91.0237
 31
0.0
  0
LINE
  8
0
 62
     1
 10
109.517
 20
91.0237
 30
0.0
 11
95.5174
 21
91.0237
 31
0.0
  0
LINE
  8
0
 62
     1
 10
95.5174
 20
91.0237
 30
0.0
 11
95.5174
 21
105.024
 31
0.0
  0
LINE
  8
0
 62
     1
 10
114.567
 20
103.425
 30
0.0
 11
128.567
 21
103.425
 31
0.0
  0
LINE
  8
0
 62
     1
 10
128.567
 20
103.425
 30
0.0
 11
128.567
 21
89.4235
 31
0.0
  0
LINE
  8
0
 62
     1
 10
128.567
 20
89.4235
 30
0.0
 11
114.567
 21
89.4235
 31
0.0
  0
LINE
  8
0
 62
     1
 10
114.567
 20
89.4235
 30
0.0
 11
114.567
 21
103.425
 31
0.0
  0
LINE
  8
0
 62
     1
 10
14.5548
 20
82.7747
 30
0.0
 11
28.5543
 21
82.7747
 31
0.0
  0
LINE
  8
0
 62
     1
 10
28.5543
 20
82.7747
 30
0.0
 11
28.5543
 21
68.7737
 31
0.0
  0
LINE
  8
0
 62
     1
 10
28.5543
 20
68.7737
 30
0.0
 11
14.5548
 21
68.7737
 31
0.0
  0
LINE
  8
0
 62
     1
 10
14.5548
 20
68.7737
 30
0.0
 11
14.5548
 21
82.7747
 31
0.0
  0
LINE
  8
0
 62
     1
 10
38.3674
 20
82.7747
 30
0.0
 11
52.3667
 21
82.7747
 31
0.0
  0
LINE
  8
0
 62
     1
 10
52.3667
 20
82.7747
 30
0.0
 11
52.3667
 21
68.7737
 31
0.0
  0
LINE
  8
0
 62
     1
 10
52.3667
 20
68.7737
 30
0.0
 11
38.3674
 21
68.7737
 31
0.0
  0
LINE
  8
0
 62
     1
 10
38.3674
 20
68.7737
 30
0.0
 11
38.3674
 21
82.7747
 31
0.0
  0
LINE
  8
0
 62
     1
 10
57.4174
 20
85.9744
 30
0.0
 11
71.4167
 21
85.9744
 31
0.0
  0
LINE
  8
0
 62
     1
 10
71.4167
 20
85.9744
 30
0.0
 11
71.4167
 21
71.9737
 31
0.0
  0
LINE
  8
0
 62
     1
 10
71.4167
 20
71.9737
 30
0.0
 11
57.4174
 21
71.9737
 31
0.0
  0
LINE
  8
0
 62
     1
 10
57.4174
 20
71.9737
 30
0.0
 11
57.4174
 21
85.9744
 31
0.0
  0
LINE
  8
0
 62
     1
 10
76.4674
 20
87.5743
 30
0.0
 11
90.4667
 21
87.5743
 31
0.0
  0
LINE
  8
0
 62
     1
 10
90.4667
 20
87.5743
 30
0.0
 11
90.4667
 21
73.575
 31
0.0
  0
LINE
  8
0
 62
     1
 10
90.4667
 20
73.575
 30
0.0
 11
76.4674
 21
73.575
 31
0.0
  0
LINE
  8
0
 62
     1
 10
76.4674
 20
73.575
 30
0.0
 11
76.4674
 21
87.5743
 31
0.0
  0
LINE
  8
0
 62
     1
 10
95.5174
 20
85.9744
 30
0.0
 11
109.517
 21
85.9744
 31
0.0
  0
LINE
  8
0
 62
     1
 10
109.517
 20
85.9744
 30
0.0
 11
109.517
 21
71.9737
 31
0.0
  0
LINE
  8
0
 62
     1
 10
109.517
 20
71.9737
 30
0.0
 11
95.5174
 21
71.9737
 31
0.0
  0
LINE
  8
0
 62
     1
 10
95.5174
 20
71.9737
 30
0.0
 11
95.5174
 21
85.9744
 31
0.0
  0
LINE
  8
0
 62
     1
 10
114.567
 20
84.3746
 30
0.0
 11
128.567
 21
84.3746
 31
0.0
  0
LINE
  8
0
 62
     1
 10
128.567
 20
84.3746
 30
0.0
 11
128.567
 21
70.3735
 31
0.0
  0
LINE
  8
0
 62
     1
 10
128.567
 20
70.3735
 30
0.0
 11
114.567
 21
70.3735
 31
0.0
  0
LINE
  8
0
 62
     1
 10
114.567
 20
70.3735
 30
0.0
 11
114.567
 21
84.3746
 31
0.0
  0
LINE
  8
0
 62
     1
 10
133.617
 20
89.1371
 30
0.0
 11
147.617
 21
89.1371
 31
0.0
  0
LINE
  8
0
 62
     1
 10
147.617
 20
89.1371
 30
0.0
 11
147.617
 21
75.136
 31
0.0
  0
LINE
  8
0
 62
     1
 10
147.617
 20
75.136
 30
0.0
 11
133.617
 21
75.136
 31
0.0
  0
LINE
  8
0
 62
     1
 10
133.617
 20
75.136
 30
0.0
 11
133.617
 21
89.1371
 31
0.0
  0
LINE
  8
0
 62
     1
 10
19.3173
 20
63.7247
 30
0.0
 11
33.3168
 21
63.7247
 31
0.0
  0
LINE
  8
0
 62
     1
 10
33.3168
 20
63.7247
 30
0.0
 11
33.3168
 21
49.7237
 31
0.0
  0
LINE
  8
0
 62
     1
 10
33.3168
 20
49.7237
 30
0.0
 11
19.3173
 21
49.7237
 31
0.0
  0
LINE
  8
0
 62
     1
 10
19.3173
 20
49.7237
 30
0.0
 11
19.3173
 21
63.7247
 31
0.0
  0
LINE
  8
0
 62
     1
 10
38.3674
 20
63.7247
 30
0.0
 11
52.3667
 21
63.7247
 31
0.0
  0
LINE
  8
0
 62
     1
 10
52.3667
 20
63.7247
 30
0.0
 11
52.3667
 21
49.7237
 31
0.0
  0
LINE
  8
0
 62
     1
 10
52.3667
 20
49.7237
 30
0.0
 11
38.3674
 21
49.7237
 31
0.0
  0
LINE
  8
0
 62
     1
 10
38.3674
 20
49.7237
 30
0.0
 11
38.3674
 21
63.7247
 31
0.0
  0
LINE
  8
0
 62
     1
 10
57.4174
 20
66.9244
 30
0.0
 11
71.4167
 21
66.9244
 31
0.0
  0
LINE
  8
0
 62
     1
 10
71.4167
 20
66.9244
 30
0.0
 11
71.4167
 21
52.9237
 31
0.0
  0
LINE
  8
0
 62
     1
 10
71.4167
 20
52.9237
 30
0.0
 11
57.4174
 21
52.9237
 31
0.0
  0
LINE
  8
0
 62
     1
 10
57.4174
 20
52.9237
 30
0.0
 11
57.4174
 21
66.9244
 31
0.0
  0
LINE
  8
0
 62
     1
 10
76.4674
 20
68.5243
 30
0.0
 11
90.4667
 21
68.5243
 31
0.0
  0
LINE
  8
0
 62
     1
 10
90.4667
 20
68.5243
 30
0.0
 11
90.4667
 21
54.525
 31
0.0
  0
LINE
  8
0
 62
     1
 10
90.4667
 20
54.525
 30
0.0
 11
76.4674
 21
54.525
 31
0.0
  0
LINE
  8
0
 62
     1
 10
76.4674
 20
54.525
 30
0.0
 11
76.4674
 21
68.5243
 31
0.0
  0
LINE
  8
0
 62
     1
 10
95.5174
 20
66.9244
 30
0.0
 11
109.517
 21
66.9244
 31
0.0
  0
LINE
  8
0
 62
     1
 10
109.517
 20
66.9244
 30
0.0
 11
109.517
 21
52.9237
 31
0.0
  0
LINE
  8
0
 62
     1
 10
109.517
 20
52.9237
 30
0.0
 11
95.5174
 21
52.9237
 31
0.0
  0
LINE
  8
0
 62
     1
 10
95.5174
 20
52.9237
 30
0.0
 11
95.5174
 21
66.9244
 31
0.0
  0
LINE
  8
0
 62
     1
 10
171.804
 20
24.7041
 30
0.0
 11
159.117
 21
30.62
 31
0.0
  0
LINE
  8
0
 62
     1
 10
159.117
 20
30.62
 30
0.0
 11
153.199
 21
17.9324
 31
0.0
  0
LINE
  8
0
 62
     1
 10
153.199
 20
17.9324
 30
0.0
 11
165.887
 21
12.0151
 31
0.0
  0
LINE
  8
0
 62
     1
 10
165.887
 20
12.0151
 30
0.0
 11
171.804
 21
24.7041
 31
0.0
  0
LINE
  8
0
 62
     1
 10
179.855
 20
41.9682
 30
0.0
 11
167.167
 21
47.8854
 31
0.0
  0
LINE
  8
0
 62
     1
 10
167.167
 20
47.8854
 30
0.0
 11
161.25
 21
35.1965
 31
0.0
  0
LINE
  8
0
 62
     1
 10
161.25
 20
35.1965
 30
0.0
 11
173.939
 21
29.2806
 31
0.0
  0
LINE
  8
0
 62
     1
 10
173.939
 20
29.2806
 30
0.0
 11
179.855
 21
41.9682
 31
0.0
  0
LINE
  8
0
 62
     1
 10
158.564
 20
41.3865
 30
0.0
 11
145.876
 21
47.304
 31
0.0
  0
LINE
  8
0
 62
     1
 10
145.876
 20
47.304
 30
0.0
 11
139.959
 21
34.6149
 31
0.0
  0
LINE
  8
0
 62
     1
 10
139.959
 20
34.6149
 30
0.0
 11
152.648
 21
28.699
 31
0.0
  0
LINE
  8
0
 62
     1
 10
152.648
 20
28.699
 30
0.0
 11
158.564
 21
41.3865
 31
0.0
  0
LINE
  8
0
 62
     1
 10
141.3
 20
49.4386
 30
0.0
 11
128.611
 21
55.3544
 31
0.0
  0
LINE
  8
0
 62
     1
 10
128.611
 20
55.3544
 30
0.0
 11
122.695
 21
42.6667
 31
0.0
  0
LINE
  8
0
 62
     1
 10
122.695
 20
42.6667
 30
0.0
 11
135.383
 21
36.7496
 31
0.0
  0
LINE
  8
0
 62
     1
 10
135.383
 20
36.7496
 30
0.0
 11
141.3
 21
49.4386
 31
0.0
  0
LINE
  8
0
 62
     1
 10
187.906
 20
59.2335
 30
0.0
 11
175.218
 21
65.151
 31
0.0
  0
LINE
  8
0
 62
     1
 10
175.218
 20
65.151
 30
0.0
 11
169.302
 21
52.4619
 31
0.0
  0
LINE
  8
0
 62
     1
 10
169.302
 20
52.4619
 30
0.0
 11
181.989
 21
46.5459
 31
0.0
  0
LINE
  8
0
 62
     1
 10
181.989
 20
46.5459
 30
0.0
 11
187.906
 21
59.2335
 31
0.0
  0
LINE
  8
0
 62
     1
 10
170.641
 20
67.2853
 30
0.0
 11
157.952
 21
73.2014
 31
0.0
  0
LINE
  8
0
 62
     1
 10
157.952
 20
73.2014
 30
0.0
 11
152.036
 21
60.5137
 31
0.0
  0
LINE
  8
0
 62
     1
 10
152.036
 20
60.5137
 30
0.0
 11
164.724
 21
54.5966
 31
0.0
  0
LINE
  8
0
 62
     1
 10
164.724
 20
54.5966
 30
0.0
 11
170.641
 21
67.2853
 31
0.0
  0
ENDSEC
  0
EOF
