  0
SECTION
  2
HEADER
  9
$ACADVER
  1
AC1009
  9
$EXTMIN
 10
0.0
 20
0.0
 30
0.0
  9
$EXTMAX
 10
1000.0
 20
1000.0
 30
0.0
  9
$FILLMODE
 70
 0
  9
$SPLFRAME
 70
 1
  0
ENDSEC
  0
SECTION
  2
TABLES
  0
TABLE
  2
LAYER
 70
1
  0
LAYER
  2
0
 70
     0
 62
     7
  6
CONTINUOUS
  0
ENDTAB
  0
ENDSEC
  0
SECTION
  2
ENTITIES
  0
LINE
  8
0
 62
     1
 10
3.54983
 20
154.467
 30
0.0
 11
3.20807
 21
154.467
 31
0.0
  0
LINE
  8
0
 62
     1
 10
3.20807
 20
154.467
 30
0.0
 11
2.18695
 21
154.193
 31
0.0
  0
LINE
  8
0
 62
     1
 10
2.18695
 20
154.193
 30
0.0
 11
1.07349
 21
153.443
 31
0.0
  0
LINE
  8
0
 62
     1
 10
1.07349
 20
153.443
 30
0.0
 11
0.323839
 21
152.33
 31
0.0
  0
LINE
  8
0
 62
     1
 10
0.323839
 20
152.33
 30
0.0
 11
0.0496094
 21
151.309
 31
0.0
  0
LINE
  8
0
 62
     1
 10
0.0496094
 20
151.309
 30
0.0
 11
0.0496094
 21
150.967
 31
0.0
  0
LINE
  8
0
 62
     1
 10
0.0496094
 20
150.967
 30
0.0
 11
0.0496094
 21
43.4813
 31
0.0
  0
LINE
  8
0
 62
     1
 10
0.0496094
 20
43.4813
 30
0.0
 11
0.0496094
 21
43.1408
 31
0.0
  0
LINE
  8
0
 62
     1
 10
0.0496094
 20
43.1408
 30
0.0
 11
0.323839
 21
42.1199
 31
0.0
  0
LINE
  8
0
 62
     1
 10
0.323839
 20
42.1199
 30
0.0
 11
1.07349
 21
41.0076
 31
0.0
  0
LINE
  8
0
 62
     1
 10
1.07349
 20
41.0076
 30
0.0
 11
2.18695
 21
40.2579
 31
0.0
  0
LINE
  8
0
 62
     1
 10
2.18695
 20
40.2579
 30
0.0
 11
3.20807
 21
39.9824
 31
0.0
  0
LINE
  8
0
 62
     1
 10
3.20807
 20
39.9824
 30
0.0
 11
3.54983
 21
39.9824
 31
0.0
  0
LINE
  8
0
 62
     1
 10
3.54983
 20
39.9824
 30
0.0
 11
82.0843
 21
39.9824
 31
0.0
  0
LINE
  8
0
 62
     1
 10
82.0843
 20
39.9824
 30
0.0
 11
82.4537
 21
39.9824
 31
0.0
  0
LINE
  8
0
 62
     1
 10
82.4537
 20
39.9824
 30
0.0
 11
83.4485
 21
39.7083
 31
0.0
  0
LINE
  8
0
 62
     1
 10
83.4485
 20
39.7083
 30
0.0
 11
83.5642
 21
39.6543
 31
0.0
  0
LINE
  8
0
 62
     1
 10
83.5642
 20
39.6543
 30
0.0
 11
167.428
 21
0.547081
 31
0.0
  0
LINE
  8
0
 62
     1
 10
167.428
 20
0.547081
 30
0.0
 11
167.735
 21
0.403765
 31
0.0
  0
LINE
  8
0
 62
     1
 10
167.735
 20
0.403765
 30
0.0
 11
168.778
 21
0.220486
 31
0.0
  0
LINE
  8
0
 62
     1
 10
168.778
 20
0.220486
 30
0.0
 11
170.104
 21
0.431327
 31
0.0
  0
LINE
  8
0
 62
     1
 10
170.104
 20
0.431327
 30
0.0
 11
171.253
 21
1.12172
 31
0.0
  0
LINE
  8
0
 62
     1
 10
171.253
 20
1.12172
 30
0.0
 11
171.934
 21
1.93201
 31
0.0
  0
LINE
  8
0
 62
     1
 10
171.934
 20
1.93201
 30
0.0
 11
172.078
 21
2.24069
 31
0.0
  0
LINE
  8
0
 62
     1
 10
172.078
 20
2.24069
 30
0.0
 11
199.373
 21
60.7741
 31
0.0
  0
LINE
  8
0
 62
     1
 10
199.373
 20
60.7741
 30
0.0
 11
199.427
 21
60.8902
 31
0.0
  0
LINE
  8
0
 62
     1
 10
199.427
 20
60.8902
 30
0.0
 11
199.701
 21
61.9125
 31
0.0
  0
LINE
  8
0
 62
     1
 10
199.701
 20
61.9125
 30
0.0
 11
199.701
 21
62.2529
 31
0.0
  0
LINE
  8
0
 62
     1
 10
199.701
 20
62.2529
 30
0.0
 11
199.701
 21
150.967
 31
0.0
  0
LINE
  8
0
 62
     1
 10
199.701
 20
150.967
 30
0.0
 11
199.701
 21
151.309
 31
0.0
  0
LINE
  8
0
 62
     1
 10
199.701
 20
151.309
 30
0.0
 11
199.426
 21
152.33
 31
0.0
  0
LINE
  8
0
 62
     1
 10
199.426
 20
152.33
 30
0.0
 11
198.676
 21
153.443
 31
0.0
  0
LINE
  8
0
 62
     1
 10
198.676
 20
153.443
 30
0.0
 11
197.564
 21
154.193
 31
0.0
  0
LINE
  8
0
 62
     1
 10
197.564
 20
154.193
 30
0.0
 11
196.543
 21
154.467
 31
0.0
  0
LINE
  8
0
 62
     1
 10
196.543
 20
154.467
 30
0.0
 11
196.202
 21
154.467
 31
0.0
  0
LINE
  8
0
 62
     1
 10
196.202
 20
154.467
 30
0.0
 11
3.54983
 21
154.467
 31
0.0
  0
LINE
  8
0
 62
     1
 10
153.859
 20
81.9976
 30
0.0
 11
193.03
 21
63.7328
 31
0.0
  0
LINE
  8
0
 62
     1
 10
193.03
 20
63.7328
 30
0.0
 11
193.133
 21
63.9576
 31
0.0
  0
LINE
  8
0
 62
     1
 10
193.133
 20
63.9576
 30
0.0
 11
193.576
 21
64.5693
 31
0.0
  0
LINE
  8
0
 62
     1
 10
193.576
 20
64.5693
 30
0.0
 11
194.32
 21
65.206
 31
0.0
  0
LINE
  8
0
 62
     1
 10
194.32
 20
65.206
 30
0.0
 11
195.213
 21
65.611
 31
0.0
  0
LINE
  8
0
 62
     1
 10
195.213
 20
65.611
 30
0.0
 11
195.954
 21
65.7532
 31
0.0
  0
LINE
  8
0
 62
     1
 10
195.954
 20
65.7532
 30
0.0
 11
196.202
 21
65.7532
 31
0.0
  0
LINE
  8
0
 62
     1
 10
196.202
 20
65.7532
 30
0.0
 11
196.202
 21
147.467
 31
0.0
  0
LINE
  8
0
 62
     1
 10
196.202
 20
147.467
 30
0.0
 11
195.86
 21
147.467
 31
0.0
  0
LINE
  8
0
 62
     1
 10
195.86
 20
147.467
 30
0.0
 11
194.84
 21
147.742
 31
0.0
  0
LINE
  8
0
 62
     1
 10
194.84
 20
147.742
 30
0.0
 11
193.726
 21
148.492
 31
0.0
  0
LINE
  8
0
 62
     1
 10
193.726
 20
148.492
 30
0.0
 11
192.977
 21
149.605
 31
0.0
  0
LINE
  8
0
 62
     1
 10
192.977
 20
149.605
 30
0.0
 11
192.702
 21
150.627
 31
0.0
  0
LINE
  8
0
 62
     1
 10
192.702
 20
150.627
 30
0.0
 11
192.702
 21
150.967
 31
0.0
  0
LINE
  8
0
 62
     1
 10
192.702
 20
150.967
 30
0.0
 11
153.859
 21
150.967
 31
0.0
  0
LINE
  8
0
 62
     1
 10
153.859
 20
150.967
 30
0.0
 11
153.859
 21
81.9976
 31
0.0
  0
LINE
  8
0
 62
     1
 10
160.168
 20
44.2666
 30
0.0
 11
161.563
 21
47.2585
 31
0.0
  0
LINE
  8
0
 62
     1
 10
161.563
 20
47.2585
 30
0.0
 11
147.061
 21
54.0205
 31
0.0
  0
LINE
  8
0
 62
     1
 10
147.061
 20
54.0205
 30
0.0
 11
145.667
 21
51.0286
 31
0.0
  0
LINE
  8
0
 62
     1
 10
145.667
 20
51.0286
 30
0.0
 11
160.168
 21
44.2666
 31
0.0
  0
LINE
  8
0
 62
     1
 10
150.078
 20
22.6288
 30
0.0
 11
151.473
 21
25.6191
 31
0.0
  0
LINE
  8
0
 62
     1
 10
151.473
 20
25.6191
 30
0.0
 11
136.972
 21
32.3812
 31
0.0
  0
LINE
  8
0
 62
     1
 10
136.972
 20
32.3812
 30
0.0
 11
135.577
 21
29.3908
 31
0.0
  0
LINE
  8
0
 62
     1
 10
135.577
 20
29.3908
 30
0.0
 11
150.078
 21
22.6288
 31
0.0
  0
LINE
  8
0
 62
     1
 10
142.903
 20
52.3187
 30
0.0
 11
144.297
 21
55.3089
 31
0.0
  0
LINE
  8
0
 62
     1
 10
144.297
 20
55.3089
 30
0.0
 11
129.796
 21
62.0709
 31
0.0
  0
LINE
  8
0
 62
     1
 10
129.796
 20
62.0709
 30
0.0
 11
128.402
 21
59.0808
 31
0.0
  0
LINE
  8
0
 62
     1
 10
128.402
 20
59.0808
 30
0.0
 11
142.903
 21
52.3187
 31
0.0
  0
LINE
  8
0
 62
     1
 10
132.813
 20
30.6792
 30
0.0
 11
134.207
 21
33.6696
 31
0.0
  0
LINE
  8
0
 62
     1
 10
134.207
 20
33.6696
 30
0.0
 11
119.706
 21
40.4315
 31
0.0
  0
LINE
  8
0
 62
     1
 10
119.706
 20
40.4315
 30
0.0
 11
118.311
 21
37.4414
 31
0.0
  0
LINE
  8
0
 62
     1
 10
118.311
 20
37.4414
 30
0.0
 11
132.813
 21
30.6792
 31
0.0
  0
LINE
  8
0
 62
     1
 10
1.99953
 20
150.967
 30
0.0
 11
1.99953
 21
151.138
 31
0.0
  0
LINE
  8
0
 62
     1
 10
1.99953
 20
151.138
 30
0.0
 11
2.13183
 21
151.646
 31
0.0
  0
LINE
  8
0
 62
     1
 10
2.13183
 20
151.646
 30
0.0
 11
2.48322
 21
152.13
 31
0.0
  0
LINE
  8
0
 62
     1
 10
2.48322
 20
152.13
 30
0.0
 11
2.97932
 21
152.421
 31
0.0
  0
LINE
  8
0
 62
     1
 10
2.97932
 20
152.421
 30
0.0
 11
3.54983
 21
152.517
 31
0.0
  0
LINE
  8
0
 62
     1
 10
3.54983
 20
152.517
 30
0.0
 11
4.11896
 21
152.421
 31
0.0
  0
LINE
  8
0
 62
     1
 10
4.11896
 20
152.421
 30
0.0
 11
4.61504
 21
152.13
 31
0.0
  0
LINE
  8
0
 62
     1
 10
4.61504
 20
152.13
 30
0.0
 11
4.96644
 21
151.646
 31
0.0
  0
LINE
  8
0
 62
     1
 10
4.96644
 20
151.646
 30
0.0
 11
5.10011
 21
151.138
 31
0.0
  0
LINE
  8
0
 62
     1
 10
5.10011
 20
151.138
 30
0.0
 11
5.10011
 21
150.967
 31
0.0
  0
LINE
  8
0
 62
     1
 10
5.10011
 20
150.967
 30
0.0
 11
5.10011
 21
150.797
 31
0.0
  0
LINE
  8
0
 62
     1
 10
5.10011
 20
150.797
 30
0.0
 11
4.96644
 21
150.289
 31
0.0
  0
LINE
  8
0
 62
     1
 10
4.96644
 20
150.289
 30
0.0
 11
4.61504
 21
149.805
 31
0.0
  0
LINE
  8
0
 62
     1
 10
4.61504
 20
149.805
 30
0.0
 11
4.11896
 21
149.514
 31
0.0
  0
LINE
  8
0
 62
     1
 10
4.11896
 20
149.514
 30
0.0
 11
3.54983
 21
149.417
 31
0.0
  0
LINE
  8
0
 62
     1
 10
3.54983
 20
149.417
 30
0.0
 11
2.97932
 21
149.514
 31
0.0
  0
LINE
  8
0
 62
     1
 10
2.97932
 20
149.514
 30
0.0
 11
2.48322
 21
149.805
 31
0.0
  0
LINE
  8
0
 62
     1
 10
2.48322
 20
149.805
 30
0.0
 11
2.13183
 21
150.289
 31
0.0
  0
LINE
  8
0
 62
     1
 10
2.13183
 20
150.289
 30
0.0
 11
1.99953
 21
150.797
 31
0.0
  0
LINE
  8
0
 62
     1
 10
1.99953
 20
150.797
 30
0.0
 11
1.99953
 21
150.967
 31
0.0
  0
LINE
  8
0
 62
     1
 10
1.99953
 20
43.4813
 30
0.0
 11
1.99953
 21
43.652
 31
0.0
  0
LINE
  8
0
 62
     1
 10
1.99953
 20
43.652
 30
0.0
 11
2.13183
 21
44.1607
 31
0.0
  0
LINE
  8
0
 62
     1
 10
2.13183
 20
44.1607
 30
0.0
 11
2.48322
 21
44.6444
 31
0.0
  0
LINE
  8
0
 62
     1
 10
2.48322
 20
44.6444
 30
0.0
 11
2.97932
 21
44.9351
 31
0.0
  0
LINE
  8
0
 62
     1
 10
2.97932
 20
44.9351
 30
0.0
 11
3.54983
 21
45.0314
 31
0.0
  0
LINE
  8
0
 62
     1
 10
3.54983
 20
45.0314
 30
0.0
 11
4.11896
 21
44.9351
 31
0.0
  0
LINE
  8
0
 62
     1
 10
4.11896
 20
44.9351
 30
0.0
 11
4.61504
 21
44.6444
 31
0.0
  0
LINE
  8
0
 62
     1
 10
4.61504
 20
44.6444
 30
0.0
 11
4.96644
 21
44.1607
 31
0.0
  0
LINE
  8
0
 62
     1
 10
4.96644
 20
44.1607
 30
0.0
 11
5.10011
 21
43.652
 31
0.0
  0
LINE
  8
0
 62
     1
 10
5.10011
 20
43.652
 30
0.0
 11
5.10011
 21
43.4813
 31
0.0
  0
LINE
  8
0
 62
     1
 10
5.10011
 20
43.4813
 30
0.0
 11
5.10011
 21
43.313
 31
0.0
  0
LINE
  8
0
 62
     1
 10
5.10011
 20
43.313
 30
0.0
 11
4.96644
 21
42.8046
 31
0.0
  0
LINE
  8
0
 62
     1
 10
4.96644
 20
42.8046
 30
0.0
 11
4.61504
 21
42.3196
 31
0.0
  0
LINE
  8
0
 62
     1
 10
4.61504
 20
42.3196
 30
0.0
 11
4.11896
 21
42.0303
 31
0.0
  0
LINE
  8
0
 62
     1
 10
4.11896
 20
42.0303
 30
0.0
 11
3.54983
 21
41.9322
 31
0.0
  0
LINE
  8
0
 62
     1
 10
3.54983
 20
41.9322
 30
0.0
 11
2.97932
 21
42.0303
 31
0.0
  0
LINE
  8
0
 62
     1
 10
2.97932
 20
42.0303
 30
0.0
 11
2.48322
 21
42.3196
 31
0.0
  0
LINE
  8
0
 62
     1
 10
2.48322
 20
42.3196
 30
0.0
 11
2.13183
 21
42.8046
 31
0.0
  0
LINE
  8
0
 62
     1
 10
2.13183
 20
42.8046
 30
0.0
 11
1.99953
 21
43.313
 31
0.0
  0
LINE
  8
0
 62
     1
 10
1.99953
 20
43.313
 30
0.0
 11
1.99953
 21
43.4813
 31
0.0
  0
LINE
  8
0
 62
     1
 10
82.0872
 20
43.4813
 30
0.0
 11
82.0872
 21
43.652
 31
0.0
  0
LINE
  8
0
 62
     1
 10
82.0872
 20
43.652
 30
0.0
 11
82.2194
 21
44.1607
 31
0.0
  0
LINE
  8
0
 62
     1
 10
82.2194
 20
44.1607
 30
0.0
 11
82.5708
 21
44.6444
 31
0.0
  0
LINE
  8
0
 62
     1
 10
82.5708
 20
44.6444
 30
0.0
 11
83.0668
 21
44.9351
 31
0.0
  0
LINE
  8
0
 62
     1
 10
83.0668
 20
44.9351
 30
0.0
 11
83.6359
 21
45.0314
 31
0.0
  0
LINE
  8
0
 62
     1
 10
83.6359
 20
45.0314
 30
0.0
 11
84.2049
 21
44.9351
 31
0.0
  0
LINE
  8
0
 62
     1
 10
84.2049
 20
44.9351
 30
0.0
 11
84.7012
 21
44.6444
 31
0.0
  0
LINE
  8
0
 62
     1
 10
84.7012
 20
44.6444
 30
0.0
 11
85.0526
 21
44.1607
 31
0.0
  0
LINE
  8
0
 62
     1
 10
85.0526
 20
44.1607
 30
0.0
 11
85.1863
 21
43.652
 31
0.0
  0
LINE
  8
0
 62
     1
 10
85.1863
 20
43.652
 30
0.0
 11
85.1863
 21
43.4813
 31
0.0
  0
LINE
  8
0
 62
     1
 10
85.1863
 20
43.4813
 30
0.0
 11
85.1863
 21
43.313
 31
0.0
  0
LINE
  8
0
 62
     1
 10
85.1863
 20
43.313
 30
0.0
 11
85.0526
 21
42.8046
 31
0.0
  0
LINE
  8
0
 62
     1
 10
85.0526
 20
42.8046
 30
0.0
 11
84.7012
 21
42.3196
 31
0.0
  0
LINE
  8
0
 62
     1
 10
84.7012
 20
42.3196
 30
0.0
 11
84.2049
 21
42.0303
 31
0.0
  0
LINE
  8
0
 62
     1
 10
84.2049
 20
42.0303
 30
0.0
 11
83.6359
 21
41.9322
 31
0.0
  0
LINE
  8
0
 62
     1
 10
83.6359
 20
41.9322
 30
0.0
 11
83.0668
 21
42.0303
 31
0.0
  0
LINE
  8
0
 62
     1
 10
83.0668
 20
42.0303
 30
0.0
 11
82.5708
 21
42.3196
 31
0.0
  0
LINE
  8
0
 62
     1
 10
82.5708
 20
42.3196
 30
0.0
 11
82.2194
 21
42.8046
 31
0.0
  0
LINE
  8
0
 62
     1
 10
82.2194
 20
42.8046
 30
0.0
 11
82.0872
 21
43.313
 31
0.0
  0
LINE
  8
0
 62
     1
 10
82.0872
 20
43.313
 30
0.0
 11
82.0872
 21
43.4813
 31
0.0
  0
LINE
  8
0
 62
     1
 10
167.357
 20
3.71934
 30
0.0
 11
167.357
 21
3.89019
 31
0.0
  0
LINE
  8
0
 62
     1
 10
167.357
 20
3.89019
 30
0.0
 11
167.489
 21
4.39872
 31
0.0
  0
LINE
  8
0
 62
     1
 10
167.489
 20
4.39872
 30
0.0
 11
167.841
 21
4.88237
 31
0.0
  0
LINE
  8
0
 62
     1
 10
167.841
 20
4.88237
 30
0.0
 11
168.337
 21
5.17317
 31
0.0
  0
LINE
  8
0
 62
     1
 10
168.337
 20
5.17317
 30
0.0
 11
168.906
 21
5.26962
 31
0.0
  0
LINE
  8
0
 62
     1
 10
168.906
 20
5.26962
 30
0.0
 11
169.475
 21
5.17317
 31
0.0
  0
LINE
  8
0
 62
     1
 10
169.475
 20
5.17317
 30
0.0
 11
169.972
 21
4.88237
 31
0.0
  0
LINE
  8
0
 62
     1
 10
169.972
 20
4.88237
 30
0.0
 11
170.323
 21
4.39872
 31
0.0
  0
LINE
  8
0
 62
     1
 10
170.323
 20
4.39872
 30
0.0
 11
170.457
 21
3.89019
 31
0.0
  0
LINE
  8
0
 62
     1
 10
170.457
 20
3.89019
 30
0.0
 11
170.457
 21
3.71934
 31
0.0
  0
LINE
  8
0
 62
     1
 10
170.457
 20
3.71934
 30
0.0
 11
170.457
 21
3.54983
 31
0.0
  0
LINE
  8
0
 62
     1
 10
170.457
 20
3.54983
 30
0.0
 11
170.323
 21
3.04133
 31
0.0
  0
LINE
  8
0
 62
     1
 10
170.323
 20
3.04133
 30
0.0
 11
169.972
 21
2.55764
 31
0.0
  0
LINE
  8
0
 62
     1
 10
169.972
 20
2.55764
 30
0.0
 11
169.475
 21
2.26687
 31
0.0
  0
LINE
  8
0
 62
     1
 10
169.475
 20
2.26687
 30
0.0
 11
168.906
 21
2.16903
 31
0.0
  0
LINE
  8
0
 62
     1
 10
168.906
 20
2.16903
 30
0.0
 11
168.337
 21
2.26687
 31
0.0
  0
LINE
  8
0
 62
     1
 10
168.337
 20
2.26687
 30
0.0
 11
167.841
 21
2.55764
 31
0.0
  0
LINE
  8
0
 62
     1
 10
167.841
 20
2.55764
 30
0.0
 11
167.489
 21
3.04133
 31
0.0
  0
LINE
  8
0
 62
     1
 10
167.489
 20
3.04133
 30
0.0
 11
167.357
 21
3.54983
 31
0.0
  0
LINE
  8
0
 62
     1
 10
167.357
 20
3.54983
 30
0.0
 11
167.357
 21
3.71934
 31
0.0
  0
LINE
  8
0
 62
     1
 10
194.652
 20
62.2529
 30
0.0
 11
194.652
 21
62.4237
 31
0.0
  0
LINE
  8
0
 62
     1
 10
194.652
 20
62.4237
 30
0.0
 11
194.784
 21
62.9324
 31
0.0
  0
LINE
  8
0
 62
     1
 10
194.784
 20
62.9324
 30
0.0
 11
195.136
 21
63.416
 31
0.0
  0
LINE
  8
0
 62
     1
 10
195.136
 20
63.416
 30
0.0
 11
195.632
 21
63.7067
 31
0.0
  0
LINE
  8
0
 62
     1
 10
195.632
 20
63.7067
 30
0.0
 11
196.201
 21
63.803
 31
0.0
  0
LINE
  8
0
 62
     1
 10
196.201
 20
63.803
 30
0.0
 11
196.77
 21
63.7067
 31
0.0
  0
LINE
  8
0
 62
     1
 10
196.77
 20
63.7067
 30
0.0
 11
197.266
 21
63.416
 31
0.0
  0
LINE
  8
0
 62
     1
 10
197.266
 20
63.416
 30
0.0
 11
197.618
 21
62.9324
 31
0.0
  0
LINE
  8
0
 62
     1
 10
197.618
 20
62.9324
 30
0.0
 11
197.751
 21
62.4237
 31
0.0
  0
LINE
  8
0
 62
     1
 10
197.751
 20
62.4237
 30
0.0
 11
197.751
 21
62.2529
 31
0.0
  0
LINE
  8
0
 62
     1
 10
197.751
 20
62.2529
 30
0.0
 11
197.751
 21
62.0847
 31
0.0
  0
LINE
  8
0
 62
     1
 10
197.751
 20
62.0847
 30
0.0
 11
197.618
 21
61.5763
 31
0.0
  0
LINE
  8
0
 62
     1
 10
197.618
 20
61.5763
 30
0.0
 11
197.266
 21
61.0912
 31
0.0
  0
LINE
  8
0
 62
     1
 10
197.266
 20
61.0912
 30
0.0
 11
196.77
 21
60.802
 31
0.0
  0
LINE
  8
0
 62
     1
 10
196.77
 20
60.802
 30
0.0
 11
196.201
 21
60.7039
 31
0.0
  0
LINE
  8
0
 62
     1
 10
196.201
 20
60.7039
 30
0.0
 11
195.632
 21
60.802
 31
0.0
  0
LINE
  8
0
 62
     1
 10
195.632
 20
60.802
 30
0.0
 11
195.136
 21
61.0912
 31
0.0
  0
LINE
  8
0
 62
     1
 10
195.136
 20
61.0912
 30
0.0
 11
194.784
 21
61.5763
 31
0.0
  0
LINE
  8
0
 62
     1
 10
194.784
 20
61.5763
 30
0.0
 11
194.652
 21
62.0847
 31
0.0
  0
LINE
  8
0
 62
     1
 10
194.652
 20
62.0847
 30
0.0
 11
194.652
 21
62.2529
 31
0.0
  0
LINE
  8
0
 62
     1
 10
194.652
 20
150.967
 30
0.0
 11
194.652
 21
151.138
 31
0.0
  0
LINE
  8
0
 62
     1
 10
194.652
 20
151.138
 30
0.0
 11
194.784
 21
151.646
 31
0.0
  0
LINE
  8
0
 62
     1
 10
194.784
 20
151.646
 30
0.0
 11
195.136
 21
152.13
 31
0.0
  0
LINE
  8
0
 62
     1
 10
195.136
 20
152.13
 30
0.0
 11
195.632
 21
152.421
 31
0.0
  0
LINE
  8
0
 62
     1
 10
195.632
 20
152.421
 30
0.0
 11
196.201
 21
152.517
 31
0.0
  0
LINE
  8
0
 62
     1
 10
196.201
 20
152.517
 30
0.0
 11
196.77
 21
152.421
 31
0.0
  0
LINE
  8
0
 62
     1
 10
196.77
 20
152.421
 30
0.0
 11
197.266
 21
152.13
 31
0.0
  0
LINE
  8
0
 62
     1
 10
197.266
 20
152.13
 30
0.0
 11
197.618
 21
151.646
 31
0.0
  0
LINE
  8
0
 62
     1
 10
197.618
 20
151.646
 30
0.0
 11
197.751
 21
151.138
 31
0.0
  0
LINE
  8
0
 62
     1
 10
197.751
 20
151.138
 30
0.0
 11
197.751
 21
150.967
 31
0.0
  0
LINE
  8
0
 62
     1
 10
197.751
 20
150.967
 30
0.0
 11
197.751
 21
150.797
 31
0.0
  0
LINE
  8
0
 62
     1
 10
197.751
 20
150.797
 30
0.0
 11
197.618
 21
150.289
 31
0.0
  0
LINE
  8
0
 62
     1
 10
197.618
 20
150.289
 30
0.0
 11
197.266
 21
149.805
 31
0.0
  0
LINE
  8
0
 62
     1
 10
197.266
 20
149.805
 30
0.0
 11
196.77
 21
149.514
 31
0.0
  0
LINE
  8
0
 62
     1
 10
196.77
 20
149.514
 30
0.0
 11
196.201
 21
149.417
 31
0.0
  0
LINE
  8
0
 62
     1
 10
196.201
 20
149.417
 30
0.0
 11
195.632
 21
149.514
 31
0.0
  0
LINE
  8
0
 62
     1
 10
195.632
 20
149.514
 30
0.0
 11
195.136
 21
149.805
 31
0.0
  0
LINE
  8
0
 62
     1
 10
195.136
 20
149.805
 30
0.0
 11
194.784
 21
150.289
 31
0.0
  0
LINE
  8
0
 62
     1
 10
194.784
 20
150.289
 30
0.0
 11
194.652
 21
150.797
 31
0.0
  0
LINE
  8
0
 62
     1
 10
194.652
 20
150.797
 30
0.0
 11
194.652
 21
150.967
 31
0.0
  0
LINE
  8
0
 62
     1
 10
14.0546
 20
140.425
 30
0.0
 11
29.0546
 21
140.425
 31
0.0
  0
LINE
  8
0
 62
     1
 10
29.0546
 20
140.425
 30
0.0
 11
29.0546
 21
125.423
 31
0.0
  0
LINE
  8
0
 62
     1
 10
29.0546
 20
125.423
 30
0.0
 11
14.0546
 21
125.423
 31
0.0
  0
LINE
  8
0
 62
     1
 10
14.0546
 20
125.423
 30
0.0
 11
14.0546
 21
140.425
 31
0.0
  0
LINE
  8
0
 62
     1
 10
37.8672
 20
140.425
 30
0.0
 11
52.8669
 21
140.425
 31
0.0
  0
LINE
  8
0
 62
     1
 10
52.8669
 20
140.425
 30
0.0
 11
52.8669
 21
125.423
 31
0.0
  0
LINE
  8
0
 62
     1
 10
52.8669
 20
125.423
 30
0.0
 11
37.8672
 21
125.423
 31
0.0
  0
LINE
  8
0
 62
     1
 10
37.8672
 20
125.423
 30
0.0
 11
37.8672
 21
140.425
 31
0.0
  0
LINE
  8
0
 62
     1
 10
56.9172
 20
143.625
 30
0.0
 11
71.9169
 21
143.625
 31
0.0
  0
LINE
  8
0
 62
     1
 10
71.9169
 20
143.625
 30
0.0
 11
71.9169
 21
128.625
 31
0.0
  0
LINE
  8
0
 62
     1
 10
71.9169
 20
128.625
 30
0.0
 11
56.9172
 21
128.625
 31
0.0
  0
LINE
  8
0
 62
     1
 10
56.9172
 20
128.625
 30
0.0
 11
56.9172
 21
143.625
 31
0.0
  0
LINE
  8
0
 62
     1
 10
75.9672
 20
145.225
 30
0.0
 11
90.9669
 21
145.225
 31
0.0
  0
LINE
  8
0
 62
     1
 10
90.9669
 20
145.225
 30
0.0
 11
90.9669
 21
130.225
 31
0.0
  0
LINE
  8
0
 62
     1
 10
90.9669
 20
130.225
 30
0.0
 11
75.9672
 21
130.225
 31
0.0
  0
LINE
  8
0
 62
     1
 10
75.9672
 20
130.225
 30
0.0
 11
75.9672
 21
145.225
 31
0.0
  0
LINE
  8
0
 62
     1
 10
95.0172
 20
143.625
 30
0.0
 11
110.017
 21
143.625
 31
0.0
  0
LINE
  8
0
 62
     1
 10
110.017
 20
143.625
 30
0.0
 11
110.017
 21
128.625
 31
0.0
  0
LINE
  8
0
 62
     1
 10
110.017
 20
128.625
 30
0.0
 11
95.0172
 21
128.625
 31
0.0
  0
LINE
  8
0
 62
     1
 10
95.0172
 20
128.625
 30
0.0
 11
95.0172
 21
143.625
 31
0.0
  0
LINE
  8
0
 62
     1
 10
114.067
 20
142.025
 30
0.0
 11
129.067
 21
142.025
 31
0.0
  0
LINE
  8
0
 62
     1
 10
129.067
 20
142.025
 30
0.0
 11
129.067
 21
127.025
 31
0.0
  0
LINE
  8
0
 62
     1
 10
129.067
 20
127.025
 30
0.0
 11
114.067
 21
127.025
 31
0.0
  0
LINE
  8
0
 62
     1
 10
114.067
 20
127.025
 30
0.0
 11
114.067
 21
142.025
 31
0.0
  0
LINE
  8
0
 62
     1
 10
133.117
 20
142.025
 30
0.0
 11
148.117
 21
142.025
 31
0.0
  0
LINE
  8
0
 62
     1
 10
148.117
 20
142.025
 30
0.0
 11
148.117
 21
127.025
 31
0.0
  0
LINE
  8
0
 62
     1
 10
148.117
 20
127.025
 30
0.0
 11
133.117
 21
127.025
 31
0.0
  0
LINE
  8
0
 62
     1
 10
133.117
 20
127.025
 30
0.0
 11
133.117
 21
142.025
 31
0.0
  0
LINE
  8
0
 62
     1
 10
14.0546
 20
121.375
 30
0.0
 11
29.0546
 21
121.375
 31
0.0
  0
LINE
  8
0
 62
     1
 10
29.0546
 20
121.375
 30
0.0
 11
29.0546
 21
106.373
 31
0.0
  0
LINE
  8
0
 62
     1
 10
29.0546
 20
106.373
 30
0.0
 11
14.0546
 21
106.373
 31
0.0
  0
LINE
  8
0
 62
     1
 10
14.0546
 20
106.373
 30
0.0
 11
14.0546
 21
121.375
 31
0.0
  0
LINE
  8
0
 62
     1
 10
37.8672
 20
121.375
 30
0.0
 11
52.8669
 21
121.375
 31
0.0
  0
LINE
  8
0
 62
     1
 10
52.8669
 20
121.375
 30
0.0
 11
52.8669
 21
106.373
 31
0.0
  0
LINE
  8
0
 62
     1
 10
52.8669
 20
106.373
 30
0.0
 11
37.8672
 21
106.373
 31
0.0
  0
LINE
  8
0
 62
     1
 10
37.8672
 20
106.373
 30
0.0
 11
37.8672
 21
121.375
 31
0.0
  0
LINE
  8
0
 62
     1
 10
56.9172
 20
124.575
 30
0.0
 11
71.9169
 21
124.575
 31
0.0
  0
LINE
  8
0
 62
     1
 10
71.9169
 20
124.575
 30
0.0
 11
71.9169
 21
109.575
 31
0.0
  0
LINE
  8
0
 62
     1
 10
71.9169
 20
109.575
 30
0.0
 11
56.9172
 21
109.575
 31
0.0
  0
LINE
  8
0
 62
     1
 10
56.9172
 20
109.575
 30
0.0
 11
56.9172
 21
124.575
 31
0.0
  0
LINE
  8
0
 62
     1
 10
75.9672
 20
126.175
 30
0.0
 11
90.9669
 21
126.175
 31
0.0
  0
LINE
  8
0
 62
     1
 10
90.9669
 20
126.175
 30
0.0
 11
90.9669
 21
111.175
 31
0.0
  0
LINE
  8
0
 62
     1
 10
90.9669
 20
111.175
 30
0.0
 11
75.9672
 21
111.175
 31
0.0
  0
LINE
  8
0
 62
     1
 10
75.9672
 20
111.175
 30
0.0
 11
75.9672
 21
126.175
 31
0.0
  0
LINE
  8
0
 62
     1
 10
95.0172
 20
124.575
 30
0.0
 11
110.017
 21
124.575
 31
0.0
  0
LINE
  8
0
 62
     1
 10
110.017
 20
124.575
 30
0.0
 11
110.017
 21
109.575
 31
0.0
  0
LINE
  8
0
 62
     1
 10
110.017
 20
109.575
 30
0.0
 11
95.0172
 21
109.575
 31
0.0
  0
LINE
  8
0
 62
     1
 10
95.0172
 20
109.575
 30
0.0
 11
95.0172
 21
124.575
 31
0.0
  0
LINE
  8
0
 62
     1
 10
114.067
 20
122.975
 30
0.0
 11
129.067
 21
122.975
 31
0.0
  0
LINE
  8
0
 62
     1
 10
129.067
 20
122.975
 30
0.0
 11
129.067
 21
107.975
 31
0.0
  0
LINE
  8
0
 62
     1
 10
129.067
 20
107.975
 30
0.0
 11
114.067
 21
107.975
 31
0.0
  0
LINE
  8
0
 62
     1
 10
114.067
 20
107.975
 30
0.0
 11
114.067
 21
122.975
 31
0.0
  0
LINE
  8
0
 62
     1
 10
133.117
 20
118.212
 30
0.0
 11
148.117
 21
118.212
 31
0.0
  0
LINE
  8
0
 62
     1
 10
148.117
 20
118.212
 30
0.0
 11
148.117
 21
103.212
 31
0.0
  0
LINE
  8
0
 62
     1
 10
148.117
 20
103.212
 30
0.0
 11
133.117
 21
103.212
 31
0.0
  0
LINE
  8
0
 62
     1
 10
133.117
 20
103.212
 30
0.0
 11
133.117
 21
118.212
 31
0.0
  0
LINE
  8
0
 62
     1
 10
14.0546
 20
102.325
 30
0.0
 11
29.0546
 21
102.325
 31
0.0
  0
LINE
  8
0
 62
     1
 10
29.0546
 20
102.325
 30
0.0
 11
29.0546
 21
87.3234
 31
0.0
  0
LINE
  8
0
 62
     1
 10
29.0546
 20
87.3234
 30
0.0
 11
14.0546
 21
87.3234
 31
0.0
  0
LINE
  8
0
 62
     1
 10
14.0546
 20
87.3234
 30
0.0
 11
14.0546
 21
102.325
 31
0.0
  0
LINE
  8
0
 62
     1
 10
37.8672
 20
102.325
 30
0.0
 11
52.8669
 21
102.325
 31
0.0
  0
LINE
  8
0
 62
     1
 10
52.8669
 20
102.325
 30
0.0
 11
52.8669
 21
87.3234
 31
0.0
  0
LINE
  8
0
 62
     1
 10
52.8669
 20
87.3234
 30
0.0
 11
37.8672
 21
87.3234
 31
0.0
  0
LINE
  8
0
 62
     1
 10
37.8672
 20
87.3234
 30
0.0
 11
37.8672
 21
102.325
 31
0.0
  0
LINE
  8
0
 62
     1
 10
56.9172
 20
105.525
 30
0.0
 11
71.9169
 21
105.525
 31
0.0
  0
LINE
  8
0
 62
     1
 10
71.9169
 20
105.525
 30
0.0
 11
71.9169
 21
90.5245
 31
0.0
  0
LINE
  8
0
 62
     1
 10
71.9169
 20
90.5245
 30
0.0
 11
56.9172
 21
90.5245
 31
0.0
  0
LINE
  8
0
 62
     1
 10
56.9172
 20
90.5245
 30
0.0
 11
56.9172
 21
105.525
 31
0.0
  0
LINE
  8
0
 62
     1
 10
75.9672
 20
107.125
 30
0.0
 11
90.9669
 21
107.125
 31
0.0
  0
LINE
  8
0
 62
     1
 10
90.9669
 20
107.125
 30
0.0
 11
90.9669
 21
92.1247
 31
0.0
  0
LINE
  8
0
 62
     1
 10
90.9669
 20
92.1247
 30
0.0
 11
75.9672
 21
92.1247
 31
0.0
  0
LINE
  8
0
 62
     1
 10
75.9672
 20
92.1247
 30
0.0
 11
75.9672
 21
107.125
 31
0.0
  0
LINE
  8
0
 62
     1
 10
95.0172
 20
105.525
 30
0.0
 11
110.017
 21
105.525
 31
0.0
  0
LINE
  8
0
 62
     1
 10
110.017
 20
105.525
 30
0.0
 11
110.017
 21
90.5245
 31
0.0
  0
LINE
  8
0
 62
     1
 10
110.017
 20
90.5245
 30
0.0
 11
95.0172
 21
90.5245
 31
0.0
  0
LINE
  8
0
 62
     1
 10
95.0172
 20
90.5245
 30
0.0
 11
95.0172
 21
105.525
 31
0.0
  0
LINE
  8
0
 62
     1
 10
114.067
 20
103.925
 30
0.0
 11
129.067
 21
103.925
 31
0.0
  0
LINE
  8
0
 62
     1
 10
129.067
 20
103.925
 30
0.0
 11
129.067
 21
88.9247
 31
0.0
  0
LINE
  8
0
 62
     1
 10
129.067
 20
88.9247
 30
0.0
 11
114.067
 21
88.9247
 31
0.0
  0
LINE
  8
0
 62
     1
 10
114.067
 20
88.9247
 30
0.0
 11
114.067
 21
103.925
 31
0.0
  0
LINE
  8
0
 62
     1
 10
14.0546
 20
83.275
 30
0.0
 11
29.0546
 21
83.275
 31
0.0
  0
LINE
  8
0
 62
     1
 10
29.0546
 20
83.275
 30
0.0
 11
29.0546
 21
68.2734
 31
0.0
  0
LINE
  8
0
 62
     1
 10
29.0546
 20
68.2734
 30
0.0
 11
14.0546
 21
68.2734
 31
0.0
  0
LINE
  8
0
 62
     1
 10
14.0546
 20
68.2734
 30
0.0
 11
14.0546
 21
83.275
 31
0.0
  0
LINE
  8
0
 62
     1
 10
37.8672
 20
83.275
 30
0.0
 11
52.8669
 21
83.275
 31
0.0
  0
LINE
  8
0
 62
     1
 10
52.8669
 20
83.275
 30
0.0
 11
52.8669
 21
68.2734
 31
0.0
  0
LINE
  8
0
 62
     1
 10
52.8669
 20
68.2734
 30
0.0
 11
37.8672
 21
68.2734
 31
0.0
  0
LINE
  8
0
 62
     1
 10
37.8672
 20
68.2734
 30
0.0
 11
37.8672
 21
83.275
 31
0.0
  0
LINE
  8
0
 62
     1
 10
56.9172
 20
86.4747
 30
0.0
 11
71.9169
 21
86.4747
 31
0.0
  0
LINE
  8
0
 62
     1
 10
71.9169
 20
86.4747
 30
0.0
 11
71.9169
 21
71.4745
 31
0.0
  0
LINE
  8
0
 62
     1
 10
71.9169
 20
71.4745
 30
0.0
 11
56.9172
 21
71.4745
 31
0.0
  0
LINE
  8
0
 62
     1
 10
56.9172
 20
71.4745
 30
0.0
 11
56.9172
 21
86.4747
 31
0.0
  0
LINE
  8
0
 62
     1
 10
75.9672
 20
88.0745
 30
0.0
 11
90.9669
 21
88.0745
 31
0.0
  0
LINE
  8
0
 62
     1
 10
90.9669
 20
88.0745
 30
0.0
 11
90.9669
 21
73.0747
 31
0.0
  0
LINE
  8
0
 62
     1
 10
90.9669
 20
73.0747
 30
0.0
 11
75.9672
 21
73.0747
 31
0.0
  0
LINE
  8
0
 62
     1
 10
75.9672
 20
73.0747
 30
0.0
 11
75.9672
 21
88.0745
 31
0.0
  0
LINE
  8
0
 62
     1
 10
95.0172
 20
86.4747
 30
0.0
 11
110.017
 21
86.4747
 31
0.0
  0
LINE
  8
0
 62
     1
 10
110.017
 20
86.4747
 30
0.0
 11
110.017
 21
71.4745
 31
0.0
  0
LINE
  8
0
 62
     1
 10
110.017
 20
71.4745
 30
0.0
 11
95.0172
 21
71.4745
 31
0.0
  0
LINE
  8
0
 62
     1
 10
95.0172
 20
71.4745
 30
0.0
 11
95.0172
 21
86.4747
 31
0.0
  0
LINE
  8
0
 62
     1
 10
114.067
 20
84.8748
 30
0.0
 11
129.067
 21
84.8748
 31
0.0
  0
LINE
  8
0
 62
     1
 10
129.067
 20
84.8748
 30
0.0
 11
129.067
 21
69.8747
 31
0.0
  0
LINE
  8
0
 62
     1
 10
129.067
 20
69.8747
 30
0.0
 11
114.067
 21
69.8747
 31
0.0
  0
LINE
  8
0
 62
     1
 10
114.067
 20
69.8747
 30
0.0
 11
114.067
 21
84.8748
 31
0.0
  0
LINE
  8
0
 62
     1
 10
133.117
 20
89.6373
 30
0.0
 11
148.117
 21
89.6373
 31
0.0
  0
LINE
  8
0
 62
     1
 10
148.117
 20
89.6373
 30
0.0
 11
148.117
 21
74.6372
 31
0.0
  0
LINE
  8
0
 62
     1
 10
148.117
 20
74.6372
 30
0.0
 11
133.117
 21
74.6372
 31
0.0
  0
LINE
  8
0
 62
     1
 10
133.117
 20
74.6372
 30
0.0
 11
133.117
 21
89.6373
 31
0.0
  0
LINE
  8
0
 62
     1
 10
18.8171
 20
64.225
 30
0.0
 11
33.8171
 21
64.225
 31
0.0
  0
LINE
  8
0
 62
     1
 10
33.8171
 20
64.225
 30
0.0
 11
33.8171
 21
49.2234
 31
0.0
  0
LINE
  8
0
 62
     1
 10
33.8171
 20
49.2234
 30
0.0
 11
18.8171
 21
49.2234
 31
0.0
  0
LINE
  8
0
 62
     1
 10
18.8171
 20
49.2234
 30
0.0
 11
18.8171
 21
64.225
 31
0.0
  0
LINE
  8
0
 62
     1
 10
37.8672
 20
64.225
 30
0.0
 11
52.8669
 21
64.225
 31
0.0
  0
LINE
  8
0
 62
     1
 10
52.8669
 20
64.225
 30
0.0
 11
52.8669
 21
49.2234
 31
0.0
  0
LINE
  8
0
 62
     1
 10
52.8669
 20
49.2234
 30
0.0
 11
37.8672
 21
49.2234
 31
0.0
  0
LINE
  8
0
 62
     1
 10
37.8672
 20
49.2234
 30
0.0
 11
37.8672
 21
64.225
 31
0.0
  0
LINE
  8
0
 62
     1
 10
56.9172
 20
67.4247
 30
0.0
 11
71.9169
 21
67.4247
 31
0.0
  0
LINE
  8
0
 62
     1
 10
71.9169
 20
67.4247
 30
0.0
 11
71.9169
 21
52.4245
 31
0.0
  0
LINE
  8
0
 62
     1
 10
71.9169
 20
52.4245
 30
0.0
 11
56.9172
 21
52.4245
 31
0.0
  0
LINE
  8
0
 62
     1
 10
56.9172
 20
52.4245
 30
0.0
 11
56.9172
 21
67.4247
 31
0.0
  0
LINE
  8
0
 62
     1
 10
75.9672
 20
69.0245
 30
0.0
 11
90.9669
 21
69.0245
 31
0.0
  0
LINE
  8
0
 62
     1
 10
90.9669
 20
69.0245
 30
0.0
 11
90.9669
 21
54.0247
 31
0.0
  0
LINE
  8
0
 62
     1
 10
90.9669
 20
54.0247
 30
0.0
 11
75.9672
 21
54.0247
 31
0.0
  0
LINE
  8
0
 62
     1
 10
75.9672
 20
54.0247
 30
0.0
 11
75.9672
 21
69.0245
 31
0.0
  0
LINE
  8
0
 62
     1
 10
95.0172
 20
67.4247
 30
0.0
 11
110.017
 21
67.4247
 31
0.0
  0
LINE
  8
0
 62
     1
 10
110.017
 20
67.4247
 30
0.0
 11
110.017
 21
52.4245
 31
0.0
  0
LINE
  8
0
 62
     1
 10
110.017
 20
52.4245
 30
0.0
 11
95.0172
 21
52.4245
 31
0.0
  0
LINE
  8
0
 62
     1
 10
95.0172
 20
52.4245
 30
0.0
 11
95.0172
 21
67.4247
 31
0.0
  0
LINE
  8
0
 62
     1
 10
172.468
 20
24.9452
 30
0.0
 11
158.874
 21
31.2842
 31
0.0
  0
LINE
  8
0
 62
     1
 10
158.874
 20
31.2842
 30
0.0
 11
152.535
 21
17.6899
 31
0.0
  0
LINE
  8
0
 62
     1
 10
152.535
 20
17.6899
 30
0.0
 11
166.129
 21
11.3509
 31
0.0
  0
LINE
  8
0
 62
     1
 10
166.129
 20
11.3509
 30
0.0
 11
172.468
 21
24.9452
 31
0.0
  0
LINE
  8
0
 62
     1
 10
180.519
 20
42.2106
 30
0.0
 11
166.925
 21
48.5496
 31
0.0
  0
LINE
  8
0
 62
     1
 10
166.925
 20
48.5496
 30
0.0
 11
160.586
 21
34.9553
 31
0.0
  0
LINE
  8
0
 62
     1
 10
160.586
 20
34.9553
 30
0.0
 11
174.18
 21
28.6163
 31
0.0
  0
LINE
  8
0
 62
     1
 10
174.18
 20
28.6163
 30
0.0
 11
180.519
 21
42.2106
 31
0.0
  0
LINE
  8
0
 62
     1
 10
159.229
 20
41.6292
 30
0.0
 11
145.634
 21
47.9683
 31
0.0
  0
LINE
  8
0
 62
     1
 10
145.634
 20
47.9683
 30
0.0
 11
139.295
 21
34.3738
 31
0.0
  0
LINE
  8
0
 62
     1
 10
139.295
 20
34.3738
 30
0.0
 11
152.889
 21
28.0348
 31
0.0
  0
LINE
  8
0
 62
     1
 10
152.889
 20
28.0348
 30
0.0
 11
159.229
 21
41.6292
 31
0.0
  0
LINE
  8
0
 62
     1
 10
141.964
 20
49.6796
 30
0.0
 11
128.37
 21
56.0186
 31
0.0
  0
LINE
  8
0
 62
     1
 10
128.37
 20
56.0186
 30
0.0
 11
122.029
 21
42.4244
 31
0.0
  0
LINE
  8
0
 62
     1
 10
122.029
 20
42.4244
 30
0.0
 11
135.625
 21
36.0853
 31
0.0
  0
LINE
  8
0
 62
     1
 10
135.625
 20
36.0853
 30
0.0
 11
141.964
 21
49.6796
 31
0.0
  0
LINE
  8
0
 62
     1
 10
188.571
 20
59.4762
 30
0.0
 11
174.976
 21
65.8153
 31
0.0
  0
LINE
  8
0
 62
     1
 10
174.976
 20
65.8153
 30
0.0
 11
168.636
 21
52.2206
 31
0.0
  0
LINE
  8
0
 62
     1
 10
168.636
 20
52.2206
 30
0.0
 11
182.232
 21
45.8819
 31
0.0
  0
LINE
  8
0
 62
     1
 10
182.232
 20
45.8819
 30
0.0
 11
188.571
 21
59.4762
 31
0.0
  0
LINE
  8
0
 62
     1
 10
171.305
 20
67.5266
 30
0.0
 11
157.711
 21
73.8657
 31
0.0
  0
LINE
  8
0
 62
     1
 10
157.711
 20
73.8657
 30
0.0
 11
151.372
 21
60.2714
 31
0.0
  0
LINE
  8
0
 62
     1
 10
151.372
 20
60.2714
 30
0.0
 11
164.966
 21
53.9323
 31
0.0
  0
LINE
  8
0
 62
     1
 10
164.966
 20
53.9323
 30
0.0
 11
171.305
 21
67.5266
 31
0.0
  0
ENDSEC
  0
EOF
